{
	"asset":{
		"generator":"Khronos glTF Blender I/O v4.3.47",
		"version":"2.0"
	},
	"scene":0,
	"scenes":[
		{
			"name":"Scene",
			"nodes":[
				34
			]
		}
	],
	"nodes":[
		{
			"mesh":0,
			"name":"HelmetTail",
			"translation":[
				-0.09451249986886978,
				0.2861909866333008,
				-0.23407123982906342
			]
		},
		{
			"children":[
				0
			],
			"mesh":1,
			"name":"Helmet"
		},
		{
			"children":[
				1
			],
			"mesh":2,
			"name":"Head",
			"rotation":[
				0,
				-1.1920930376163597e-07,
				0,
				1
			],
			"scale":[
				1,
				1.0000001192092896,
				1
			],
			"translation":[
				-8.33728295819916e-14,
				0.12678349018096924,
				9.5367431640625e-07
			]
		},
		{
			"children":[
				2
			],
			"name":"HeadBone",
			"rotation":[
				0,
				-1.4210854715202004e-14,
				0,
				1
			],
			"scale":[
				1,
				0.9999999403953552,
				1
			],
			"translation":[
				0,
				0.06843245029449463,
				0
			]
		},
		{
			"children":[
				3
			],
			"name":"NeckBone",
			"translation":[
				0,
				0.43725109100341797,
				0
			]
		},
		{
			"name":"HandLeft",
			"rotation":[
				9.15880562502025e-08,
				1.1382888409627867e-08,
				-0.1647966206073761,
				0.986327588558197
			],
			"scale":[
				0.9999999403953552,
				1,
				1
			],
			"translation":[
				6.705518984517767e-08,
				0.1983671337366104,
				2.1316282072803006e-14
			]
		},
		{
			"mesh":3,
			"name":"HandLeft",
			"rotation":[
				-1.0491778112964312e-07,
				-7.537386892408904e-08,
				0.9964056015014648,
				0.08471079170703888
			],
			"scale":[
				1.0000004768371582,
				1.000000238418579,
				1
			],
			"translation":[
				0.024144016206264496,
				0.20210660994052887,
				2.3326381892729842e-07
			]
		},
		{
			"children":[
				5,
				6
			],
			"name":"ArmLowerLeftBone",
			"rotation":[
				1.3180628855025134e-07,
				-1.766282906601191e-07,
				-0.2797439396381378,
				0.9600746631622314
			],
			"scale":[
				1,
				0.9999999403953552,
				1
			],
			"translation":[
				-4.451994328746878e-14,
				0.2023507058620453,
				1.4210854715202004e-14
			]
		},
		{
			"children":[
				7
			],
			"name":"ArmUpperLeftBone",
			"rotation":[
				2.0529344624264922e-07,
				-8.571537080115377e-08,
				-0.2842700779438019,
				0.9587442278862
			],
			"scale":[
				1,
				0.9999999403953552,
				1
			],
			"translation":[
				4.470345871254722e-08,
				0.2423449605703354,
				-9.592326932761353e-14
			]
		},
		{
			"children":[
				8
			],
			"name":"ShoulderLeftBone",
			"rotation":[
				3.6315441320766695e-07,
				1.3141216470557993e-07,
				-0.7966711521148682,
				0.6044130325317383
			],
			"scale":[
				0.9999999403953552,
				0.9999999403953552,
				1
			],
			"translation":[
				0,
				0.43725109100341797,
				0
			]
		},
		{
			"name":"HandRight",
			"rotation":[
				1.102853062207032e-07,
				-1.2328818854712154e-07,
				0.1647966206073761,
				0.986327588558197
			],
			"scale":[
				0.9999999403953552,
				1,
				1
			],
			"translation":[
				-6.705522537231445e-08,
				0.1983671337366104,
				1.5987211554602254e-14
			]
		},
		{
			"mesh":4,
			"name":"HandRight",
			"rotation":[
				-1.049177669187884e-07,
				7.537386892408904e-08,
				-0.9964056015014648,
				0.08471079170703888
			],
			"scale":[
				1.0000004768371582,
				1.000000238418579,
				1
			],
			"translation":[
				-0.03431420773267746,
				0.2505728304386139,
				-0.007984284311532974
			]
		},
		{
			"children":[
				10,
				11
			],
			"name":"ArmLowerRightBone",
			"rotation":[
				1.318062459176872e-07,
				1.7662831908182852e-07,
				0.2797439396381378,
				0.9600746631622314
			],
			"scale":[
				1,
				0.9999999403953552,
				1
			],
			"translation":[
				-1.6209256159527285e-14,
				0.2023507058620453,
				2.842170943040401e-14
			]
		},
		{
			"children":[
				12
			],
			"name":"ArmUpperRightBone",
			"rotation":[
				2.0529347466435865e-07,
				8.571537790658112e-08,
				0.2842700779438019,
				0.9587442278862
			],
			"translation":[
				-4.470350489782504e-08,
				0.2423449605703354,
				-2.708944180085382e-14
			]
		},
		{
			"children":[
				13
			],
			"name":"ShoulderRightBone",
			"rotation":[
				1.7321322332009004e-07,
				-2.7551547532311815e-07,
				0.7966711521148682,
				0.6044130325317383
			],
			"scale":[
				0.9999999403953552,
				0.9999999403953552,
				1
			],
			"translation":[
				0,
				0.43725109100341797,
				0
			]
		},
		{
			"mesh":5,
			"name":"FootLeft",
			"rotation":[
				-0.5184897780418396,
				-0.4808000326156616,
				-0.51848965883255,
				0.48079991340637207
			],
			"scale":[
				0.9999997615814209,
				0.9999997615814209,
				1
			],
			"translation":[
				-0.052571069449186325,
				0.01739160157740116,
				-0.1323901265859604
			]
		},
		{
			"children":[
				15
			],
			"name":"FootLeft",
			"rotation":[
				2.6874275249610946e-07,
				-1.1757746776197564e-08,
				-0.7071067690849304,
				0.7071067690849304
			],
			"translation":[
				-3.6055070040674764e-10,
				0.33693334460258484,
				-1.859191467445953e-09
			]
		},
		{
			"children":[
				16
			],
			"name":"LegLowerLeftBone",
			"rotation":[
				-3.8645517008717434e-08,
				-3.8328171747537e-09,
				0.08143173903226852,
				0.99667888879776
			],
			"scale":[
				0.9999999403953552,
				0.9999999403953552,
				1
			],
			"translation":[
				3.6538878589453816e-09,
				0.2902297079563141,
				-1.249667747060812e-08
			]
		},
		{
			"children":[
				17
			],
			"name":"LegUpperLeftBone",
			"rotation":[
				-0.7064288854598999,
				-0.030963536351919174,
				-0.030963877215981483,
				0.7064281702041626
			],
			"scale":[
				1,
				1,
				1.0000001192092896
			],
			"translation":[
				-1.9539925233402755e-14,
				0.13222052156925201,
				1.099120794378905e-14
			]
		},
		{
			"children":[
				18
			],
			"name":"FemurLeftBone",
			"rotation":[
				-0.49999964237213135,
				-0.5000002384185791,
				-0.49999988079071045,
				0.5000002384185791
			],
			"scale":[
				1,
				0.9999999403953552,
				1
			]
		},
		{
			"mesh":6,
			"name":"FootRight",
			"rotation":[
				-0.5184907913208008,
				0.480798602104187,
				0.5184906721115112,
				0.48079854249954224
			],
			"scale":[
				0.9999996423721313,
				0.9999995231628418,
				0.9999995827674866
			],
			"translation":[
				0.05257183313369751,
				0.017392832785844803,
				-0.13205081224441528
			]
		},
		{
			"children":[
				20
			],
			"name":"FootRight",
			"rotation":[
				2.2101797014784097e-07,
				9.978371195984437e-08,
				0.7071067690849304,
				0.7071067690849304
			],
			"scale":[
				0.9999999403953552,
				0.9999999403953552,
				1
			],
			"translation":[
				-8.092904124623601e-10,
				0.33693352341651917,
				-1.7972298094193206e-09
			]
		},
		{
			"children":[
				21
			],
			"name":"LegLowerRightBone",
			"rotation":[
				-3.759416600246368e-08,
				6.559043530529607e-09,
				-0.08141543716192245,
				0.9966802597045898
			],
			"translation":[
				-8.188145272924885e-09,
				0.2902297079563141,
				9.034377690397832e-09
			]
		},
		{
			"children":[
				22
			],
			"name":"LegUpperRightBone",
			"rotation":[
				-0.706429123878479,
				0.03095732443034649,
				0.03095765970647335,
				0.7064284682273865
			],
			"scale":[
				1,
				1,
				1.0000001192092896
			],
			"translation":[
				-7.105427357601002e-15,
				0.1322205364704132,
				1.7430501486614958e-14
			]
		},
		{
			"children":[
				23
			],
			"name":"FemurRightBone",
			"rotation":[
				-0.4999997615814209,
				0.5000001192092896,
				0.4999997615814209,
				0.5000003576278687
			]
		},
		{
			"mesh":7,
			"name":"Cape",
			"rotation":[
				-0.7071068286895752,
				0,
				0,
				0.7071068286895752
			],
			"translation":[
				0,
				-0.2650202512741089,
				-0.18324899673461914
			]
		},
		{
			"children":[
				25
			],
			"mesh":8,
			"name":"Torso",
			"rotation":[
				0,
				-1.1920928955078125e-07,
				0,
				1
			],
			"translation":[
				-2.084321417176148e-14,
				0.2830764055252075,
				2.384185791015625e-07
			]
		},
		{
			"children":[
				4,
				9,
				14,
				19,
				24,
				26
			],
			"name":"TorsoBone",
			"rotation":[
				0,
				1.1920928955078125e-07,
				0,
				1
			],
			"translation":[
				0,
				-0.0020689964294433594,
				0
			]
		},
		{
			"name":"HandLeftIKController",
			"rotation":[
				-7.241339261554458e-08,
				-9.343663620597908e-10,
				0.9967423677444458,
				0.08065170794725418
			],
			"translation":[
				0.39758095145225525,
				0.021978557109832764,
				-4.70245282713222e-08
			]
		},
		{
			"name":"HandRightIKController",
			"rotation":[
				-1.8243503063786193e-07,
				-8.409297258538118e-09,
				-0.9967423677444458,
				0.08065170794725418
			],
			"translation":[
				-0.39758095145225525,
				0.021978557109832764,
				-4.70245282713222e-08
			]
		},
		{
			"name":"FootLeftIKController",
			"rotation":[
				0.4999999403953552,
				0.5000000596046448,
				0.5000001192092896,
				0.4999999403953552
			],
			"translation":[
				0.1322205364704132,
				-0.6271629333496094,
				0
			]
		},
		{
			"name":"FootRightIKController",
			"rotation":[
				-0.4999999403953552,
				-0.5000000596046448,
				0.4999999403953552,
				0.5000000596046448
			],
			"scale":[
				1,
				0.9999999403953552,
				1
			],
			"translation":[
				-0.1322205364704132,
				-0.6271629333496094,
				0
			]
		},
		{
			"children":[
				27,
				28,
				29,
				30,
				31
			],
			"name":"PlayerArmature",
			"rotation":[
				0,
				1,
				0,
				7.549790126404332e-08
			],
			"translation":[
				0,
				0.6797356605529785,
				0
			]
		},
		{
			"camera":0,
			"name":"PlayerCamera",
			"rotation":[
				-0.3420201241970062,
				0,
				0,
				0.9396926760673523
			],
			"translation":[
				0,
				5,
				5
			]
		},
		{
			"children":[
				32,
				33
			],
			"name":"Player"
		}
	],
	"cameras":[
		{
			"name":"PlayerCamera",
			"perspective":{
				"aspectRatio":1.7777777777777777,
				"yfov":0.937270173412135,
				"zfar":1000,
				"znear":0.10000000149011612
			},
			"type":"perspective"
		}
	],
	"materials":[
		{
			"doubleSided":true,
			"name":"MainMaterial",
			"pbrMetallicRoughness":{
				"baseColorTexture":{
					"index":0
				},
				"metallicFactor":0,
				"roughnessFactor":0.699999988079071
			}
		}
	],
	"meshes":[
		{
			"name":"Cylinder.001",
			"primitives":[
				{
					"attributes":{
						"POSITION":0,
						"NORMAL":1,
						"TEXCOORD_0":2
					},
					"indices":3,
					"material":0
				}
			]
		},
		{
			"name":"Sphere.004",
			"primitives":[
				{
					"attributes":{
						"POSITION":4,
						"NORMAL":5,
						"TEXCOORD_0":6
					},
					"indices":7,
					"material":0
				}
			]
		},
		{
			"name":"Sphere",
			"primitives":[
				{
					"attributes":{
						"POSITION":8,
						"NORMAL":9,
						"TEXCOORD_0":10
					},
					"indices":11,
					"material":0
				}
			]
		},
		{
			"name":"Cube.011",
			"primitives":[
				{
					"attributes":{
						"POSITION":12,
						"NORMAL":13,
						"TEXCOORD_0":14
					},
					"indices":15,
					"material":0
				}
			]
		},
		{
			"name":"Cube.013",
			"primitives":[
				{
					"attributes":{
						"POSITION":16,
						"NORMAL":17,
						"TEXCOORD_0":18
					},
					"indices":19,
					"material":0
				}
			]
		},
		{
			"name":"Cylinder.003",
			"primitives":[
				{
					"attributes":{
						"POSITION":20,
						"NORMAL":21,
						"TEXCOORD_0":22
					},
					"indices":23,
					"material":0
				}
			]
		},
		{
			"name":"Cylinder",
			"primitives":[
				{
					"attributes":{
						"POSITION":24,
						"NORMAL":25,
						"TEXCOORD_0":26
					},
					"indices":27,
					"material":0
				}
			]
		},
		{
			"name":"Plane.001",
			"primitives":[
				{
					"attributes":{
						"POSITION":28,
						"NORMAL":29,
						"TEXCOORD_0":30
					},
					"indices":31,
					"material":0
				}
			]
		},
		{
			"name":"Cube.003",
			"primitives":[
				{
					"attributes":{
						"POSITION":32,
						"NORMAL":33,
						"TEXCOORD_0":34
					},
					"indices":35,
					"material":0
				}
			]
		}
	],
	"textures":[
		{
			"sampler":0,
			"source":0
		}
	],
	"images":[
		{
			"mimeType":"image/png",
			"name":"main-texture",
			"uri":"../../../textures/main-texture.png"
		}
	],
	"skins":[
		{
			"inverseBindMatrices":36,
			"joints":[
				27,
				4,
				3,
				9,
				8,
				7,
				5,
				14,
				13,
				12,
				10,
				19,
				18,
				17,
				16,
				24,
				23,
				22,
				21,
				28,
				29,
				30,
				31
			],
			"name":"PlayerArmature"
		}
	],
	"accessors":[
		{
			"bufferView":0,
			"componentType":5126,
			"count":336,
			"max":[
				0.11403200030326843,
				9.366136509925127e-05,
				0.11420870572328568
			],
			"min":[
				-0.03441842645406723,
				-0.23520056903362274,
				-0.17281316220760345
			],
			"type":"VEC3"
		},
		{
			"bufferView":1,
			"componentType":5126,
			"count":336,
			"type":"VEC3"
		},
		{
			"bufferView":2,
			"componentType":5126,
			"count":336,
			"type":"VEC2"
		},
		{
			"bufferView":3,
			"componentType":5123,
			"count":540,
			"type":"SCALAR"
		},
		{
			"bufferView":4,
			"componentType":5126,
			"count":556,
			"max":[
				0.1518649160861969,
				0.19793801009655,
				0.1834573894739151
			],
			"min":[
				-0.1518649160861969,
				-0.08933021128177643,
				-0.18504448235034943
			],
			"type":"VEC3"
		},
		{
			"bufferView":5,
			"componentType":5126,
			"count":556,
			"type":"VEC3"
		},
		{
			"bufferView":6,
			"componentType":5126,
			"count":556,
			"type":"VEC2"
		},
		{
			"bufferView":7,
			"componentType":5123,
			"count":1062,
			"type":"SCALAR"
		},
		{
			"bufferView":8,
			"componentType":5126,
			"count":240,
			"max":[
				0.12021489441394806,
				0.15417465567588806,
				0.15417465567588806
			],
			"min":[
				-0.12021489441394806,
				-0.15417465567588806,
				-0.15417465567588806
			],
			"type":"VEC3"
		},
		{
			"bufferView":9,
			"componentType":5126,
			"count":240,
			"type":"VEC3"
		},
		{
			"bufferView":10,
			"componentType":5126,
			"count":240,
			"type":"VEC2"
		},
		{
			"bufferView":11,
			"componentType":5123,
			"count":336,
			"type":"SCALAR"
		},
		{
			"bufferView":12,
			"componentType":5126,
			"count":180,
			"max":[
				0.05709990859031677,
				0.040942613035440445,
				0.06663647294044495
			],
			"min":[
				-0.04219990596175194,
				-0.14869730174541473,
				-0.05648580193519592
			],
			"type":"VEC3"
		},
		{
			"bufferView":13,
			"componentType":5126,
			"count":180,
			"type":"VEC3"
		},
		{
			"bufferView":14,
			"componentType":5126,
			"count":180,
			"type":"VEC2"
		},
		{
			"bufferView":15,
			"componentType":5123,
			"count":348,
			"type":"SCALAR"
		},
		{
			"bufferView":16,
			"componentType":5126,
			"count":246,
			"max":[
				0.058893583714962006,
				0.09043020009994507,
				0.07462111115455627
			],
			"min":[
				-0.06950339674949646,
				-0.04903122037649155,
				-0.059610433876514435
			],
			"type":"VEC3"
		},
		{
			"bufferView":17,
			"componentType":5126,
			"count":246,
			"type":"VEC3"
		},
		{
			"bufferView":18,
			"componentType":5126,
			"count":246,
			"type":"VEC2"
		},
		{
			"bufferView":19,
			"componentType":5123,
			"count":444,
			"type":"SCALAR"
		},
		{
			"bufferView":20,
			"componentType":5126,
			"count":137,
			"max":[
				0.19361941516399384,
				0.09651269018650055,
				0.25053152441978455
			],
			"min":[
				0.053619422018527985,
				-0.007927989587187767,
				-0.08204584568738937
			],
			"type":"VEC3"
		},
		{
			"bufferView":21,
			"componentType":5126,
			"count":137,
			"type":"VEC3"
		},
		{
			"bufferView":22,
			"componentType":5126,
			"count":137,
			"type":"VEC2"
		},
		{
			"bufferView":23,
			"componentType":5123,
			"count":204,
			"type":"SCALAR"
		},
		{
			"bufferView":24,
			"componentType":5126,
			"count":137,
			"max":[
				-0.05361942946910858,
				0.09651274234056473,
				0.2505316436290741
			],
			"min":[
				-0.19361944496631622,
				-0.00792799424380064,
				-0.08204587548971176
			],
			"type":"VEC3"
		},
		{
			"bufferView":25,
			"componentType":5126,
			"count":137,
			"type":"VEC3"
		},
		{
			"bufferView":26,
			"componentType":5126,
			"count":137,
			"type":"VEC2"
		},
		{
			"bufferView":27,
			"componentType":5123,
			"count":204,
			"type":"SCALAR"
		},
		{
			"bufferView":28,
			"componentType":5126,
			"count":238,
			"max":[
				0.21025905013084412,
				-0.0008176416158676147,
				0.4474460482597351
			],
			"min":[
				-0.21025905013084412,
				-0.19346632063388824,
				-0.46405887603759766
			],
			"type":"VEC3"
		},
		{
			"bufferView":29,
			"componentType":5126,
			"count":238,
			"type":"VEC3"
		},
		{
			"bufferView":30,
			"componentType":5126,
			"count":238,
			"type":"VEC2"
		},
		{
			"bufferView":31,
			"componentType":5123,
			"count":318,
			"type":"SCALAR"
		},
		{
			"bufferView":32,
			"componentType":5126,
			"count":759,
			"max":[
				0.23338712751865387,
				0.17363318800926208,
				0.11563099175691605
			],
			"min":[
				-0.23338712751865387,
				-0.2830764353275299,
				-0.11563099175691605
			],
			"type":"VEC3"
		},
		{
			"bufferView":33,
			"componentType":5126,
			"count":759,
			"type":"VEC3"
		},
		{
			"bufferView":34,
			"componentType":5126,
			"count":759,
			"type":"VEC2"
		},
		{
			"bufferView":35,
			"componentType":5123,
			"count":1872,
			"type":"SCALAR"
		},
		{
			"bufferView":36,
			"componentType":5126,
			"count":23,
			"type":"MAT4"
		}
	],
	"bufferViews":[
		{
			"buffer":0,
			"byteLength":4032,
			"byteOffset":0,
			"target":34962
		},
		{
			"buffer":0,
			"byteLength":4032,
			"byteOffset":4032,
			"target":34962
		},
		{
			"buffer":0,
			"byteLength":2688,
			"byteOffset":8064,
			"target":34962
		},
		{
			"buffer":0,
			"byteLength":1080,
			"byteOffset":10752,
			"target":34963
		},
		{
			"buffer":0,
			"byteLength":6672,
			"byteOffset":11832,
			"target":34962
		},
		{
			"buffer":0,
			"byteLength":6672,
			"byteOffset":18504,
			"target":34962
		},
		{
			"buffer":0,
			"byteLength":4448,
			"byteOffset":25176,
			"target":34962
		},
		{
			"buffer":0,
			"byteLength":2124,
			"byteOffset":29624,
			"target":34963
		},
		{
			"buffer":0,
			"byteLength":2880,
			"byteOffset":31748,
			"target":34962
		},
		{
			"buffer":0,
			"byteLength":2880,
			"byteOffset":34628,
			"target":34962
		},
		{
			"buffer":0,
			"byteLength":1920,
			"byteOffset":37508,
			"target":34962
		},
		{
			"buffer":0,
			"byteLength":672,
			"byteOffset":39428,
			"target":34963
		},
		{
			"buffer":0,
			"byteLength":2160,
			"byteOffset":40100,
			"target":34962
		},
		{
			"buffer":0,
			"byteLength":2160,
			"byteOffset":42260,
			"target":34962
		},
		{
			"buffer":0,
			"byteLength":1440,
			"byteOffset":44420,
			"target":34962
		},
		{
			"buffer":0,
			"byteLength":696,
			"byteOffset":45860,
			"target":34963
		},
		{
			"buffer":0,
			"byteLength":2952,
			"byteOffset":46556,
			"target":34962
		},
		{
			"buffer":0,
			"byteLength":2952,
			"byteOffset":49508,
			"target":34962
		},
		{
			"buffer":0,
			"byteLength":1968,
			"byteOffset":52460,
			"target":34962
		},
		{
			"buffer":0,
			"byteLength":888,
			"byteOffset":54428,
			"target":34963
		},
		{
			"buffer":0,
			"byteLength":1644,
			"byteOffset":55316,
			"target":34962
		},
		{
			"buffer":0,
			"byteLength":1644,
			"byteOffset":56960,
			"target":34962
		},
		{
			"buffer":0,
			"byteLength":1096,
			"byteOffset":58604,
			"target":34962
		},
		{
			"buffer":0,
			"byteLength":408,
			"byteOffset":59700,
			"target":34963
		},
		{
			"buffer":0,
			"byteLength":1644,
			"byteOffset":60108,
			"target":34962
		},
		{
			"buffer":0,
			"byteLength":1644,
			"byteOffset":61752,
			"target":34962
		},
		{
			"buffer":0,
			"byteLength":1096,
			"byteOffset":63396,
			"target":34962
		},
		{
			"buffer":0,
			"byteLength":408,
			"byteOffset":64492,
			"target":34963
		},
		{
			"buffer":0,
			"byteLength":2856,
			"byteOffset":64900,
			"target":34962
		},
		{
			"buffer":0,
			"byteLength":2856,
			"byteOffset":67756,
			"target":34962
		},
		{
			"buffer":0,
			"byteLength":1904,
			"byteOffset":70612,
			"target":34962
		},
		{
			"buffer":0,
			"byteLength":636,
			"byteOffset":72516,
			"target":34963
		},
		{
			"buffer":0,
			"byteLength":9108,
			"byteOffset":73152,
			"target":34962
		},
		{
			"buffer":0,
			"byteLength":9108,
			"byteOffset":82260,
			"target":34962
		},
		{
			"buffer":0,
			"byteLength":6072,
			"byteOffset":91368,
			"target":34962
		},
		{
			"buffer":0,
			"byteLength":3744,
			"byteOffset":97440,
			"target":34963
		},
		{
			"buffer":0,
			"byteLength":1472,
			"byteOffset":101184
		}
	],
	"samplers":[
		{
			"magFilter":9728,
			"minFilter":9984
		}
	],
	"buffers":[
		{
			"byteLength":102656,
			"uri":"player.bin"
		}
	]
}
