{
	"asset":{
		"generator":"Khronos glTF Blender I/O v4.3.47",
		"version":"2.0"
	},
	"scene":0,
	"scenes":[
		{
			"name":"Scene",
			"nodes":[
				36
			]
		}
	],
	"nodes":[
		{
			"mesh":0,
			"name":"BoundingBox"
		},
		{
			"mesh":1,
			"name":"HelmetTail",
			"translation":[
				-0.0945124626159668,
				0.2861909866333008,
				-0.2340712547302246
			]
		},
		{
			"children":[
				1
			],
			"mesh":2,
			"name":"Helmet"
		},
		{
			"children":[
				2
			],
			"mesh":3,
			"name":"Head",
			"rotation":[
				0,
				-1.1920928955078125e-07,
				0,
				1
			],
			"scale":[
				1,
				1.0000001192092896,
				1
			],
			"translation":[
				4.146670562477084e-09,
				0.12678349018096924,
				5.960457087894611e-07
			]
		},
		{
			"children":[
				3
			],
			"name":"HeadBone",
			"rotation":[
				0,
				-1.4210854715202004e-14,
				0,
				1
			],
			"scale":[
				1,
				0.9999999403953552,
				1
			],
			"translation":[
				4.146897936152527e-09,
				0.06843245029449463,
				1.1920857900804549e-07
			]
		},
		{
			"children":[
				4
			],
			"name":"NeckBone",
			"translation":[
				4.146897936152527e-09,
				0.43725109100341797,
				1.1920857900804549e-07
			]
		},
		{
			"name":"HandLeft",
			"rotation":[
				9.158804203934778e-08,
				1.1382891074163126e-08,
				-0.1647966206073761,
				0.986327588558197
			],
			"scale":[
				0.9999999403953552,
				1,
				1
			],
			"translation":[
				-4.129799435759196e-08,
				0.198367178440094,
				-1.2466728094295831e-07
			]
		},
		{
			"mesh":4,
			"name":"HandLeft",
			"rotation":[
				-1.049177669187884e-07,
				-7.537389734579847e-08,
				0.9964056015014648,
				0.08471079170703888
			],
			"scale":[
				1.0000001192092896,
				1,
				1
			],
			"translation":[
				0.024143677204847336,
				0.20210674405097961,
				-1.2008838723431836e-07
			]
		},
		{
			"children":[
				6,
				7
			],
			"name":"ArmLowerLeftBone",
			"rotation":[
				1.3180623170683248e-07,
				-1.766282906601191e-07,
				-0.2797439396381378,
				0.9600746631622314
			],
			"scale":[
				1,
				0.9999999403953552,
				1
			],
			"translation":[
				-1.0951555395877222e-07,
				0.20235083997249603,
				1.1903100016752433e-07
			]
		},
		{
			"children":[
				8
			],
			"name":"ArmUpperLeftBone",
			"rotation":[
				2.0529344624264922e-07,
				-8.57153992228632e-08,
				-0.2842700779438019,
				0.9587442278862
			],
			"scale":[
				1,
				0.9999999403953552,
				1
			],
			"translation":[
				4.935145625495352e-09,
				0.24234488606452942,
				-4.124430574847793e-08
			]
		},
		{
			"children":[
				9
			],
			"name":"ShoulderLeftBone",
			"rotation":[
				3.6315441320766695e-07,
				1.314121504947252e-07,
				-0.7966711521148682,
				0.6044130325317383
			],
			"scale":[
				0.9999999403953552,
				0.9999999403953552,
				1
			],
			"translation":[
				4.146897936152527e-09,
				0.43725109100341797,
				1.1920857900804549e-07
			]
		},
		{
			"name":"HandRight",
			"rotation":[
				1.1028529200984849e-07,
				-1.2328817433626682e-07,
				0.1647966206073761,
				0.986327588558197
			],
			"scale":[
				0.9999999403953552,
				1,
				1
			],
			"translation":[
				-1.8306593574379804e-08,
				0.1983671635389328,
				-1.507630855712705e-07
			]
		},
		{
			"mesh":5,
			"name":"Blade",
			"translation":[
				0,
				0.025534851476550102,
				0
			]
		},
		{
			"children":[
				12
			],
			"mesh":6,
			"name":"Handle",
			"rotation":[
				0.7003997564315796,
				0.09715969115495682,
				-0.09715967625379562,
				0.7003999948501587
			],
			"translation":[
				0.032258663326501846,
				-0.049487605690956116,
				0.06220409274101257
			]
		},
		{
			"children":[
				13
			],
			"mesh":7,
			"name":"HandRight",
			"rotation":[
				-1.0491775270793369e-07,
				7.537386892408904e-08,
				-0.9964056015014648,
				0.08471079170703888
			],
			"scale":[
				1.0000001192092896,
				1,
				1
			],
			"translation":[
				-0.013734620064496994,
				0.20388948917388916,
				-3.8704504845554766e-07
			]
		},
		{
			"children":[
				11,
				14
			],
			"name":"ArmLowerRightBone",
			"rotation":[
				1.3180621749597776e-07,
				1.766282906601191e-07,
				0.2797439396381378,
				0.9600746631622314
			],
			"scale":[
				1,
				0.9999999403953552,
				1
			],
			"translation":[
				-3.9496057979704347e-08,
				0.20235086977481842,
				1.9434480691415956e-09
			]
		},
		{
			"children":[
				15
			],
			"name":"ArmUpperRightBone",
			"rotation":[
				2.0529344624264922e-07,
				8.57153992228632e-08,
				0.2842700779438019,
				0.9587442278862
			],
			"scale":[
				1,
				0.9999999403953552,
				1
			],
			"translation":[
				-3.4737468013190664e-08,
				0.24234500527381897,
				2.5986111040765536e-08
			]
		},
		{
			"children":[
				16
			],
			"name":"ShoulderRightBone",
			"rotation":[
				1.7321316647667118e-07,
				-2.755154469014087e-07,
				0.7966711521148682,
				0.6044130325317383
			],
			"scale":[
				0.9999999403953552,
				0.9999999403953552,
				1
			],
			"translation":[
				4.146897936152527e-09,
				0.43725109100341797,
				1.1920857900804549e-07
			]
		},
		{
			"mesh":8,
			"name":"FootLeft",
			"rotation":[
				-0.5184897780418396,
				-0.4808000326156616,
				-0.51848965883255,
				0.48079991340637207
			],
			"scale":[
				0.9999996423721313,
				0.9999996423721313,
				0.9999997615814209
			],
			"translation":[
				-0.052571073174476624,
				0.01739121600985527,
				-0.13239020109176636
			]
		},
		{
			"children":[
				18
			],
			"name":"FootLeft",
			"rotation":[
				2.687427809178189e-07,
				-1.175775654616018e-08,
				-0.7071067690849304,
				0.7071067690849304
			],
			"translation":[
				1.2482701094995718e-08,
				0.33693328499794006,
				1.6801942948063697e-08
			]
		},
		{
			"children":[
				19
			],
			"name":"LegLowerLeftBone",
			"rotation":[
				-3.8645517008717434e-08,
				-3.832838491035773e-09,
				0.08143173903226852,
				0.99667888879776
			],
			"scale":[
				0.9999999403953552,
				0.9999999403953552,
				1
			],
			"translation":[
				-3.5136508813593537e-08,
				0.2902297377586365,
				2.5322517416270784e-08
			]
		},
		{
			"children":[
				20
			],
			"name":"LegUpperLeftBone",
			"rotation":[
				-0.7064288854598999,
				-0.030963536351919174,
				-0.030963877215981483,
				0.7064281702041626
			],
			"scale":[
				1,
				1,
				1.0000001192092896
			],
			"translation":[
				1.0647234915950321e-07,
				0.13222068548202515,
				2.7056159979110816e-08
			]
		},
		{
			"children":[
				21
			],
			"name":"FemurLeftBone",
			"rotation":[
				-0.49999964237213135,
				-0.5000002384185791,
				-0.49999988079071045,
				0.5000002384185791
			],
			"scale":[
				1,
				0.9999999403953552,
				1
			],
			"translation":[
				4.146897936152527e-09,
				0,
				1.1920857900804549e-07
			]
		},
		{
			"mesh":9,
			"name":"FootRight",
			"rotation":[
				-0.5184907913208008,
				0.4807986319065094,
				0.5184906721115112,
				0.48079851269721985
			],
			"scale":[
				0.9999996423721313,
				0.9999999403953552,
				0.9999997615814209
			],
			"translation":[
				0.0525718554854393,
				0.017392780631780624,
				-0.1320510357618332
			]
		},
		{
			"children":[
				23
			],
			"name":"FootRight",
			"rotation":[
				2.2625712858825864e-07,
				1.0502283487312525e-07,
				0.7071067690849304,
				0.7071067690849304
			],
			"scale":[
				0.9999999403953552,
				0.9999999403953552,
				1
			],
			"translation":[
				-5.8523312418401474e-08,
				0.3369334936141968,
				-2.1939459315944987e-07
			]
		},
		{
			"children":[
				24
			],
			"name":"LegLowerRightBone",
			"rotation":[
				-3.880872512240785e-08,
				6.658262385883518e-09,
				-0.08141543716192245,
				0.9966802597045898
			],
			"translation":[
				-1.377693479298614e-07,
				0.2902296781539917,
				-1.0842595088433882e-07
			]
		},
		{
			"children":[
				25
			],
			"name":"LegUpperRightBone",
			"rotation":[
				-0.706429123878479,
				0.03095731884241104,
				0.030957665294408798,
				0.7064284682273865
			],
			"scale":[
				1,
				1,
				1.0000001192092896
			],
			"translation":[
				-1.0647175230360517e-07,
				0.1322205662727356,
				-9.979942205973202e-09
			]
		},
		{
			"children":[
				26
			],
			"name":"FemurRightBone",
			"rotation":[
				-0.4999997615814209,
				0.5000001192092896,
				0.4999997615814209,
				0.5000003576278687
			],
			"translation":[
				4.146897936152527e-09,
				0,
				1.1920857900804549e-07
			]
		},
		{
			"mesh":10,
			"name":"Cape",
			"rotation":[
				-0.7071068286895752,
				0,
				0,
				0.7071068286895752
			],
			"translation":[
				0,
				-0.2650202512741089,
				-0.18324899673461914
			]
		},
		{
			"children":[
				28
			],
			"mesh":11,
			"name":"Torso",
			"rotation":[
				0,
				-1.1920928955078125e-07,
				0,
				1
			],
			"translation":[
				4.146897936152527e-09,
				0.2830764055252075,
				1.1920857900804549e-07
			]
		},
		{
			"children":[
				5,
				10,
				17,
				22,
				27,
				29
			],
			"name":"TorsoBone",
			"rotation":[
				0,
				1.1920928955078125e-07,
				0,
				1
			],
			"translation":[
				0,
				-0.0020689964294433594,
				0
			]
		},
		{
			"name":"HandLeftIKController",
			"rotation":[
				-7.241339261554458e-08,
				-9.343663620597908e-10,
				0.9967423677444458,
				0.08065170794725418
			],
			"translation":[
				0.39758098125457764,
				0.021978557109832764,
				0
			]
		},
		{
			"name":"HandRightIKController",
			"rotation":[
				-1.8243503063786193e-07,
				-8.409297258538118e-09,
				-0.9967423677444458,
				0.08065170794725418
			],
			"translation":[
				-0.39758098125457764,
				0.021978557109832764,
				0
			]
		},
		{
			"name":"FootLeftIKController",
			"rotation":[
				0.4999999403953552,
				0.5000000596046448,
				0.5000001192092896,
				0.4999999403953552
			],
			"translation":[
				0.13222050666809082,
				-0.6271629333496094,
				0
			]
		},
		{
			"name":"FootRightIKController",
			"rotation":[
				-0.4999999403953552,
				-0.5000000596046448,
				0.4999999403953552,
				0.5000000596046448
			],
			"scale":[
				1,
				0.9999999403953552,
				1
			],
			"translation":[
				-0.13222050666809082,
				-0.6271629333496094,
				0
			]
		},
		{
			"children":[
				30,
				31,
				32,
				33,
				34
			],
			"name":"PlayerArmature",
			"translation":[
				0,
				-0.2830764055252075,
				0
			]
		},
		{
			"children":[
				0,
				35
			],
			"name":"Player",
			"translation":[
				1.4999970197677612,
				0.962812066078186,
				-3.0173933506011963
			]
		}
	],
	"materials":[
		{
			"alphaMode":"MASK",
			"doubleSided":true,
			"name":"Air",
			"pbrMetallicRoughness":{
				"baseColorFactor":[
					0.9999925494194031,
					1,
					0.9999993443489075,
					0
				],
				"metallicFactor":0,
				"roughnessFactor":0.5
			}
		},
		{
			"doubleSided":true,
			"name":"RedCloth",
			"pbrMetallicRoughness":{
				"baseColorFactor":[
					0.800315260887146,
					0.0026084077544510365,
					0,
					1
				],
				"metallicFactor":0,
				"roughnessFactor":0.6090909242630005
			}
		},
		{
			"doubleSided":true,
			"name":"Armor",
			"pbrMetallicRoughness":{
				"baseColorFactor":[
					0.5271116495132446,
					0.5271156430244446,
					0.5271153450012207,
					1
				],
				"metallicFactor":0.5454545021057129,
				"roughnessFactor":0.3136363625526428
			}
		},
		{
			"doubleSided":true,
			"name":"Wood",
			"pbrMetallicRoughness":{
				"baseColorFactor":[
					0.09989821910858154,
					0.01938236877322197,
					0.003346542827785015,
					1
				],
				"metallicFactor":0,
				"roughnessFactor":0.8464567065238953
			}
		}
	],
	"meshes":[
		{
			"name":"Cube.015",
			"primitives":[
				{
					"attributes":{
						"POSITION":0,
						"NORMAL":1,
						"TEXCOORD_0":2
					},
					"indices":3,
					"material":0
				}
			]
		},
		{
			"name":"Cylinder.001",
			"primitives":[
				{
					"attributes":{
						"POSITION":4,
						"NORMAL":5,
						"TEXCOORD_0":6
					},
					"indices":7,
					"material":1
				}
			]
		},
		{
			"name":"Sphere.004",
			"primitives":[
				{
					"attributes":{
						"POSITION":8,
						"NORMAL":9,
						"TEXCOORD_0":10
					},
					"indices":11,
					"material":2
				}
			]
		},
		{
			"name":"Sphere",
			"primitives":[
				{
					"attributes":{
						"POSITION":12,
						"NORMAL":13,
						"TEXCOORD_0":14
					},
					"indices":15
				}
			]
		},
		{
			"name":"Cube.011",
			"primitives":[
				{
					"attributes":{
						"POSITION":16,
						"NORMAL":17,
						"TEXCOORD_0":18
					},
					"indices":19,
					"material":2
				}
			]
		},
		{
			"name":"Cube.006",
			"primitives":[
				{
					"attributes":{
						"POSITION":20,
						"NORMAL":21,
						"TEXCOORD_0":22
					},
					"indices":23,
					"material":2
				}
			]
		},
		{
			"name":"Cube.004",
			"primitives":[
				{
					"attributes":{
						"POSITION":24,
						"NORMAL":25,
						"TEXCOORD_0":26
					},
					"indices":27,
					"material":3
				}
			]
		},
		{
			"name":"Cube.013",
			"primitives":[
				{
					"attributes":{
						"POSITION":28,
						"NORMAL":29,
						"TEXCOORD_0":30
					},
					"indices":31,
					"material":2
				}
			]
		},
		{
			"name":"Cylinder.003",
			"primitives":[
				{
					"attributes":{
						"POSITION":32,
						"NORMAL":33,
						"TEXCOORD_0":34
					},
					"indices":35,
					"material":2
				}
			]
		},
		{
			"name":"Cylinder",
			"primitives":[
				{
					"attributes":{
						"POSITION":36,
						"NORMAL":37,
						"TEXCOORD_0":38
					},
					"indices":39,
					"material":2
				}
			]
		},
		{
			"name":"Plane.001",
			"primitives":[
				{
					"attributes":{
						"POSITION":40,
						"NORMAL":41,
						"TEXCOORD_0":42
					},
					"indices":43,
					"material":1
				}
			]
		},
		{
			"name":"Cube.003",
			"primitives":[
				{
					"attributes":{
						"POSITION":44,
						"NORMAL":45,
						"TEXCOORD_0":46
					},
					"indices":47,
					"material":2
				}
			]
		}
	],
	"skins":[
		{
			"inverseBindMatrices":48,
			"joints":[
				30,
				5,
				4,
				10,
				9,
				8,
				6,
				17,
				16,
				15,
				11,
				22,
				21,
				20,
				19,
				27,
				26,
				25,
				24,
				31,
				32,
				33,
				34
			],
			"name":"PlayerArmature"
		}
	],
	"accessors":[
		{
			"bufferView":0,
			"componentType":5126,
			"count":24,
			"max":[
				0.3238343894481659,
				0.6660522818565369,
				0.2860667407512665
			],
			"min":[
				-0.3238343894481659,
				-0.962812066078186,
				-0.2860667407512665
			],
			"type":"VEC3"
		},
		{
			"bufferView":1,
			"componentType":5126,
			"count":24,
			"type":"VEC3"
		},
		{
			"bufferView":2,
			"componentType":5126,
			"count":24,
			"type":"VEC2"
		},
		{
			"bufferView":3,
			"componentType":5123,
			"count":36,
			"type":"SCALAR"
		},
		{
			"bufferView":4,
			"componentType":5126,
			"count":336,
			"max":[
				0.11403200030326843,
				9.366136509925127e-05,
				0.11420870572328568
			],
			"min":[
				-0.03441842645406723,
				-0.23520056903362274,
				-0.17281316220760345
			],
			"type":"VEC3"
		},
		{
			"bufferView":5,
			"componentType":5126,
			"count":336,
			"type":"VEC3"
		},
		{
			"bufferView":6,
			"componentType":5126,
			"count":336,
			"type":"VEC2"
		},
		{
			"bufferView":7,
			"componentType":5123,
			"count":540,
			"type":"SCALAR"
		},
		{
			"bufferView":8,
			"componentType":5126,
			"count":556,
			"max":[
				0.1518649160861969,
				0.19793801009655,
				0.1834573894739151
			],
			"min":[
				-0.1518649160861969,
				-0.08933021128177643,
				-0.18504448235034943
			],
			"type":"VEC3"
		},
		{
			"bufferView":9,
			"componentType":5126,
			"count":556,
			"type":"VEC3"
		},
		{
			"bufferView":10,
			"componentType":5126,
			"count":556,
			"type":"VEC2"
		},
		{
			"bufferView":11,
			"componentType":5123,
			"count":1062,
			"type":"SCALAR"
		},
		{
			"bufferView":12,
			"componentType":5126,
			"count":240,
			"max":[
				0.12021489441394806,
				0.15417465567588806,
				0.15417465567588806
			],
			"min":[
				-0.12021489441394806,
				-0.15417465567588806,
				-0.15417465567588806
			],
			"type":"VEC3"
		},
		{
			"bufferView":13,
			"componentType":5126,
			"count":240,
			"type":"VEC3"
		},
		{
			"bufferView":14,
			"componentType":5126,
			"count":240,
			"type":"VEC2"
		},
		{
			"bufferView":15,
			"componentType":5123,
			"count":336,
			"type":"SCALAR"
		},
		{
			"bufferView":16,
			"componentType":5126,
			"count":180,
			"max":[
				0.05709993466734886,
				0.04094262048602104,
				0.06663647294044495
			],
			"min":[
				-0.04219992458820343,
				-0.14869733154773712,
				-0.05648580193519592
			],
			"type":"VEC3"
		},
		{
			"bufferView":17,
			"componentType":5126,
			"count":180,
			"type":"VEC3"
		},
		{
			"bufferView":18,
			"componentType":5126,
			"count":180,
			"type":"VEC2"
		},
		{
			"bufferView":19,
			"componentType":5123,
			"count":348,
			"type":"SCALAR"
		},
		{
			"bufferView":20,
			"componentType":5126,
			"count":32,
			"max":[
				0.011119379661977291,
				0.478909432888031,
				0.03093130700290203
			],
			"min":[
				-0.011119065806269646,
				-0.010534805245697498,
				-0.030931496992707253
			],
			"type":"VEC3"
		},
		{
			"bufferView":21,
			"componentType":5126,
			"count":32,
			"type":"VEC3"
		},
		{
			"bufferView":22,
			"componentType":5126,
			"count":32,
			"type":"VEC2"
		},
		{
			"bufferView":23,
			"componentType":5123,
			"count":42,
			"type":"SCALAR"
		},
		{
			"bufferView":24,
			"componentType":5126,
			"count":98,
			"max":[
				0.01598397269845009,
				0.03442654386162758,
				0.07912943512201309
			],
			"min":[
				-0.01598397269845009,
				-0.15143528580665588,
				-0.07912943512201309
			],
			"type":"VEC3"
		},
		{
			"bufferView":25,
			"componentType":5126,
			"count":98,
			"type":"VEC3"
		},
		{
			"bufferView":26,
			"componentType":5126,
			"count":98,
			"type":"VEC2"
		},
		{
			"bufferView":27,
			"componentType":5123,
			"count":168,
			"type":"SCALAR"
		},
		{
			"bufferView":28,
			"componentType":5126,
			"count":246,
			"max":[
				0.07129710167646408,
				0.04094262048602104,
				0.06663647294044495
			],
			"min":[
				-0.05709993466734886,
				-0.09851881861686707,
				-0.06759507209062576
			],
			"type":"VEC3"
		},
		{
			"bufferView":29,
			"componentType":5126,
			"count":246,
			"type":"VEC3"
		},
		{
			"bufferView":30,
			"componentType":5126,
			"count":246,
			"type":"VEC2"
		},
		{
			"bufferView":31,
			"componentType":5123,
			"count":444,
			"type":"SCALAR"
		},
		{
			"bufferView":32,
			"componentType":5126,
			"count":137,
			"max":[
				0.19361944496631622,
				0.09651270508766174,
				0.2505316138267517
			],
			"min":[
				0.05361942946910858,
				-0.007927991449832916,
				-0.08204586803913116
			],
			"type":"VEC3"
		},
		{
			"bufferView":33,
			"componentType":5126,
			"count":137,
			"type":"VEC3"
		},
		{
			"bufferView":34,
			"componentType":5126,
			"count":137,
			"type":"VEC2"
		},
		{
			"bufferView":35,
			"componentType":5123,
			"count":204,
			"type":"SCALAR"
		},
		{
			"bufferView":36,
			"componentType":5126,
			"count":137,
			"max":[
				-0.05361942946910858,
				0.09651270508766174,
				0.2505316138267517
			],
			"min":[
				-0.19361944496631622,
				-0.007927991449832916,
				-0.08204586803913116
			],
			"type":"VEC3"
		},
		{
			"bufferView":37,
			"componentType":5126,
			"count":137,
			"type":"VEC3"
		},
		{
			"bufferView":38,
			"componentType":5126,
			"count":137,
			"type":"VEC2"
		},
		{
			"bufferView":39,
			"componentType":5123,
			"count":204,
			"type":"SCALAR"
		},
		{
			"bufferView":40,
			"componentType":5126,
			"count":238,
			"max":[
				0.21025905013084412,
				-0.0008176416158676147,
				0.4474460482597351
			],
			"min":[
				-0.21025905013084412,
				-0.19346632063388824,
				-0.46405887603759766
			],
			"type":"VEC3"
		},
		{
			"bufferView":41,
			"componentType":5126,
			"count":238,
			"type":"VEC3"
		},
		{
			"bufferView":42,
			"componentType":5126,
			"count":238,
			"type":"VEC2"
		},
		{
			"bufferView":43,
			"componentType":5123,
			"count":318,
			"type":"SCALAR"
		},
		{
			"bufferView":44,
			"componentType":5126,
			"count":759,
			"max":[
				0.23338712751865387,
				0.17363318800926208,
				0.11563099175691605
			],
			"min":[
				-0.23338712751865387,
				-0.2830764353275299,
				-0.11563099175691605
			],
			"type":"VEC3"
		},
		{
			"bufferView":45,
			"componentType":5126,
			"count":759,
			"type":"VEC3"
		},
		{
			"bufferView":46,
			"componentType":5126,
			"count":759,
			"type":"VEC2"
		},
		{
			"bufferView":47,
			"componentType":5123,
			"count":1872,
			"type":"SCALAR"
		},
		{
			"bufferView":48,
			"componentType":5126,
			"count":23,
			"type":"MAT4"
		}
	],
	"bufferViews":[
		{
			"buffer":0,
			"byteLength":288,
			"byteOffset":0,
			"target":34962
		},
		{
			"buffer":0,
			"byteLength":288,
			"byteOffset":288,
			"target":34962
		},
		{
			"buffer":0,
			"byteLength":192,
			"byteOffset":576,
			"target":34962
		},
		{
			"buffer":0,
			"byteLength":72,
			"byteOffset":768,
			"target":34963
		},
		{
			"buffer":0,
			"byteLength":4032,
			"byteOffset":840,
			"target":34962
		},
		{
			"buffer":0,
			"byteLength":4032,
			"byteOffset":4872,
			"target":34962
		},
		{
			"buffer":0,
			"byteLength":2688,
			"byteOffset":8904,
			"target":34962
		},
		{
			"buffer":0,
			"byteLength":1080,
			"byteOffset":11592,
			"target":34963
		},
		{
			"buffer":0,
			"byteLength":6672,
			"byteOffset":12672,
			"target":34962
		},
		{
			"buffer":0,
			"byteLength":6672,
			"byteOffset":19344,
			"target":34962
		},
		{
			"buffer":0,
			"byteLength":4448,
			"byteOffset":26016,
			"target":34962
		},
		{
			"buffer":0,
			"byteLength":2124,
			"byteOffset":30464,
			"target":34963
		},
		{
			"buffer":0,
			"byteLength":2880,
			"byteOffset":32588,
			"target":34962
		},
		{
			"buffer":0,
			"byteLength":2880,
			"byteOffset":35468,
			"target":34962
		},
		{
			"buffer":0,
			"byteLength":1920,
			"byteOffset":38348,
			"target":34962
		},
		{
			"buffer":0,
			"byteLength":672,
			"byteOffset":40268,
			"target":34963
		},
		{
			"buffer":0,
			"byteLength":2160,
			"byteOffset":40940,
			"target":34962
		},
		{
			"buffer":0,
			"byteLength":2160,
			"byteOffset":43100,
			"target":34962
		},
		{
			"buffer":0,
			"byteLength":1440,
			"byteOffset":45260,
			"target":34962
		},
		{
			"buffer":0,
			"byteLength":696,
			"byteOffset":46700,
			"target":34963
		},
		{
			"buffer":0,
			"byteLength":384,
			"byteOffset":47396,
			"target":34962
		},
		{
			"buffer":0,
			"byteLength":384,
			"byteOffset":47780,
			"target":34962
		},
		{
			"buffer":0,
			"byteLength":256,
			"byteOffset":48164,
			"target":34962
		},
		{
			"buffer":0,
			"byteLength":84,
			"byteOffset":48420,
			"target":34963
		},
		{
			"buffer":0,
			"byteLength":1176,
			"byteOffset":48504,
			"target":34962
		},
		{
			"buffer":0,
			"byteLength":1176,
			"byteOffset":49680,
			"target":34962
		},
		{
			"buffer":0,
			"byteLength":784,
			"byteOffset":50856,
			"target":34962
		},
		{
			"buffer":0,
			"byteLength":336,
			"byteOffset":51640,
			"target":34963
		},
		{
			"buffer":0,
			"byteLength":2952,
			"byteOffset":51976,
			"target":34962
		},
		{
			"buffer":0,
			"byteLength":2952,
			"byteOffset":54928,
			"target":34962
		},
		{
			"buffer":0,
			"byteLength":1968,
			"byteOffset":57880,
			"target":34962
		},
		{
			"buffer":0,
			"byteLength":888,
			"byteOffset":59848,
			"target":34963
		},
		{
			"buffer":0,
			"byteLength":1644,
			"byteOffset":60736,
			"target":34962
		},
		{
			"buffer":0,
			"byteLength":1644,
			"byteOffset":62380,
			"target":34962
		},
		{
			"buffer":0,
			"byteLength":1096,
			"byteOffset":64024,
			"target":34962
		},
		{
			"buffer":0,
			"byteLength":408,
			"byteOffset":65120,
			"target":34963
		},
		{
			"buffer":0,
			"byteLength":1644,
			"byteOffset":65528,
			"target":34962
		},
		{
			"buffer":0,
			"byteLength":1644,
			"byteOffset":67172,
			"target":34962
		},
		{
			"buffer":0,
			"byteLength":1096,
			"byteOffset":68816,
			"target":34962
		},
		{
			"buffer":0,
			"byteLength":408,
			"byteOffset":69912,
			"target":34963
		},
		{
			"buffer":0,
			"byteLength":2856,
			"byteOffset":70320,
			"target":34962
		},
		{
			"buffer":0,
			"byteLength":2856,
			"byteOffset":73176,
			"target":34962
		},
		{
			"buffer":0,
			"byteLength":1904,
			"byteOffset":76032,
			"target":34962
		},
		{
			"buffer":0,
			"byteLength":636,
			"byteOffset":77936,
			"target":34963
		},
		{
			"buffer":0,
			"byteLength":9108,
			"byteOffset":78572,
			"target":34962
		},
		{
			"buffer":0,
			"byteLength":9108,
			"byteOffset":87680,
			"target":34962
		},
		{
			"buffer":0,
			"byteLength":6072,
			"byteOffset":96788,
			"target":34962
		},
		{
			"buffer":0,
			"byteLength":3744,
			"byteOffset":102860,
			"target":34963
		},
		{
			"buffer":0,
			"byteLength":1472,
			"byteOffset":106604
		}
	],
	"buffers":[
		{
			"byteLength":108076,
			"uri":"Player.bin"
		}
	]
}
