{
	"asset":{
		"generator":"Khronos glTF Blender I/O v4.3.47",
		"version":"2.0"
	},
	"scene":0,
	"scenes":[
		{
			"name":"Scene",
			"nodes":[
				34
			]
		}
	],
	"nodes":[
		{
			"mesh":0,
			"name":"BoundingBox.001"
		},
		{
			"mesh":1,
			"name":"HelmetTail",
			"translation":[
				-0.0945124626159668,
				0.2861909866333008,
				-0.2340712547302246
			]
		},
		{
			"children":[
				1
			],
			"mesh":2,
			"name":"Helmet"
		},
		{
			"children":[
				2
			],
			"mesh":3,
			"name":"Head",
			"rotation":[
				0,
				-1.1920930376163597e-07,
				0,
				1
			],
			"scale":[
				1,
				1.0000001192092896,
				1
			],
			"translation":[
				4.146613719058223e-09,
				0.12678349018096924,
				8.344642878910236e-07
			]
		},
		{
			"children":[
				3
			],
			"name":"HeadBone",
			"rotation":[
				0,
				-1.4210854715202004e-14,
				0,
				1
			],
			"scale":[
				1,
				0.9999999403953552,
				1
			],
			"translation":[
				4.146897936152527e-09,
				0.06843245029449463,
				1.1920857900804549e-07
			]
		},
		{
			"children":[
				4
			],
			"name":"NeckBone",
			"translation":[
				4.146897936152527e-09,
				0.43725109100341797,
				1.1920857900804549e-07
			]
		},
		{
			"name":"HandLeft",
			"rotation":[
				9.15880562502025e-08,
				1.1382891962341546e-08,
				-0.1647966206073761,
				0.986327588558197
			],
			"scale":[
				0.9999999403953552,
				1,
				1
			],
			"translation":[
				-4.129810804442968e-08,
				0.198367178440094,
				-1.2466738041894132e-07
			]
		},
		{
			"mesh":4,
			"name":"HandLeft",
			"rotation":[
				-1.0491778112964312e-07,
				-7.537386892408904e-08,
				0.9964056015014648,
				0.08471079170703888
			],
			"scale":[
				1.0000005960464478,
				1.000000238418579,
				1
			],
			"translation":[
				0.024143557995557785,
				0.202106773853302,
				1.1833005686412434e-07
			]
		},
		{
			"children":[
				6,
				7
			],
			"name":"ArmLowerLeftBone",
			"rotation":[
				1.3180627433939662e-07,
				-1.766282906601191e-07,
				-0.2797439396381378,
				0.9600746631622314
			],
			"scale":[
				1,
				0.9999999403953552,
				1
			],
			"translation":[
				-1.0951555395877222e-07,
				0.20235083997249603,
				1.1903077279384888e-07
			]
		},
		{
			"children":[
				8
			],
			"name":"ArmUpperLeftBone",
			"rotation":[
				2.0529344624264922e-07,
				-8.571537790658112e-08,
				-0.2842700779438019,
				0.9587442278862
			],
			"scale":[
				1,
				0.9999999403953552,
				1
			],
			"translation":[
				4.935145625495352e-09,
				0.24234488606452942,
				-4.124439101360622e-08
			]
		},
		{
			"children":[
				9
			],
			"name":"ShoulderLeftBone",
			"rotation":[
				3.6315441320766695e-07,
				1.3141216470557993e-07,
				-0.7966711521148682,
				0.6044130325317383
			],
			"scale":[
				0.9999999403953552,
				0.9999999403953552,
				1
			],
			"translation":[
				4.146897936152527e-09,
				0.43725109100341797,
				1.1920857900804549e-07
			]
		},
		{
			"name":"HandRight",
			"rotation":[
				1.1028529911527585e-07,
				-1.2328817433626682e-07,
				0.1647966206073761,
				0.986327588558197
			],
			"scale":[
				0.9999999403953552,
				1,
				1
			],
			"translation":[
				-1.8306707261217525e-08,
				0.1983671635389328,
				-1.5076304293870635e-07
			]
		},
		{
			"mesh":5,
			"name":"HandRight",
			"rotation":[
				-1.0491777402421576e-07,
				7.537386892408904e-08,
				-0.9964056015014648,
				0.08471079170703888
			],
			"scale":[
				1.0000005960464478,
				1.000000238418579,
				1
			],
			"translation":[
				-0.034314218908548355,
				0.2505730390548706,
				-0.007984789088368416
			]
		},
		{
			"children":[
				11,
				12
			],
			"name":"ArmLowerRightBone",
			"rotation":[
				1.318062601285419e-07,
				1.766283048709738e-07,
				0.2797439396381378,
				0.9600746631622314
			],
			"scale":[
				1,
				0.9999999403953552,
				1
			],
			"translation":[
				-3.949639904021751e-08,
				0.20235086977481842,
				1.943391225722735e-09
			]
		},
		{
			"children":[
				13
			],
			"name":"ArmUpperRightBone",
			"rotation":[
				2.0529347466435865e-07,
				8.571538501200848e-08,
				0.2842700779438019,
				0.9587442278862
			],
			"scale":[
				1,
				0.9999999403953552,
				1
			],
			"translation":[
				-3.473769538686611e-08,
				0.24234500527381897,
				2.5986054197346675e-08
			]
		},
		{
			"children":[
				14
			],
			"name":"ShoulderRightBone",
			"rotation":[
				1.7321322332009004e-07,
				-2.7551547532311815e-07,
				0.7966711521148682,
				0.6044130325317383
			],
			"scale":[
				0.9999999403953552,
				0.9999999403953552,
				1
			],
			"translation":[
				4.146897936152527e-09,
				0.43725109100341797,
				1.1920857900804549e-07
			]
		},
		{
			"mesh":6,
			"name":"FootLeft",
			"rotation":[
				-0.5184897780418396,
				-0.4808000326156616,
				-0.51848965883255,
				0.48079994320869446
			],
			"scale":[
				0.9999997615814209,
				0.9999998211860657,
				1
			],
			"translation":[
				-0.05257103964686394,
				0.017391454428434372,
				-0.13239020109176636
			]
		},
		{
			"children":[
				16
			],
			"name":"FootLeft",
			"rotation":[
				2.687427809178189e-07,
				-1.175775654616018e-08,
				-0.7071067690849304,
				0.7071067690849304
			],
			"translation":[
				1.2482701094995718e-08,
				0.33693328499794006,
				1.6801942948063697e-08
			]
		},
		{
			"children":[
				17
			],
			"name":"LegLowerLeftBone",
			"rotation":[
				-3.8645517008717434e-08,
				-3.832838491035773e-09,
				0.08143173903226852,
				0.99667888879776
			],
			"scale":[
				0.9999999403953552,
				0.9999999403953552,
				1
			],
			"translation":[
				-3.5136508813593537e-08,
				0.2902297377586365,
				2.5322517416270784e-08
			]
		},
		{
			"children":[
				18
			],
			"name":"LegUpperLeftBone",
			"rotation":[
				-0.7064288854598999,
				-0.030963536351919174,
				-0.030963877215981483,
				0.7064281702041626
			],
			"scale":[
				1,
				1,
				1.0000001192092896
			],
			"translation":[
				1.0647234915950321e-07,
				0.13222068548202515,
				2.7056159979110816e-08
			]
		},
		{
			"children":[
				19
			],
			"name":"FemurLeftBone",
			"rotation":[
				-0.49999964237213135,
				-0.5000002384185791,
				-0.49999988079071045,
				0.5000002384185791
			],
			"scale":[
				1,
				0.9999999403953552,
				1
			],
			"translation":[
				4.146897936152527e-09,
				0,
				1.1920857900804549e-07
			]
		},
		{
			"mesh":7,
			"name":"FootRight",
			"rotation":[
				-0.5184907913208008,
				0.480798602104187,
				0.5184906721115112,
				0.48079854249954224
			],
			"scale":[
				0.9999996423721313,
				0.9999995231628418,
				0.9999995827674866
			],
			"translation":[
				0.05257183313369751,
				0.017392778769135475,
				-0.1320510357618332
			]
		},
		{
			"children":[
				21
			],
			"name":"FootRight",
			"rotation":[
				2.2101797014784097e-07,
				9.978369774898965e-08,
				0.7071067690849304,
				0.7071067690849304
			],
			"scale":[
				0.9999999403953552,
				0.9999999403953552,
				1
			],
			"translation":[
				-3.8343728192558046e-08,
				0.3369334936141968,
				-2.939590331152431e-07
			]
		},
		{
			"children":[
				22
			],
			"name":"LegLowerRightBone",
			"rotation":[
				-3.759416600246368e-08,
				6.559043530529607e-09,
				-0.08141543716192245,
				0.9966802597045898
			],
			"translation":[
				-1.1729883908628835e-07,
				0.2902296781539917,
				-6.41759427821853e-08
			]
		},
		{
			"children":[
				23
			],
			"name":"LegUpperRightBone",
			"rotation":[
				-0.706429123878479,
				0.03095732443034649,
				0.03095765970647335,
				0.7064284682273865
			],
			"scale":[
				1,
				1,
				1.0000001192092896
			],
			"translation":[
				-1.0647175230360517e-07,
				0.1322205662727356,
				-9.979942205973202e-09
			]
		},
		{
			"children":[
				24
			],
			"name":"FemurRightBone",
			"rotation":[
				-0.4999997615814209,
				0.5000001192092896,
				0.4999997615814209,
				0.5000003576278687
			],
			"translation":[
				4.146897936152527e-09,
				0,
				1.1920857900804549e-07
			]
		},
		{
			"mesh":8,
			"name":"Cape",
			"rotation":[
				-0.7071068286895752,
				0,
				0,
				0.7071068286895752
			],
			"translation":[
				0,
				-0.2650202512741089,
				-0.18324899673461914
			]
		},
		{
			"children":[
				26
			],
			"mesh":9,
			"name":"Torso",
			"rotation":[
				0,
				-1.1920928955078125e-07,
				0,
				1
			],
			"translation":[
				4.146897936152527e-09,
				0.2830764055252075,
				1.1920857900804549e-07
			]
		},
		{
			"children":[
				5,
				10,
				15,
				20,
				25,
				27
			],
			"name":"TorsoBone",
			"rotation":[
				0,
				1.1920928955078125e-07,
				0,
				1
			],
			"translation":[
				0,
				-0.0020689964294433594,
				0
			]
		},
		{
			"name":"HandLeftIKController",
			"rotation":[
				-7.241339261554458e-08,
				-9.343663620597908e-10,
				0.9967423677444458,
				0.08065170794725418
			],
			"translation":[
				0.39758098125457764,
				0.021978557109832764,
				0
			]
		},
		{
			"name":"HandRightIKController",
			"rotation":[
				-1.8243503063786193e-07,
				-8.409297258538118e-09,
				-0.9967423677444458,
				0.08065170794725418
			],
			"translation":[
				-0.39758098125457764,
				0.021978557109832764,
				0
			]
		},
		{
			"name":"FootLeftIKController",
			"rotation":[
				0.4999999403953552,
				0.5000000596046448,
				0.5000001192092896,
				0.4999999403953552
			],
			"translation":[
				0.13222050666809082,
				-0.6271629333496094,
				0
			]
		},
		{
			"name":"FootRightIKController",
			"rotation":[
				-0.4999999403953552,
				-0.5000000596046448,
				0.4999999403953552,
				0.5000000596046448
			],
			"scale":[
				1,
				0.9999999403953552,
				1
			],
			"translation":[
				-0.13222050666809082,
				-0.6271629333496094,
				0
			]
		},
		{
			"children":[
				28,
				29,
				30,
				31,
				32
			],
			"name":"PlayerArmature",
			"translation":[
				0,
				-0.2830764055252075,
				0
			]
		},
		{
			"children":[
				0,
				33
			],
			"name":"Player",
			"translation":[
				1.4999970197677612,
				0.962812066078186,
				-3.0173933506011963
			]
		}
	],
	"materials":[
		{
			"alphaMode":"MASK",
			"doubleSided":true,
			"name":"Air",
			"pbrMetallicRoughness":{
				"baseColorFactor":[
					0.9999925494194031,
					1,
					0.9999993443489075,
					0
				],
				"metallicFactor":0,
				"roughnessFactor":0.5
			}
		},
		{
			"doubleSided":true,
			"name":"MainMaterial",
			"pbrMetallicRoughness":{
				"baseColorTexture":{
					"index":0
				},
				"metallicFactor":0,
				"roughnessFactor":0.699999988079071
			}
		}
	],
	"meshes":[
		{
			"name":"Cube.015",
			"primitives":[
				{
					"attributes":{
						"POSITION":0,
						"NORMAL":1,
						"TEXCOORD_0":2
					},
					"indices":3,
					"material":0
				}
			]
		},
		{
			"name":"Cylinder.001",
			"primitives":[
				{
					"attributes":{
						"POSITION":4,
						"NORMAL":5,
						"TEXCOORD_0":6
					},
					"indices":7,
					"material":1
				}
			]
		},
		{
			"name":"Sphere.004",
			"primitives":[
				{
					"attributes":{
						"POSITION":8,
						"NORMAL":9,
						"TEXCOORD_0":10
					},
					"indices":11,
					"material":1
				}
			]
		},
		{
			"name":"Sphere",
			"primitives":[
				{
					"attributes":{
						"POSITION":12,
						"NORMAL":13,
						"TEXCOORD_0":14
					},
					"indices":15,
					"material":1
				}
			]
		},
		{
			"name":"Cube.011",
			"primitives":[
				{
					"attributes":{
						"POSITION":16,
						"NORMAL":17,
						"TEXCOORD_0":18
					},
					"indices":19,
					"material":1
				}
			]
		},
		{
			"name":"Cube.013",
			"primitives":[
				{
					"attributes":{
						"POSITION":20,
						"NORMAL":21,
						"TEXCOORD_0":22
					},
					"indices":23,
					"material":1
				}
			]
		},
		{
			"name":"Cylinder.003",
			"primitives":[
				{
					"attributes":{
						"POSITION":24,
						"NORMAL":25,
						"TEXCOORD_0":26
					},
					"indices":27,
					"material":1
				}
			]
		},
		{
			"name":"Cylinder",
			"primitives":[
				{
					"attributes":{
						"POSITION":28,
						"NORMAL":29,
						"TEXCOORD_0":30
					},
					"indices":31,
					"material":1
				}
			]
		},
		{
			"name":"Plane.001",
			"primitives":[
				{
					"attributes":{
						"POSITION":32,
						"NORMAL":33,
						"TEXCOORD_0":34
					},
					"indices":35,
					"material":1
				}
			]
		},
		{
			"name":"Cube.003",
			"primitives":[
				{
					"attributes":{
						"POSITION":36,
						"NORMAL":37,
						"TEXCOORD_0":38
					},
					"indices":39,
					"material":1
				}
			]
		}
	],
	"textures":[
		{
			"sampler":0,
			"source":0
		}
	],
	"images":[
		{
			"mimeType":"image/png",
			"name":"main-texture",
			"uri":"../../../textures/main-texture.png"
		}
	],
	"skins":[
		{
			"inverseBindMatrices":40,
			"joints":[
				28,
				5,
				4,
				10,
				9,
				8,
				6,
				15,
				14,
				13,
				11,
				20,
				19,
				18,
				17,
				25,
				24,
				23,
				22,
				29,
				30,
				31,
				32
			],
			"name":"PlayerArmature"
		}
	],
	"accessors":[
		{
			"bufferView":0,
			"componentType":5126,
			"count":24,
			"max":[
				0.3238343894481659,
				0.6660522818565369,
				0.2860667407512665
			],
			"min":[
				-0.3238343894481659,
				-0.962812066078186,
				-0.2860667407512665
			],
			"type":"VEC3"
		},
		{
			"bufferView":1,
			"componentType":5126,
			"count":24,
			"type":"VEC3"
		},
		{
			"bufferView":2,
			"componentType":5126,
			"count":24,
			"type":"VEC2"
		},
		{
			"bufferView":3,
			"componentType":5123,
			"count":36,
			"type":"SCALAR"
		},
		{
			"bufferView":4,
			"componentType":5126,
			"count":336,
			"max":[
				0.11403200030326843,
				9.366136509925127e-05,
				0.11420870572328568
			],
			"min":[
				-0.03441842645406723,
				-0.23520056903362274,
				-0.17281316220760345
			],
			"type":"VEC3"
		},
		{
			"bufferView":5,
			"componentType":5126,
			"count":336,
			"type":"VEC3"
		},
		{
			"bufferView":6,
			"componentType":5126,
			"count":336,
			"type":"VEC2"
		},
		{
			"bufferView":7,
			"componentType":5123,
			"count":540,
			"type":"SCALAR"
		},
		{
			"bufferView":8,
			"componentType":5126,
			"count":556,
			"max":[
				0.1518649160861969,
				0.19793801009655,
				0.1834573894739151
			],
			"min":[
				-0.1518649160861969,
				-0.08933021128177643,
				-0.18504448235034943
			],
			"type":"VEC3"
		},
		{
			"bufferView":9,
			"componentType":5126,
			"count":556,
			"type":"VEC3"
		},
		{
			"bufferView":10,
			"componentType":5126,
			"count":556,
			"type":"VEC2"
		},
		{
			"bufferView":11,
			"componentType":5123,
			"count":1062,
			"type":"SCALAR"
		},
		{
			"bufferView":12,
			"componentType":5126,
			"count":240,
			"max":[
				0.12021489441394806,
				0.15417465567588806,
				0.15417465567588806
			],
			"min":[
				-0.12021489441394806,
				-0.15417465567588806,
				-0.15417465567588806
			],
			"type":"VEC3"
		},
		{
			"bufferView":13,
			"componentType":5126,
			"count":240,
			"type":"VEC3"
		},
		{
			"bufferView":14,
			"componentType":5126,
			"count":240,
			"type":"VEC2"
		},
		{
			"bufferView":15,
			"componentType":5123,
			"count":336,
			"type":"SCALAR"
		},
		{
			"bufferView":16,
			"componentType":5126,
			"count":180,
			"max":[
				0.05709990859031677,
				0.040942613035440445,
				0.06663647294044495
			],
			"min":[
				-0.04219990596175194,
				-0.14869730174541473,
				-0.05648580193519592
			],
			"type":"VEC3"
		},
		{
			"bufferView":17,
			"componentType":5126,
			"count":180,
			"type":"VEC3"
		},
		{
			"bufferView":18,
			"componentType":5126,
			"count":180,
			"type":"VEC2"
		},
		{
			"bufferView":19,
			"componentType":5123,
			"count":348,
			"type":"SCALAR"
		},
		{
			"bufferView":20,
			"componentType":5126,
			"count":246,
			"max":[
				0.058893583714962006,
				0.09043020009994507,
				0.07462111115455627
			],
			"min":[
				-0.06950339674949646,
				-0.04903122037649155,
				-0.059610433876514435
			],
			"type":"VEC3"
		},
		{
			"bufferView":21,
			"componentType":5126,
			"count":246,
			"type":"VEC3"
		},
		{
			"bufferView":22,
			"componentType":5126,
			"count":246,
			"type":"VEC2"
		},
		{
			"bufferView":23,
			"componentType":5123,
			"count":444,
			"type":"SCALAR"
		},
		{
			"bufferView":24,
			"componentType":5126,
			"count":137,
			"max":[
				0.19361941516399384,
				0.09651269018650055,
				0.25053152441978455
			],
			"min":[
				0.053619422018527985,
				-0.007927989587187767,
				-0.08204584568738937
			],
			"type":"VEC3"
		},
		{
			"bufferView":25,
			"componentType":5126,
			"count":137,
			"type":"VEC3"
		},
		{
			"bufferView":26,
			"componentType":5126,
			"count":137,
			"type":"VEC2"
		},
		{
			"bufferView":27,
			"componentType":5123,
			"count":204,
			"type":"SCALAR"
		},
		{
			"bufferView":28,
			"componentType":5126,
			"count":137,
			"max":[
				-0.05361942946910858,
				0.09651274234056473,
				0.2505316436290741
			],
			"min":[
				-0.19361944496631622,
				-0.00792799424380064,
				-0.08204587548971176
			],
			"type":"VEC3"
		},
		{
			"bufferView":29,
			"componentType":5126,
			"count":137,
			"type":"VEC3"
		},
		{
			"bufferView":30,
			"componentType":5126,
			"count":137,
			"type":"VEC2"
		},
		{
			"bufferView":31,
			"componentType":5123,
			"count":204,
			"type":"SCALAR"
		},
		{
			"bufferView":32,
			"componentType":5126,
			"count":238,
			"max":[
				0.21025905013084412,
				-0.0008176416158676147,
				0.4474460482597351
			],
			"min":[
				-0.21025905013084412,
				-0.19346632063388824,
				-0.46405887603759766
			],
			"type":"VEC3"
		},
		{
			"bufferView":33,
			"componentType":5126,
			"count":238,
			"type":"VEC3"
		},
		{
			"bufferView":34,
			"componentType":5126,
			"count":238,
			"type":"VEC2"
		},
		{
			"bufferView":35,
			"componentType":5123,
			"count":318,
			"type":"SCALAR"
		},
		{
			"bufferView":36,
			"componentType":5126,
			"count":759,
			"max":[
				0.23338712751865387,
				0.17363318800926208,
				0.11563099175691605
			],
			"min":[
				-0.23338712751865387,
				-0.2830764353275299,
				-0.11563099175691605
			],
			"type":"VEC3"
		},
		{
			"bufferView":37,
			"componentType":5126,
			"count":759,
			"type":"VEC3"
		},
		{
			"bufferView":38,
			"componentType":5126,
			"count":759,
			"type":"VEC2"
		},
		{
			"bufferView":39,
			"componentType":5123,
			"count":1872,
			"type":"SCALAR"
		},
		{
			"bufferView":40,
			"componentType":5126,
			"count":23,
			"type":"MAT4"
		}
	],
	"bufferViews":[
		{
			"buffer":0,
			"byteLength":288,
			"byteOffset":0,
			"target":34962
		},
		{
			"buffer":0,
			"byteLength":288,
			"byteOffset":288,
			"target":34962
		},
		{
			"buffer":0,
			"byteLength":192,
			"byteOffset":576,
			"target":34962
		},
		{
			"buffer":0,
			"byteLength":72,
			"byteOffset":768,
			"target":34963
		},
		{
			"buffer":0,
			"byteLength":4032,
			"byteOffset":840,
			"target":34962
		},
		{
			"buffer":0,
			"byteLength":4032,
			"byteOffset":4872,
			"target":34962
		},
		{
			"buffer":0,
			"byteLength":2688,
			"byteOffset":8904,
			"target":34962
		},
		{
			"buffer":0,
			"byteLength":1080,
			"byteOffset":11592,
			"target":34963
		},
		{
			"buffer":0,
			"byteLength":6672,
			"byteOffset":12672,
			"target":34962
		},
		{
			"buffer":0,
			"byteLength":6672,
			"byteOffset":19344,
			"target":34962
		},
		{
			"buffer":0,
			"byteLength":4448,
			"byteOffset":26016,
			"target":34962
		},
		{
			"buffer":0,
			"byteLength":2124,
			"byteOffset":30464,
			"target":34963
		},
		{
			"buffer":0,
			"byteLength":2880,
			"byteOffset":32588,
			"target":34962
		},
		{
			"buffer":0,
			"byteLength":2880,
			"byteOffset":35468,
			"target":34962
		},
		{
			"buffer":0,
			"byteLength":1920,
			"byteOffset":38348,
			"target":34962
		},
		{
			"buffer":0,
			"byteLength":672,
			"byteOffset":40268,
			"target":34963
		},
		{
			"buffer":0,
			"byteLength":2160,
			"byteOffset":40940,
			"target":34962
		},
		{
			"buffer":0,
			"byteLength":2160,
			"byteOffset":43100,
			"target":34962
		},
		{
			"buffer":0,
			"byteLength":1440,
			"byteOffset":45260,
			"target":34962
		},
		{
			"buffer":0,
			"byteLength":696,
			"byteOffset":46700,
			"target":34963
		},
		{
			"buffer":0,
			"byteLength":2952,
			"byteOffset":47396,
			"target":34962
		},
		{
			"buffer":0,
			"byteLength":2952,
			"byteOffset":50348,
			"target":34962
		},
		{
			"buffer":0,
			"byteLength":1968,
			"byteOffset":53300,
			"target":34962
		},
		{
			"buffer":0,
			"byteLength":888,
			"byteOffset":55268,
			"target":34963
		},
		{
			"buffer":0,
			"byteLength":1644,
			"byteOffset":56156,
			"target":34962
		},
		{
			"buffer":0,
			"byteLength":1644,
			"byteOffset":57800,
			"target":34962
		},
		{
			"buffer":0,
			"byteLength":1096,
			"byteOffset":59444,
			"target":34962
		},
		{
			"buffer":0,
			"byteLength":408,
			"byteOffset":60540,
			"target":34963
		},
		{
			"buffer":0,
			"byteLength":1644,
			"byteOffset":60948,
			"target":34962
		},
		{
			"buffer":0,
			"byteLength":1644,
			"byteOffset":62592,
			"target":34962
		},
		{
			"buffer":0,
			"byteLength":1096,
			"byteOffset":64236,
			"target":34962
		},
		{
			"buffer":0,
			"byteLength":408,
			"byteOffset":65332,
			"target":34963
		},
		{
			"buffer":0,
			"byteLength":2856,
			"byteOffset":65740,
			"target":34962
		},
		{
			"buffer":0,
			"byteLength":2856,
			"byteOffset":68596,
			"target":34962
		},
		{
			"buffer":0,
			"byteLength":1904,
			"byteOffset":71452,
			"target":34962
		},
		{
			"buffer":0,
			"byteLength":636,
			"byteOffset":73356,
			"target":34963
		},
		{
			"buffer":0,
			"byteLength":9108,
			"byteOffset":73992,
			"target":34962
		},
		{
			"buffer":0,
			"byteLength":9108,
			"byteOffset":83100,
			"target":34962
		},
		{
			"buffer":0,
			"byteLength":6072,
			"byteOffset":92208,
			"target":34962
		},
		{
			"buffer":0,
			"byteLength":3744,
			"byteOffset":98280,
			"target":34963
		},
		{
			"buffer":0,
			"byteLength":1472,
			"byteOffset":102024
		}
	],
	"samplers":[
		{
			"magFilter":9728,
			"minFilter":9984
		}
	],
	"buffers":[
		{
			"byteLength":103496,
			"uri":"player.bin"
		}
	]
}
