{
	"asset":{
		"generator":"Khronos glTF Blender I/O v4.3.47",
		"version":"2.0"
	},
	"scene":0,
	"scenes":[
		{
			"name":"Scene",
			"nodes":[
				11
			]
		}
	],
	"nodes":[
		{
			"mesh":0,
			"name":"Cape",
			"rotation":[
				-0.7071068286895752,
				0,
				0,
				0.7071068286895752
			],
			"scale":[
				0.18479397892951965,
				1,
				0.4931700825691223
			],
			"translation":[
				0,
				-0.2650202512741089,
				-0.18324899673461914
			]
		},
		{
			"mesh":1,
			"name":"FootLeft",
			"translation":[
				0.007022976875305176,
				-0.962812066078186,
				0.01739335060119629
			]
		},
		{
			"mesh":2,
			"name":"FootRight",
			"translation":[
				0.007022976875305176,
				-0.962812066078186,
				0.01739335060119629
			]
		},
		{
			"mesh":3,
			"name":"HandLeft",
			"rotation":[
				0.9895430207252502,
				0,
				0.1442379355430603,
				0
			],
			"scale":[
				-1,
				-1,
				-1
			],
			"translation":[
				0.3372732400894165,
				-0.2688594460487366,
				0
			]
		},
		{
			"mesh":4,
			"name":"Blade",
			"translation":[
				0,
				0.02553512528538704,
				0
			]
		},
		{
			"children":[
				4
			],
			"mesh":5,
			"name":"Handle",
			"rotation":[
				0.707089900970459,
				-0.004880542401224375,
				0.0048805419355630875,
				0.7070899605751038
			],
			"translation":[
				0.013159751892089844,
				-0.04948747158050537,
				0.06882429122924805
			]
		},
		{
			"children":[
				5
			],
			"mesh":6,
			"name":"HandRight",
			"rotation":[
				0,
				0.1442379355430603,
				0,
				0.9895430207252502
			],
			"translation":[
				-0.3849756717681885,
				-0.2688594460487366,
				0
			]
		},
		{
			"mesh":7,
			"name":"HelmetTail",
			"translation":[
				-0.0945124626159668,
				0.2861909866333008,
				-0.2340712547302246
			]
		},
		{
			"children":[
				7
			],
			"mesh":8,
			"name":"Helmet"
		},
		{
			"children":[
				8
			],
			"mesh":9,
			"name":"Head",
			"translation":[
				0,
				0.3493906259536743,
				0
			]
		},
		{
			"children":[
				0,
				1,
				2,
				3,
				6,
				9
			],
			"mesh":10,
			"name":"Torso"
		},
		{
			"children":[
				10
			],
			"name":"Player",
			"translation":[
				1.4929770231246948,
				0.962812066078186,
				-3.0173933506011963
			]
		}
	],
	"materials":[
		{
			"doubleSided":true,
			"name":"Material.001",
			"pbrMetallicRoughness":{
				"baseColorFactor":[
					0.800315260887146,
					0.0026084077544510365,
					0,
					1
				],
				"metallicFactor":0,
				"roughnessFactor":0.6090909242630005
			}
		},
		{
			"doubleSided":true,
			"name":"Armor",
			"pbrMetallicRoughness":{
				"baseColorFactor":[
					0.5271116495132446,
					0.5271156430244446,
					0.5271153450012207,
					1
				],
				"metallicFactor":0.5454545021057129,
				"roughnessFactor":0.3136363625526428
			}
		}
	],
	"meshes":[
		{
			"name":"Plane.001",
			"primitives":[
				{
					"attributes":{
						"POSITION":0,
						"NORMAL":1,
						"TEXCOORD_0":2
					},
					"indices":3,
					"material":0
				}
			]
		},
		{
			"name":"Cylinder.003",
			"primitives":[
				{
					"attributes":{
						"POSITION":4,
						"NORMAL":5,
						"TEXCOORD_0":6
					},
					"indices":7,
					"material":1
				}
			]
		},
		{
			"name":"Cylinder",
			"primitives":[
				{
					"attributes":{
						"POSITION":8,
						"NORMAL":9,
						"TEXCOORD_0":10
					},
					"indices":11,
					"material":1
				}
			]
		},
		{
			"name":"Cube.011",
			"primitives":[
				{
					"attributes":{
						"POSITION":12,
						"NORMAL":13,
						"TEXCOORD_0":14
					},
					"indices":15,
					"material":1
				}
			]
		},
		{
			"name":"Cube.006",
			"primitives":[
				{
					"attributes":{
						"POSITION":16,
						"NORMAL":17,
						"TEXCOORD_0":18
					},
					"indices":19,
					"material":1
				}
			]
		},
		{
			"name":"Cube.004",
			"primitives":[
				{
					"attributes":{
						"POSITION":20,
						"NORMAL":21,
						"TEXCOORD_0":22
					},
					"indices":23
				}
			]
		},
		{
			"name":"Cube.013",
			"primitives":[
				{
					"attributes":{
						"POSITION":24,
						"NORMAL":25,
						"TEXCOORD_0":26
					},
					"indices":27,
					"material":1
				}
			]
		},
		{
			"name":"Cylinder.001",
			"primitives":[
				{
					"attributes":{
						"POSITION":28,
						"NORMAL":29,
						"TEXCOORD_0":30
					},
					"indices":31,
					"material":0
				}
			]
		},
		{
			"name":"Sphere.004",
			"primitives":[
				{
					"attributes":{
						"POSITION":32,
						"NORMAL":33,
						"TEXCOORD_0":34
					},
					"indices":35,
					"material":1
				}
			]
		},
		{
			"name":"Sphere",
			"primitives":[
				{
					"attributes":{
						"POSITION":36,
						"NORMAL":37,
						"TEXCOORD_0":38
					},
					"indices":39
				}
			]
		},
		{
			"name":"Cube.003",
			"primitives":[
				{
					"attributes":{
						"POSITION":40,
						"NORMAL":41,
						"TEXCOORD_0":42
					},
					"indices":43,
					"material":1
				}
			]
		}
	],
	"accessors":[
		{
			"bufferView":0,
			"componentType":5126,
			"count":238,
			"max":[
				1.1378024816513062,
				-0.0008176416158676147,
				0.9072854518890381
			],
			"min":[
				-1.1378024816513062,
				-0.19346632063388824,
				-0.9409712553024292
			],
			"type":"VEC3"
		},
		{
			"bufferView":1,
			"componentType":5126,
			"count":238,
			"type":"VEC3"
		},
		{
			"bufferView":2,
			"componentType":5126,
			"count":238,
			"type":"VEC2"
		},
		{
			"bufferView":3,
			"componentType":5123,
			"count":318,
			"type":"SCALAR"
		},
		{
			"bufferView":4,
			"componentType":5126,
			"count":137,
			"max":[
				0.19361944496631622,
				0.09651270508766174,
				0.2505316138267517
			],
			"min":[
				0.05361942946910858,
				-0.007927991449832916,
				-0.08204586803913116
			],
			"type":"VEC3"
		},
		{
			"bufferView":5,
			"componentType":5126,
			"count":137,
			"type":"VEC3"
		},
		{
			"bufferView":6,
			"componentType":5126,
			"count":137,
			"type":"VEC2"
		},
		{
			"bufferView":7,
			"componentType":5123,
			"count":204,
			"type":"SCALAR"
		},
		{
			"bufferView":8,
			"componentType":5126,
			"count":137,
			"max":[
				-0.05361942946910858,
				0.09651270508766174,
				0.2505316138267517
			],
			"min":[
				-0.19361944496631622,
				-0.007927991449832916,
				-0.08204586803913116
			],
			"type":"VEC3"
		},
		{
			"bufferView":9,
			"componentType":5126,
			"count":137,
			"type":"VEC3"
		},
		{
			"bufferView":10,
			"componentType":5126,
			"count":137,
			"type":"VEC2"
		},
		{
			"bufferView":11,
			"componentType":5123,
			"count":204,
			"type":"SCALAR"
		},
		{
			"bufferView":12,
			"componentType":5126,
			"count":180,
			"max":[
				0.03620494157075882,
				0.04094262048602104,
				0.05682509019970894
			],
			"min":[
				-0.050467271357774734,
				-0.14869733154773712,
				-0.05682509019970894
			],
			"type":"VEC3"
		},
		{
			"bufferView":13,
			"componentType":5126,
			"count":180,
			"type":"VEC3"
		},
		{
			"bufferView":14,
			"componentType":5126,
			"count":180,
			"type":"VEC2"
		},
		{
			"bufferView":15,
			"componentType":5123,
			"count":348,
			"type":"SCALAR"
		},
		{
			"bufferView":16,
			"componentType":5126,
			"count":32,
			"max":[
				0.011119379661977291,
				0.478909432888031,
				0.03093130700290203
			],
			"min":[
				-0.011119065806269646,
				-0.010534805245697498,
				-0.030931496992707253
			],
			"type":"VEC3"
		},
		{
			"bufferView":17,
			"componentType":5126,
			"count":32,
			"type":"VEC3"
		},
		{
			"bufferView":18,
			"componentType":5126,
			"count":32,
			"type":"VEC2"
		},
		{
			"bufferView":19,
			"componentType":5123,
			"count":42,
			"type":"SCALAR"
		},
		{
			"bufferView":20,
			"componentType":5126,
			"count":98,
			"max":[
				0.01598397269845009,
				0.03442654386162758,
				0.07912943512201309
			],
			"min":[
				-0.01598397269845009,
				-0.15143528580665588,
				-0.07912943512201309
			],
			"type":"VEC3"
		},
		{
			"bufferView":21,
			"componentType":5126,
			"count":98,
			"type":"VEC3"
		},
		{
			"bufferView":22,
			"componentType":5126,
			"count":98,
			"type":"VEC2"
		},
		{
			"bufferView":23,
			"componentType":5123,
			"count":168,
			"type":"SCALAR"
		},
		{
			"bufferView":24,
			"componentType":5126,
			"count":246,
			"max":[
				0.058582231402397156,
				0.04094262048602104,
				0.05682509019970894
			],
			"min":[
				-0.050467271357774734,
				-0.09851881861686707,
				-0.05682509019970894
			],
			"type":"VEC3"
		},
		{
			"bufferView":25,
			"componentType":5126,
			"count":246,
			"type":"VEC3"
		},
		{
			"bufferView":26,
			"componentType":5126,
			"count":246,
			"type":"VEC2"
		},
		{
			"bufferView":27,
			"componentType":5123,
			"count":444,
			"type":"SCALAR"
		},
		{
			"bufferView":28,
			"componentType":5126,
			"count":336,
			"max":[
				0.11403200030326843,
				9.366136509925127e-05,
				0.11420870572328568
			],
			"min":[
				-0.03441842645406723,
				-0.23520056903362274,
				-0.17281316220760345
			],
			"type":"VEC3"
		},
		{
			"bufferView":29,
			"componentType":5126,
			"count":336,
			"type":"VEC3"
		},
		{
			"bufferView":30,
			"componentType":5126,
			"count":336,
			"type":"VEC2"
		},
		{
			"bufferView":31,
			"componentType":5123,
			"count":540,
			"type":"SCALAR"
		},
		{
			"bufferView":32,
			"componentType":5126,
			"count":556,
			"max":[
				0.1518649160861969,
				0.19793801009655,
				0.1834573894739151
			],
			"min":[
				-0.1518649160861969,
				-0.08933021128177643,
				-0.18504448235034943
			],
			"type":"VEC3"
		},
		{
			"bufferView":33,
			"componentType":5126,
			"count":556,
			"type":"VEC3"
		},
		{
			"bufferView":34,
			"componentType":5126,
			"count":556,
			"type":"VEC2"
		},
		{
			"bufferView":35,
			"componentType":5123,
			"count":1062,
			"type":"SCALAR"
		},
		{
			"bufferView":36,
			"componentType":5126,
			"count":240,
			"max":[
				0.12021489441394806,
				0.15417465567588806,
				0.15417465567588806
			],
			"min":[
				-0.12021489441394806,
				-0.15417465567588806,
				-0.15417465567588806
			],
			"type":"VEC3"
		},
		{
			"bufferView":37,
			"componentType":5126,
			"count":240,
			"type":"VEC3"
		},
		{
			"bufferView":38,
			"componentType":5126,
			"count":240,
			"type":"VEC2"
		},
		{
			"bufferView":39,
			"componentType":5123,
			"count":336,
			"type":"SCALAR"
		},
		{
			"bufferView":40,
			"componentType":5126,
			"count":759,
			"max":[
				0.23338712751865387,
				0.17363318800926208,
				0.11563099175691605
			],
			"min":[
				-0.23338712751865387,
				-0.2830764353275299,
				-0.11563099175691605
			],
			"type":"VEC3"
		},
		{
			"bufferView":41,
			"componentType":5126,
			"count":759,
			"type":"VEC3"
		},
		{
			"bufferView":42,
			"componentType":5126,
			"count":759,
			"type":"VEC2"
		},
		{
			"bufferView":43,
			"componentType":5123,
			"count":1872,
			"type":"SCALAR"
		}
	],
	"bufferViews":[
		{
			"buffer":0,
			"byteLength":2856,
			"byteOffset":0,
			"target":34962
		},
		{
			"buffer":0,
			"byteLength":2856,
			"byteOffset":2856,
			"target":34962
		},
		{
			"buffer":0,
			"byteLength":1904,
			"byteOffset":5712,
			"target":34962
		},
		{
			"buffer":0,
			"byteLength":636,
			"byteOffset":7616,
			"target":34963
		},
		{
			"buffer":0,
			"byteLength":1644,
			"byteOffset":8252,
			"target":34962
		},
		{
			"buffer":0,
			"byteLength":1644,
			"byteOffset":9896,
			"target":34962
		},
		{
			"buffer":0,
			"byteLength":1096,
			"byteOffset":11540,
			"target":34962
		},
		{
			"buffer":0,
			"byteLength":408,
			"byteOffset":12636,
			"target":34963
		},
		{
			"buffer":0,
			"byteLength":1644,
			"byteOffset":13044,
			"target":34962
		},
		{
			"buffer":0,
			"byteLength":1644,
			"byteOffset":14688,
			"target":34962
		},
		{
			"buffer":0,
			"byteLength":1096,
			"byteOffset":16332,
			"target":34962
		},
		{
			"buffer":0,
			"byteLength":408,
			"byteOffset":17428,
			"target":34963
		},
		{
			"buffer":0,
			"byteLength":2160,
			"byteOffset":17836,
			"target":34962
		},
		{
			"buffer":0,
			"byteLength":2160,
			"byteOffset":19996,
			"target":34962
		},
		{
			"buffer":0,
			"byteLength":1440,
			"byteOffset":22156,
			"target":34962
		},
		{
			"buffer":0,
			"byteLength":696,
			"byteOffset":23596,
			"target":34963
		},
		{
			"buffer":0,
			"byteLength":384,
			"byteOffset":24292,
			"target":34962
		},
		{
			"buffer":0,
			"byteLength":384,
			"byteOffset":24676,
			"target":34962
		},
		{
			"buffer":0,
			"byteLength":256,
			"byteOffset":25060,
			"target":34962
		},
		{
			"buffer":0,
			"byteLength":84,
			"byteOffset":25316,
			"target":34963
		},
		{
			"buffer":0,
			"byteLength":1176,
			"byteOffset":25400,
			"target":34962
		},
		{
			"buffer":0,
			"byteLength":1176,
			"byteOffset":26576,
			"target":34962
		},
		{
			"buffer":0,
			"byteLength":784,
			"byteOffset":27752,
			"target":34962
		},
		{
			"buffer":0,
			"byteLength":336,
			"byteOffset":28536,
			"target":34963
		},
		{
			"buffer":0,
			"byteLength":2952,
			"byteOffset":28872,
			"target":34962
		},
		{
			"buffer":0,
			"byteLength":2952,
			"byteOffset":31824,
			"target":34962
		},
		{
			"buffer":0,
			"byteLength":1968,
			"byteOffset":34776,
			"target":34962
		},
		{
			"buffer":0,
			"byteLength":888,
			"byteOffset":36744,
			"target":34963
		},
		{
			"buffer":0,
			"byteLength":4032,
			"byteOffset":37632,
			"target":34962
		},
		{
			"buffer":0,
			"byteLength":4032,
			"byteOffset":41664,
			"target":34962
		},
		{
			"buffer":0,
			"byteLength":2688,
			"byteOffset":45696,
			"target":34962
		},
		{
			"buffer":0,
			"byteLength":1080,
			"byteOffset":48384,
			"target":34963
		},
		{
			"buffer":0,
			"byteLength":6672,
			"byteOffset":49464,
			"target":34962
		},
		{
			"buffer":0,
			"byteLength":6672,
			"byteOffset":56136,
			"target":34962
		},
		{
			"buffer":0,
			"byteLength":4448,
			"byteOffset":62808,
			"target":34962
		},
		{
			"buffer":0,
			"byteLength":2124,
			"byteOffset":67256,
			"target":34963
		},
		{
			"buffer":0,
			"byteLength":2880,
			"byteOffset":69380,
			"target":34962
		},
		{
			"buffer":0,
			"byteLength":2880,
			"byteOffset":72260,
			"target":34962
		},
		{
			"buffer":0,
			"byteLength":1920,
			"byteOffset":75140,
			"target":34962
		},
		{
			"buffer":0,
			"byteLength":672,
			"byteOffset":77060,
			"target":34963
		},
		{
			"buffer":0,
			"byteLength":9108,
			"byteOffset":77732,
			"target":34962
		},
		{
			"buffer":0,
			"byteLength":9108,
			"byteOffset":86840,
			"target":34962
		},
		{
			"buffer":0,
			"byteLength":6072,
			"byteOffset":95948,
			"target":34962
		},
		{
			"buffer":0,
			"byteLength":3744,
			"byteOffset":102020,
			"target":34963
		}
	],
	"buffers":[
		{
			"byteLength":105764,
			"uri":"player.bin"
		}
	]
}
