ply
format ascii 1.0
comment Created in Blender version 4.3.2
element vertex 209
property float x
property float y
property float z
property float nx
property float ny
property float nz
property float s
property float t
element face 114
property list uchar uint vertex_indices
end_header
2.9850676 0.2256202 1.7003472 -0.2971115 0.6302706 0.7172752 0.9438223 0.9729375
3.0658011 0.22562018 1.674164 0.7172904 0.6302539 0.29711032 0.94897705 0.9745711
3.0396183 0.22562018 1.5160687 0.29711172 0.63027054 -0.71727526 0.9473053 0.984435
2.9588847 0.20468214 1.674164 -0.92388004 1.9275004e-07 0.38268235 0.9474345 0.9860867
2.9588847 0.2256202 1.5422518 -0.7172901 0.6302542 -0.29711035 0.94877136 0.9945087
2.9588847 0.20468214 1.5422518 -0.92387956 1.3950194e-07 -0.38268352 0.9474345 0.9945086
3.0396183 0.20468213 1.7003472 0.3826906 -1.6706426e-07 0.9238766 0.9639331 0.9930778
2.9850676 0.2256202 1.7003472 -0.2971115 0.6302706 0.7172752 0.96522856 0.9965595
2.9850676 0.20468214 1.7003472 -0.38268343 2.2030933e-07 0.92387956 0.9639331 0.9965608
3.0658011 0.22562018 1.674164 0.7172904 0.6302539 0.29711032 0.9658445 0.9745892
3.0658011 0.20468213 1.5422518 0.92388004 -8.625397e-08 -0.3826824 0.9671813 0.98301107
3.0658011 0.22562018 1.5422518 0.7172891 0.6302552 -0.2971109 0.9658445 0.9830111
3.0396183 0.22562018 1.5160687 0.29711172 0.63027054 -0.71727526 0.9658504 0.9847027
3.0396183 0.20468213 1.5160687 0.38268343 1.0474214e-07 -0.92387956 0.9671873 0.98470265
3.0396183 0.20468213 1.7003472 0.3826906 -1.6706426e-07 0.9238766 0.9671873 0.9729375
3.0396183 0.22562018 1.7003472 0.29711092 0.63025516 0.71728903 0.9658504 0.9729375
2.9850676 0.20468214 1.5160687 -0.3826906 -5.1494915e-08 -0.9238766 0.94742864 0.99620014
2.9850676 0.2256202 1.5160687 -0.29711074 0.6302553 -0.71728903 0.94876546 0.9962002
2.9850676 0.2256202 1.7003472 -0.2971115 0.6302706 0.7172752 0.94876546 0.9844351
2.9850676 0.20468214 1.7003472 -0.38268343 2.2030933e-07 0.92387956 0.94742864 0.984435
2.9850676 0.20468214 1.5160687 -0.3826906 -5.1494915e-08 -0.9238766 0.9639331 0.98959357
3.0396183 0.22562018 1.5160687 0.29711172 0.63027054 -0.71727526 0.9652481 0.99307656
3.0396183 0.20468213 1.5160687 0.38268343 1.0474214e-07 -0.92387956 0.9639331 0.99307656
3.0291305 0.2929607 1.4923675 0.56035125 0.36300743 -0.74446774 0.9542305 0.98959357
3.045365 0.3196096 1.7564274 0.2818464 -0.53183365 -0.79857105 0.9574108 0.9729375
3.0291305 0.26078182 1.5019481 0.56036067 -0.7111026 -0.4246517 0.9563742 0.98959357
3.045365 0.3196096 1.7564274 0.2818464 -0.53183365 -0.79857105 0.94897705 0.9729375
2.9955556 0.26078182 1.5019481 -0.5603492 -0.7110995 -0.42467195 0.9521573 0.98960614
3.0291305 0.26078182 1.5019481 0.56036067 -0.7111026 -0.4246517 0.95001364 0.98960614
2.9793208 0.31960964 1.7564274 -0.28184485 -0.53184175 -0.7985661 0.9574108 0.9729375
2.9955556 0.2929607 1.4923675 -0.5603622 0.36302105 -0.7444528 0.9605911 0.98959357
2.9955556 0.26078182 1.5019481 -0.5603492 -0.7110995 -0.42467195 0.95844734 0.98959357
2.9793208 0.38290805 1.7375814 -0.28185508 0.008418693 -0.95942 0.9616276 0.9729375
3.0291305 0.2929607 1.4923675 0.56035125 0.36300743 -0.74446774 0.964808 0.9894567
2.9955556 0.2929607 1.4923675 -0.5603622 0.36302105 -0.7444528 0.96266425 0.9894567
2.9955556 0.26078182 1.5019481 -0.5603492 -0.7110995 -0.42467195 0.95024884 0.9944855
3.0291305 0.2929607 1.4923675 0.56035125 0.36300743 -0.74446774 0.95237994 0.9966292
3.0291305 0.26078182 1.5019481 0.56036067 -0.7111026 -0.4246517 0.95024884 0.9966292
3.0537019 0.39483416 1.7484224 0.5823674 0.71999675 0.3774293 0.94742775 0.984435
3.0233502 0.38684404 1.7508013 -0.001752985 0.87944853 0.47599065 0.9468962 0.98637295
3.045365 0.38703176 1.7514317 0.32652038 0.5662986 0.75676316 0.9468977 0.9849672
2.9793208 0.38290805 1.7375814 -0.28185508 0.008418693 -0.95942 0.9621321 0.99012583
2.970984 0.31161955 1.7588063 -0.57734436 -0.7180956 -0.38860288 0.9574108 0.98959357
2.970984 0.39089814 1.7352026 -0.57734513 0.38858098 -0.7181068 0.9626613 0.98959357
2.970984 0.39483416 1.7484224 -0.5877999 0.72198194 0.36501142 0.94742864 0.9897164
2.9793208 0.38723704 1.7521212 -0.2930746 0.5746026 0.7641592 0.9469001 0.98918384
3.0013356 0.38684404 1.7508013 0.0037533904 0.8795913 0.47571558 0.94689643 0.98777854
2.9793208 0.3657446 1.7570834 -0.70813507 0.2000729 0.67713785 0.94549215 0.98918414
2.970984 0.31161955 1.7588063 -0.57734436 -0.7180956 -0.38860288 0.9434223 0.9897164
2.970984 0.39483416 1.7484224 -0.5877999 0.72198194 0.36501142 0.944303 0.99499786
2.970984 0.39089814 1.7352026 -0.57734513 0.38858098 -0.7181068 0.9434223 0.99499786
3.0537019 0.39089814 1.7352026 0.5773349 0.38858113 -0.718115 0.9451836 0.99499786
3.0537019 0.31555554 1.7720263 0.5773574 -0.3886149 0.7180786 0.944303 0.9897164
3.0537019 0.31161955 1.7588063 0.5773458 -0.7180884 -0.38861403 0.9451836 0.9897164
2.970984 0.39089814 1.7352026 -0.57734513 0.38858098 -0.7181068 0.94742864 0.99499786
3.0537019 0.39483416 1.7484224 0.5823674 0.71999675 0.3774293 0.9465504 0.9897164
3.0537019 0.39089814 1.7352026 0.5773349 0.38858113 -0.718115 0.94742864 0.9897164
3.0537019 0.31161955 1.7588063 0.5773458 -0.7180884 -0.38861403 0.9460639 0.99499786
2.970984 0.31555557 1.7720263 -0.57572925 -0.38611278 0.7207307 0.9451836 0.9897164
2.970984 0.31161955 1.7588063 -0.57734436 -0.7180956 -0.38860288 0.9460639 0.9897164
3.0537019 0.31555554 1.7720263 0.5773574 -0.3886149 0.7180786 0.9421506 0.984435
3.045365 0.32354563 1.7696474 0.30449563 -0.036869247 0.9517999 0.9426825 0.9849673
3.0233502 0.32354563 1.7696474 -0.013011707 -0.31398824 0.9493377 0.9426827 0.98637295
3.045365 0.38290805 1.7375814 0.28185445 0.008431515 -0.95942014 0.9621321 0.9943427
3.0537019 0.31161955 1.7588063 0.5773458 -0.7180884 -0.38861403 0.9574108 0.994875
3.045365 0.3196096 1.7564274 0.2818464 -0.53183365 -0.79857105 0.95794 0.9943427
3.0537019 0.39089814 1.7352026 0.5773349 0.38858113 -0.718115 0.9626613 0.994875
2.9793208 0.31960964 1.7564274 -0.28184485 -0.53184175 -0.7985661 0.95794 0.99012583
3.0223024 0.2959942 1.5524677 0.70709205 -1.06767935e-07 0.70712155 0.95024884 0.99448544
3.0223024 0.2195745 1.5325488 0.70709205 -1.06767935e-07 -0.70712155 0.9515205 0.9896062
3.0223024 0.2959942 1.5325488 0.70712155 -1.0677239e-07 -0.70709205 0.9515205 0.9944855
3.0023835 0.2195745 1.5524677 -0.70709205 1.06767935e-07 0.70712155 0.95024884 0.98960614
3.0023835 0.2959942 1.5325488 -0.70709205 1.06767935e-07 -0.70712155 0.94897705 0.9944855
3.0023835 0.2195745 1.5325488 -0.70712155 1.0677239e-07 -0.70709205 0.94897705 0.9896062
3.0023835 0.2195745 1.5325488 -0.70712155 1.0677239e-07 -0.70709205 0.9527923 0.98960614
3.0223024 0.2959942 1.5325488 0.70712155 -1.0677239e-07 -0.70709205 0.9515205 0.9944057
3.0223024 0.2195745 1.5325488 0.70709205 -1.06767935e-07 -0.70712155 0.9515205 0.98960614
3.0223024 0.2195745 1.5524677 0.70712155 -1.0677239e-07 0.70709205 0.9434223 0.98971766
3.0023835 0.2959942 1.5524677 -0.70712155 1.0677239e-07 0.70709205 0.9421506 0.9944447
3.0023835 0.2195745 1.5524677 -0.70709205 1.06767935e-07 0.70712155 0.9421506 0.9897164
3.0223024 0.31406283 1.6721822 0.70709723 -1.0676872e-07 0.70711637 0.9531939 0.9956265
3.0223024 0.2195745 1.6522633 0.70709723 -1.0676872e-07 -0.7071164 0.9544657 0.9895936
3.0223024 0.31406283 1.6522633 0.7071164 -1.06771616e-07 -0.70709723 0.9544657 0.99562657
3.0023835 0.2195745 1.6721822 -0.70709723 1.0676872e-07 0.7071164 0.95573735 0.98959357
3.0023835 0.31406283 1.6522633 -0.70709723 1.0676872e-07 -0.70711637 0.9544657 0.99562657
3.0023835 0.2195745 1.6522633 -0.7071164 1.06771616e-07 -0.70709723 0.9544657 0.9895936
3.0023835 0.2195745 1.6522633 -0.7071164 1.06771616e-07 -0.70709723 0.95700914 0.98959357
3.0223024 0.31406283 1.6522633 0.7071164 -1.06771616e-07 -0.70709723 0.95573735 0.9955279
3.0223024 0.2195745 1.6522633 0.70709723 -1.0676872e-07 -0.7071164 0.95573735 0.98959357
3.0223024 0.2195745 1.6721822 0.7071164 -1.06771616e-07 0.70709723 0.9639331 0.9895948
3.0023835 0.31406283 1.6721822 -0.7071164 1.06771616e-07 0.70709723 0.9626613 0.99543977
3.0023835 0.2195745 1.6721822 -0.70709723 1.0676872e-07 0.7071164 0.9626613 0.98959357
3.0455725 0.3811144 1.8086953 0.49519473 -0.11965558 0.86050266 0.9574282 0.66357195
3.0233502 0.40444484 1.8099174 -0.27026188 0.605879 0.7482441 0.96059513 0.6615366
3.0233612 0.371867 1.777617 -0.32594347 -0.0105836345 0.94533 0.96059513 0.666893
2.9792762 0.38085398 1.8078307 -0.5601579 0.62884384 0.5392389 0.9610671 0.69439095
3.0013356 0.38799465 1.7546537 -0.041975304 0.9990877 0.007873784 0.9610671 0.70116264
2.9793208 0.38723704 1.7521212 -0.2930746 0.5746026 0.7641592 0.9585814 0.7004434
3.0233612 0.371867 1.777617 -0.32594347 -0.0105836345 0.94533 0.9652343 0.7434958
3.0013356 0.38799465 1.7546537 -0.041975304 0.9990877 0.007873784 0.9652343 0.74766093
3.0013144 0.37056446 1.7732208 0.33180177 0.8363987 0.43628544 0.96336704 0.7453469
3.001316 0.33220592 1.8013535 -0.031921525 -0.7323692 0.6801591 0.96185535 0.7094371
2.97914 0.34654978 1.7697731 -0.9789217 -0.08856011 0.18403687 0.9634971 0.7139548
2.9793208 0.3234841 1.7694405 -0.23482537 0.07741826 0.96894974 0.96080357 0.7139548
3.0013142 0.36578232 1.834413 0.07233057 0.16325025 0.98392975 0.94577396 0.7021026
2.9792762 0.38085398 1.8078307 -0.5601579 0.62884384 0.5392389 0.94884145 0.7052556
2.97914 0.34654978 1.7697731 -0.9789217 -0.08856011 0.18403687 0.94577396 0.7103916
3.001316 0.33220592 1.8013535 -0.031921525 -0.7323692 0.6801591 0.9609453 0.7361553
3.0233686 0.34899628 1.7780411 0.37872294 0.08901023 0.9212199 0.9577967 0.738978
3.0013142 0.36578232 1.834413 0.07233057 0.16325025 0.98392975 0.9577967 0.7316436
3.0013142 0.36578232 1.834413 0.07233057 0.16325025 0.98392975 0.95767355 0.7035064
3.0233612 0.371867 1.777617 -0.32594347 -0.0105836345 0.94533 0.95767355 0.71065533
3.0013144 0.37056446 1.7732208 0.33180177 0.8363987 0.43628544 0.95508593 0.7101895
3.0458033 0.3390553 1.8233699 0.21390077 0.033000182 0.97629786 0.95476526 0.7660735
3.0233686 0.34899628 1.7780411 0.37872294 0.08901023 0.9212199 0.9574305 0.77146953
3.0233502 0.32354563 1.7696474 -0.013011707 -0.31398824 0.9493377 0.95476526 0.77310896
3.045731 0.34817454 1.7752277 0.9432797 0.1616421 0.28999192 0.9452984 0.7480192
3.0233612 0.371867 1.777617 -0.32594347 -0.0105836345 0.94533 0.9452984 0.7442045
3.0233686 0.34899628 1.7780411 0.37872294 0.08901023 0.9212199 0.94714093 0.7461379
3.045365 0.3657446 1.7570833 0.709851 0.2026073 0.6745827 0.95490915 0.72907263
3.045365 0.38703176 1.7514317 0.32652038 0.5662986 0.75676316 0.9548537 0.7316436
3.0455725 0.3811144 1.8086953 0.49519473 -0.11965558 0.86050266 0.9486217 0.7291253
3.0233502 0.38684404 1.7508013 -0.001752985 0.87944853 0.47599065 0.94589347 0.7307064
3.0013356 0.38799465 1.7546537 -0.041975304 0.9990877 0.007873784 0.94363487 0.7293925
3.0233502 0.40444484 1.8099174 -0.27026188 0.605879 0.7482441 0.94833744 0.72393197
2.9793208 0.3234841 1.7694405 -0.23482537 0.07741826 0.96894974 0.94641834 0.77106
3.0013356 0.32354563 1.7696474 -0.00051840197 -0.4859611 0.8739804 0.9442918 0.7696158
3.001316 0.33220592 1.8013535 -0.031921525 -0.7323692 0.6801591 0.94641834 0.7664214
2.9793208 0.34464508 1.7633654 -0.7166552 0.19853069 0.66857386 0.9444809 0.7379069
2.9793208 0.3234841 1.7694405 -0.23482537 0.07741826 0.96894974 0.94251746 0.7395659
2.97914 0.34654978 1.7697731 -0.9789217 -0.08856011 0.18403687 0.9439826 0.7373059
3.045731 0.34817454 1.7752277 0.9432797 0.1616421 0.28999192 0.95344245 0.72651404
3.045365 0.34464508 1.7633654 0.71748525 0.19876969 0.66761184 0.9548878 0.7265023
2.9793208 0.38723704 1.7521212 -0.2930746 0.5746026 0.7641592 0.9508565 0.67210835
2.9793208 0.3657446 1.7570834 -0.70813507 0.2000729 0.67713785 0.94897956 0.6738718
2.9792762 0.38085398 1.8078307 -0.5601579 0.62884384 0.5392389 0.94503653 0.669111
2.9793208 0.3657446 1.7570834 -0.70813507 0.2000729 0.67713785 0.9460943 0.7631227
2.97914 0.34654978 1.7697731 -0.9789217 -0.08856011 0.18403687 0.9436164 0.76416135
2.9792762 0.38085398 1.8078307 -0.5601579 0.62884384 0.5392389 0.94215125 0.7583619
3.0233502 0.32354563 1.7696474 -0.013011707 -0.31398824 0.9493377 0.9544584 0.7469678
3.045365 0.32354563 1.7696474 0.30449563 -0.036869247 0.9517999 0.95207304 0.74600995
3.0458033 0.3390553 1.8233699 0.21390077 0.033000182 0.97629786 0.9544584 0.7399326
3.045365 0.38703176 1.7514317 0.32652038 0.5662986 0.75676316 0.94833744 0.7315064
3.0013356 0.38684404 1.7508013 0.0037533904 0.8795913 0.47571558 0.9434756 0.72983414
2.9793208 0.38723704 1.7521212 -0.2930746 0.5746026 0.7641592 0.9411122 0.72881055
3.045365 0.32354563 1.7696474 0.30449563 -0.036869247 0.9517999 0.9548664 0.72393197
3.0458033 0.3390553 1.8233699 0.21390077 0.033000182 0.97629786 0.94833744 0.72393197
3.0013356 0.32354563 1.7696474 -0.00051840197 -0.4859611 0.8739804 0.944658 0.74276036
3.0233502 0.32354563 1.7696474 -0.013011707 -0.31398824 0.9493377 0.94251746 0.74133724
3.001316 0.33220592 1.8013535 -0.031921525 -0.7323692 0.6801591 0.94678456 0.7395659
3.0455725 0.3811144 1.8086953 0.49519473 -0.11965558 0.86050266 0.9574305 0.7602394
3.045365 0.38703176 1.7514317 0.32652038 0.5662986 0.75676316 0.9540922 0.7660736
3.0233502 0.40444484 1.8099174 -0.27026188 0.605879 0.7482441 0.9540922 0.7584991
2.9792762 0.38085398 1.8078307 -0.5601579 0.62884384 0.5392389 0.9474827 0.7399326
3.0013144 0.37056446 1.7732208 0.33180177 0.8363987 0.43628544 0.94943976 0.74446744
3.0013356 0.38799465 1.7546537 -0.041975304 0.9990877 0.007873784 0.9474827 0.74670607
3.0233612 0.371867 1.777617 -0.32594347 -0.0105836345 0.94533 0.95807606 0.7283189
3.0233502 0.40444484 1.8099174 -0.27026188 0.605879 0.7482441 0.96114486 0.72393197
3.0013356 0.38799465 1.7546537 -0.041975304 0.9990877 0.007873784 0.96114486 0.73113275
3.001316 0.33220592 1.8013535 -0.031921525 -0.7323692 0.6801591 0.9514049 0.73622024
3.0013142 0.36578232 1.834413 0.07233057 0.16325025 0.98392975 0.9544584 0.7316436
2.97914 0.34654978 1.7697731 -0.9789217 -0.08856011 0.18403687 0.9544584 0.7399326
3.0013142 0.36578232 1.834413 0.07233057 0.16325025 0.98392975 0.96078146 0.738978
3.0013144 0.37056446 1.7732208 0.33180177 0.8363987 0.43628544 0.96078146 0.7461446
2.9792762 0.38085398 1.8078307 -0.5601579 0.62884384 0.5392389 0.9577967 0.74220943
3.001316 0.33220592 1.8013535 -0.031921525 -0.7323692 0.6801591 0.9452984 0.7442045
3.0233502 0.32354563 1.7696474 -0.013011707 -0.31398824 0.9493377 0.9452984 0.74882466
3.0233686 0.34899628 1.7780411 0.37872294 0.08901023 0.9212199 0.94251746 0.74739015
3.0013142 0.36578232 1.834413 0.07233057 0.16325025 0.98392975 0.96336704 0.7389781
3.0233686 0.34899628 1.7780411 0.37872294 0.08901023 0.9212199 0.96336704 0.7463125
3.0233612 0.371867 1.777617 -0.32594347 -0.0105836345 0.94533 0.96078146 0.7456431
3.0458033 0.3390553 1.8233699 0.21390077 0.033000182 0.97629786 0.9539381 0.6775372
3.045731 0.34817454 1.7752277 0.9432797 0.1616421 0.28999192 0.9545921 0.68322074
3.0233686 0.34899628 1.7780411 0.37872294 0.08901023 0.9212199 0.95195884 0.68322074
3.045731 0.34817454 1.7752277 0.9432797 0.1616421 0.28999192 0.9549331 0.73145
3.0455725 0.3811144 1.8086953 0.49519473 -0.11965558 0.86050266 0.95490915 0.72596735
3.0233612 0.371867 1.777617 -0.32594347 -0.0105836345 0.94533 0.95807606 0.7292884
2.970984 0.31555557 1.7720263 -0.57572925 -0.38611278 0.7207307 0.94215137 0.9897164
3.0013356 0.32354563 1.7696474 -0.00051840197 -0.4859611 0.8739804 0.9426829 0.98777854
2.9793208 0.3234841 1.7694405 -0.23482537 0.07741826 0.96894974 0.94268256 0.9891842
2.9793208 0.34464508 1.7633654 -0.7166552 0.19853069 0.66857386 0.9440877 0.98918414
3.045365 0.3657446 1.7570833 0.709851 0.2026073 0.6745827 0.9454915 0.9849673
3.045365 0.34464508 1.7633654 0.71748525 0.19876969 0.66761184 0.94408697 0.9849673
2.9850676 0.2256202 1.5160687 -0.29711074 0.6302553 -0.71728903 0.9438223 0.984435
2.9588847 0.2256202 1.5422518 -0.7172901 0.6302542 -0.29711035 0.9421506 0.9828014
2.9588847 0.2256202 1.674164 -0.71728885 0.63025546 0.2971109 0.9421506 0.9745711
3.0396183 0.22562018 1.7003472 0.29711092 0.63025516 0.71728903 0.9473053 0.9729375
3.0658011 0.22562018 1.5422518 0.7172891 0.6302552 -0.2971109 0.94897705 0.9828014
2.9588847 0.2256202 1.674164 -0.71728885 0.63025546 0.2971109 0.94877136 0.98608685
3.0396183 0.22562018 1.7003472 0.29711092 0.63025516 0.71728903 0.96522856 0.99307656
3.0658011 0.20468213 1.674164 0.92387956 -1.3950194e-07 0.38268352 0.9671813 0.9745892
2.9850676 0.2256202 1.5160687 -0.29711074 0.6302553 -0.71728903 0.9652481 0.98959357
3.045365 0.38290805 1.7375814 0.28185445 0.008431515 -0.95942014 0.9531939 0.9729375
2.9793208 0.31960964 1.7564274 -0.28184485 -0.53184175 -0.7985661 0.9531939 0.9729375
3.045365 0.38290805 1.7375814 0.28185445 0.008431515 -0.95942014 0.9658445 0.9729375
2.9955556 0.2929607 1.4923675 -0.5603622 0.36302105 -0.7444528 0.95237994 0.9944855
2.970984 0.31555557 1.7720263 -0.57572925 -0.38611278 0.7207307 0.944303 0.9897164
3.0537019 0.39483416 1.7484224 0.5823674 0.71999675 0.3774293 0.944303 0.99499786
2.970984 0.39483416 1.7484224 -0.5877999 0.72198194 0.36501142 0.94655037 0.99499786
3.0537019 0.31555554 1.7720263 0.5773574 -0.3886149 0.7180786 0.9451836 0.99499786
3.0223024 0.2195745 1.5524677 0.70712155 -1.0677239e-07 0.70709205 0.95024884 0.98960614
3.0023835 0.2959942 1.5524677 -0.70712155 1.0677239e-07 0.70709205 0.95024884 0.99448544
3.0023835 0.2959942 1.5325488 -0.70709205 1.06767935e-07 -0.70712155 0.9527923 0.9944057
3.0223024 0.2959942 1.5524677 0.70709205 -1.06767935e-07 0.70712155 0.9434223 0.9944459
3.0223024 0.2195745 1.6721822 0.7071164 -1.06771616e-07 0.70709723 0.9531939 0.98959357
3.0023835 0.31406283 1.6721822 -0.7071164 1.06771616e-07 0.70709723 0.95573735 0.9956265
3.0023835 0.31406283 1.6522633 -0.70709723 1.0676872e-07 -0.70711637 0.95700914 0.9955279
3.0223024 0.31406283 1.6721822 0.70709723 -1.0676872e-07 0.70711637 0.9639331 0.995441
2.9793208 0.34464508 1.7633654 -0.7166552 0.19853069 0.66857386 0.9441147 0.76476234
3 0 1 2
3 3 4 5
3 6 7 8
3 9 10 11
3 12 10 13
3 14 9 15
3 16 4 17
3 18 3 19
3 20 21 22
3 23 24 25
3 26 27 28
3 29 30 31
3 32 33 34
3 35 36 37
3 38 39 40
3 41 42 43
3 44 45 46
3 44 47 45
3 48 49 50
3 51 52 53
3 54 55 56
3 57 58 59
3 60 61 62
3 63 64 65
3 63 43 66
3 65 42 67
3 68 69 70
3 71 72 73
3 74 75 76
3 77 78 79
3 80 81 82
3 83 84 85
3 86 87 88
3 89 90 91
3 92 93 94
3 95 96 97
3 98 99 100
3 101 102 103
3 104 105 106
3 107 108 109
3 110 111 112
3 113 114 115
3 116 117 118
3 119 120 121
3 122 123 124
3 125 126 127
3 128 129 130
3 119 131 132
3 133 134 135
3 136 137 138
3 139 140 141
3 142 122 124
3 143 144 123
3 145 131 146
3 147 148 149
3 150 151 152
3 153 154 155
3 156 157 158
3 159 160 161
3 162 163 164
3 165 166 167
3 168 169 170
3 171 172 173
3 174 175 176
3 177 178 179
3 62 177 60
3 180 177 179
3 177 47 44
3 44 39 38
3 38 40 181
3 38 182 60
3 60 182 61
3 2 183 184
3 184 185 0
3 0 186 1
3 1 187 2
3 2 184 0
3 3 188 4
3 6 189 7
3 9 190 10
3 12 11 10
3 14 190 9
3 16 5 4
3 18 188 3
3 20 191 21
3 23 192 24
3 26 193 27
3 29 32 30
3 32 194 33
3 35 195 36
3 41 67 42
3 48 196 49
3 51 197 52
3 54 198 55
3 57 199 58
3 63 66 64
3 63 41 43
3 65 64 42
3 68 200 69
3 71 201 72
3 74 202 75
3 77 203 78
3 80 204 81
3 83 205 84
3 86 206 87
3 89 207 90
3 122 143 123
3 119 121 131
3 136 208 137
3 145 132 131
3 62 178 177
3 177 180 47
3 44 46 39
3 38 181 182
