{
	"asset":{
		"generator":"Khronos glTF Blender I/O v4.3.47",
		"version":"2.0"
	},
	"scene":0,
	"scenes":[
		{
			"name":"Scene",
			"nodes":[
				0
			]
		}
	],
	"nodes":[
		{
			"mesh":0,
			"name":"DoorWallUpper",
			"rotation":[
				0,
				-1,
				0,
				7.549790126404332e-08
			],
			"scale":[
				-1,
				-1,
				-1
			],
			"translation":[
				-1.4982800483703613,
				1.3999947309494019,
				-6.000002384185791
			]
		}
	],
	"materials":[
		{
			"doubleSided":true,
			"name":"RockNoTexture",
			"pbrMetallicRoughness":{
				"baseColorFactor":[
					0.15895980596542358,
					0.1559266299009323,
					0.15896092355251312,
					1
				],
				"metallicFactor":0,
				"roughnessFactor":0.800000011920929
			}
		}
	],
	"meshes":[
		{
			"name":"DoorWall",
			"primitives":[
				{
					"attributes":{
						"POSITION":0,
						"NORMAL":1,
						"TEXCOORD_0":2
					},
					"indices":3,
					"material":0
				}
			]
		}
	],
	"accessors":[
		{
			"bufferView":0,
			"componentType":5126,
			"count":2439,
			"max":[
				1.3005564212799072,
				0.8000000715255737,
				0.16019870340824127
			],
			"min":[
				-1.3005563020706177,
				-0.8000001907348633,
				-0.1600007563829422
			],
			"type":"VEC3"
		},
		{
			"bufferView":1,
			"componentType":5126,
			"count":2439,
			"type":"VEC3"
		},
		{
			"bufferView":2,
			"componentType":5126,
			"count":2439,
			"type":"VEC2"
		},
		{
			"bufferView":3,
			"componentType":5123,
			"count":3711,
			"type":"SCALAR"
		}
	],
	"bufferViews":[
		{
			"buffer":0,
			"byteLength":29268,
			"byteOffset":0,
			"target":34962
		},
		{
			"buffer":0,
			"byteLength":29268,
			"byteOffset":29268,
			"target":34962
		},
		{
			"buffer":0,
			"byteLength":19512,
			"byteOffset":58536,
			"target":34962
		},
		{
			"buffer":0,
			"byteLength":7422,
			"byteOffset":78048,
			"target":34963
		}
	],
	"buffers":[
		{
			"byteLength":85472,
			"uri":"DoorWallUpper.bin"
		}
	]
}
