{
	"asset":{
		"generator":"Khronos glTF Blender I/O v5.0.21",
		"version":"2.0"
	},
	"scene":0,
	"scenes":[
		{
			"name":"Scene",
			"nodes":[
				33
			]
		}
	],
	"nodes":[
		{
			"mesh":0,
			"name":"HelmetTail",
			"translation":[
				-0.09451249986886978,
				0.28619101643562317,
				-0.23407123982906342
			]
		},
		{
			"children":[
				0
			],
			"mesh":1,
			"name":"Helmet"
		},
		{
			"children":[
				1
			],
			"mesh":2,
			"name":"Head",
			"rotation":[
				-6.717942824252532e-08,
				-1.1920931797249068e-07,
				3.2415758721371465e-22,
				1
			],
			"scale":[
				1,
				1.000000238418579,
				1.0000001192092896
			],
			"translation":[
				-8.337283635825518e-14,
				0.1267836093902588,
				9.611248970031738e-07
			]
		},
		{
			"children":[
				2
			],
			"name":"HeadBone",
			"rotation":[
				-2.1050884627571605e-14,
				7.054825989424753e-23,
				-4.947581308974899e-21,
				1
			],
			"translation":[
				9.529120656610879e-22,
				0.06843233108520508,
				-5.329070094684278e-15
			]
		},
		{
			"children":[
				3
			],
			"name":"NeckBone",
			"rotation":[
				1.237742140768397e-14,
				7.054831038134546e-23,
				2.80579663777987e-21,
				1
			],
			"translation":[
				3.1763735522036263e-22,
				0.43725109100341797,
				-1.7763566276420137e-15
			]
		},
		{
			"name":"HandLeft",
			"rotation":[
				5.2535465755454425e-08,
				-3.778935919740434e-08,
				-0.1647966504096985,
				0.986327588558197
			],
			"scale":[
				0.9999999403953552,
				0.9999999403953552,
				1
			],
			"translation":[
				4.4703465817974575e-08,
				0.1983671337366104,
				-1.0658141036401503e-14
			]
		},
		{
			"mesh":3,
			"name":"HandLeft",
			"rotation":[
				-1.0536709282860102e-07,
				-8.429370268459024e-08,
				0.9964056015014648,
				0.08471079915761948
			],
			"scale":[
				1.0000007152557373,
				1.0000003576278687,
				1.0000001192092896
			],
			"translation":[
				0.02414374053478241,
				0.20210671424865723,
				1.4901161193847656e-07
			]
		},
		{
			"children":[
				5,
				6
			],
			"name":"ArmLowerLeftBone",
			"rotation":[
				1.8985511474056693e-07,
				-2.0660282018525322e-07,
				-0.27974388003349304,
				0.9600746631622314
			],
			"scale":[
				0.9999999403953552,
				0.9999999403953552,
				1
			],
			"translation":[
				-2.9802340151263707e-08,
				0.20235079526901245,
				4.973799150320701e-14
			]
		},
		{
			"children":[
				7
			],
			"name":"ArmUpperLeftBone",
			"rotation":[
				1.7759168713382678e-07,
				-1.9693670694209686e-08,
				-0.2842700481414795,
				0.9587442278862
			],
			"translation":[
				9.685754065458241e-08,
				0.24234500527381897,
				-7.105427357601002e-14
			]
		},
		{
			"children":[
				8
			],
			"name":"ShoulderLeftBone",
			"rotation":[
				3.5772694673141814e-07,
				1.5480141257739888e-07,
				-0.7966711521148682,
				0.6044130325317383
			],
			"translation":[
				-2.3187526931086472e-20,
				0.43725109100341797,
				-1.7763566276420137e-15
			]
		},
		{
			"name":"HandRight",
			"rotation":[
				4.3117466930198134e-08,
				-6.648333794601058e-08,
				0.1647966504096985,
				0.986327588558197
			],
			"scale":[
				0.9999999403953552,
				0.9999999403953552,
				1
			],
			"translation":[
				-4.470348358154297e-08,
				0.1983671337366104,
				-7.105427357601002e-15
			]
		},
		{
			"mesh":4,
			"name":"HandRight",
			"rotation":[
				-1.0536710703945573e-07,
				8.429371689544496e-08,
				-0.9964056015014648,
				0.08471079915761948
			],
			"scale":[
				1.0000007152557373,
				1.0000003576278687,
				1.0000001192092896
			],
			"translation":[
				-0.03431408852338791,
				0.2505728602409363,
				-0.007984146475791931
			]
		},
		{
			"children":[
				10,
				11
			],
			"name":"ArmLowerRightBone",
			"rotation":[
				1.8684467306684382e-07,
				2.438513604374748e-07,
				0.27974388003349304,
				0.9600746631622314
			],
			"scale":[
				0.9999999403953552,
				0.9999999403953552,
				1
			],
			"translation":[
				2.9802309953197437e-08,
				0.20235079526901245,
				5.329070518200751e-15
			]
		},
		{
			"children":[
				12
			],
			"name":"ArmUpperRightBone",
			"rotation":[
				1.894694747761605e-07,
				3.2874059030518765e-08,
				0.2842700183391571,
				0.9587442278862
			],
			"translation":[
				-9.685756907629184e-08,
				0.24234500527381897,
				-5.5067062021407764e-14
			]
		},
		{
			"children":[
				13
			],
			"name":"ShoulderRightBone",
			"rotation":[
				1.6928321144860092e-07,
				-2.3266532878096768e-07,
				0.7966711521148682,
				0.6044130325317383
			],
			"translation":[
				3.1763735522036263e-22,
				0.43725109100341797,
				-1.7763566276420137e-15
			]
		},
		{
			"mesh":5,
			"name":"FootLeft",
			"rotation":[
				-0.5184895992279053,
				-0.4808000326156616,
				-0.5184895992279053,
				0.48080000281333923
			],
			"scale":[
				0.9999998807907104,
				1,
				1.0000001192092896
			],
			"translation":[
				-0.05257108062505722,
				0.017391281202435493,
				-0.1323901265859604
			]
		},
		{
			"children":[
				15
			],
			"name":"FootLeft",
			"rotation":[
				4.922576977151039e-07,
				-3.1643274667203514e-08,
				-0.7071067690849304,
				0.7071067690849304
			],
			"translation":[
				7.330172024921922e-10,
				0.33693328499794006,
				-4.903797812261246e-09
			]
		},
		{
			"children":[
				16
			],
			"name":"LegLowerLeftBone",
			"rotation":[
				-1.1882592687584292e-08,
				1.4134522530184768e-07,
				0.08143172413110733,
				0.99667888879776
			],
			"scale":[
				0.9999998807907104,
				0.9999998807907104,
				1
			],
			"translation":[
				3.3404319310648134e-09,
				0.2902296185493469,
				3.1397906496977157e-10
			]
		},
		{
			"children":[
				17
			],
			"name":"LegUpperLeftBone",
			"rotation":[
				-0.7064289450645447,
				-0.030963558703660965,
				-0.030963825061917305,
				0.7064281105995178
			],
			"translation":[
				5.322662310902615e-09,
				0.13222049176692963,
				-8.940695295223122e-08
			]
		},
		{
			"children":[
				18
			],
			"name":"FemurLeftBone",
			"rotation":[
				-0.49999964237213135,
				-0.5000002384185791,
				-0.49999988079071045,
				0.5000002980232239
			],
			"translation":[
				-2.541098841762901e-21,
				0,
				1.4210854715202004e-14
			]
		},
		{
			"mesh":6,
			"name":"FootRight",
			"rotation":[
				-0.5184908509254456,
				0.4807986915111542,
				0.5184906721115112,
				0.480798602104187
			],
			"scale":[
				0.9999997019767761,
				0.9999995231628418,
				0.9999995827674866
			],
			"translation":[
				0.0525718554854393,
				0.017392605543136597,
				-0.13205090165138245
			]
		},
		{
			"children":[
				20
			],
			"name":"FootRight",
			"rotation":[
				3.779869359732402e-07,
				5.768474409251212e-08,
				0.7071067690849304,
				0.7071067690849304
			],
			"translation":[
				-3.928885661252934e-09,
				0.3369334638118744,
				2.3877801069716043e-08
			]
		},
		{
			"children":[
				21
			],
			"name":"LegLowerRightBone",
			"rotation":[
				-1.9219445590579198e-08,
				-3.0482944168852555e-08,
				-0.08141542226076126,
				0.9966802597045898
			],
			"translation":[
				-1.846616015654945e-08,
				0.2902296483516693,
				-1.142191585756791e-08
			]
		},
		{
			"children":[
				22
			],
			"name":"LegUpperRightBone",
			"rotation":[
				-0.706429123878479,
				0.030957330018281937,
				0.03095761500298977,
				0.7064284086227417
			],
			"translation":[
				3.757422817329825e-09,
				0.13222052156925201,
				8.940698137394065e-08
			]
		},
		{
			"children":[
				23
			],
			"name":"FemurRightBone",
			"rotation":[
				-0.4999997019767761,
				0.5000001788139343,
				0.4999998211860657,
				0.5000003576278687
			]
		},
		{
			"mesh":7,
			"name":"Cape",
			"rotation":[
				-0.70710688829422,
				0,
				0,
				0.7071066498756409
			],
			"translation":[
				0,
				-0.26502010226249695,
				-0.18324899673461914
			]
		},
		{
			"children":[
				25
			],
			"mesh":8,
			"name":"Torso",
			"rotation":[
				-6.717942824252532e-08,
				-1.1920928955078125e-07,
				-2.117582368135751e-22,
				1
			],
			"scale":[
				1,
				1.0000001192092896,
				1.0000001192092896
			],
			"translation":[
				-2.0843217559893268e-14,
				0.2830764055252075,
				2.2351741790771484e-07
			]
		},
		{
			"children":[
				4,
				9,
				14,
				19,
				24,
				26
			],
			"name":"TorsoBone",
			"rotation":[
				-8.557131891961944e-09,
				1.2043152253227163e-07,
				-2.0610969172569138e-15,
				1
			],
			"translation":[
				0,
				-0.0020689964294433594,
				0
			]
		},
		{
			"name":"HandLeftIKController",
			"rotation":[
				-7.451571804040213e-08,
				1.2146762706777281e-08,
				0.9967423677444458,
				0.08065169304609299
			],
			"scale":[
				1,
				1,
				0.9999999403953552
			],
			"translation":[
				0.39758095145225525,
				0.021978557109832764,
				-4.70245282713222e-08
			]
		},
		{
			"name":"HandRightIKController",
			"rotation":[
				-1.8477095409252797e-07,
				-2.242479268943498e-08,
				-0.9967423677444458,
				0.08065169304609299
			],
			"translation":[
				-0.39758095145225525,
				0.021978557109832764,
				-4.70245282713222e-08
			]
		},
		{
			"name":"FootLeftIKController",
			"rotation":[
				0.5,
				0.5,
				0.5000001192092896,
				0.49999988079071045
			],
			"translation":[
				0.1322205364704132,
				-0.6271629333496094,
				0
			]
		},
		{
			"name":"FootRightIKController",
			"rotation":[
				-0.5,
				-0.5000000596046448,
				0.4999999403953552,
				0.5000000596046448
			],
			"translation":[
				-0.1322205364704132,
				-0.6271629333496094,
				0
			]
		},
		{
			"children":[
				27,
				28,
				29,
				30,
				31
			],
			"name":"PlayerArmature",
			"rotation":[
				0,
				1,
				0,
				7.549790126404332e-08
			],
			"translation":[
				0,
				0.6797356605529785,
				0
			]
		},
		{
			"children":[
				32
			],
			"name":"Player"
		}
	],
	"animations":[
		{
			"channels":[
				{
					"sampler":0,
					"target":{
						"node":27,
						"path":"translation"
					}
				},
				{
					"sampler":1,
					"target":{
						"node":27,
						"path":"rotation"
					}
				},
				{
					"sampler":2,
					"target":{
						"node":27,
						"path":"scale"
					}
				},
				{
					"sampler":3,
					"target":{
						"node":4,
						"path":"translation"
					}
				},
				{
					"sampler":4,
					"target":{
						"node":4,
						"path":"rotation"
					}
				},
				{
					"sampler":5,
					"target":{
						"node":4,
						"path":"scale"
					}
				},
				{
					"sampler":6,
					"target":{
						"node":3,
						"path":"translation"
					}
				},
				{
					"sampler":7,
					"target":{
						"node":3,
						"path":"rotation"
					}
				},
				{
					"sampler":8,
					"target":{
						"node":3,
						"path":"scale"
					}
				},
				{
					"sampler":9,
					"target":{
						"node":9,
						"path":"translation"
					}
				},
				{
					"sampler":10,
					"target":{
						"node":9,
						"path":"rotation"
					}
				},
				{
					"sampler":11,
					"target":{
						"node":9,
						"path":"scale"
					}
				},
				{
					"sampler":12,
					"target":{
						"node":8,
						"path":"translation"
					}
				},
				{
					"sampler":13,
					"target":{
						"node":8,
						"path":"rotation"
					}
				},
				{
					"sampler":14,
					"target":{
						"node":8,
						"path":"scale"
					}
				},
				{
					"sampler":15,
					"target":{
						"node":7,
						"path":"translation"
					}
				},
				{
					"sampler":16,
					"target":{
						"node":7,
						"path":"rotation"
					}
				},
				{
					"sampler":17,
					"target":{
						"node":7,
						"path":"scale"
					}
				},
				{
					"sampler":18,
					"target":{
						"node":5,
						"path":"translation"
					}
				},
				{
					"sampler":19,
					"target":{
						"node":5,
						"path":"rotation"
					}
				},
				{
					"sampler":20,
					"target":{
						"node":5,
						"path":"scale"
					}
				},
				{
					"sampler":21,
					"target":{
						"node":14,
						"path":"translation"
					}
				},
				{
					"sampler":22,
					"target":{
						"node":14,
						"path":"rotation"
					}
				},
				{
					"sampler":23,
					"target":{
						"node":14,
						"path":"scale"
					}
				},
				{
					"sampler":24,
					"target":{
						"node":13,
						"path":"translation"
					}
				},
				{
					"sampler":25,
					"target":{
						"node":13,
						"path":"rotation"
					}
				},
				{
					"sampler":26,
					"target":{
						"node":13,
						"path":"scale"
					}
				},
				{
					"sampler":27,
					"target":{
						"node":12,
						"path":"translation"
					}
				},
				{
					"sampler":28,
					"target":{
						"node":12,
						"path":"rotation"
					}
				},
				{
					"sampler":29,
					"target":{
						"node":12,
						"path":"scale"
					}
				},
				{
					"sampler":30,
					"target":{
						"node":10,
						"path":"translation"
					}
				},
				{
					"sampler":31,
					"target":{
						"node":10,
						"path":"rotation"
					}
				},
				{
					"sampler":32,
					"target":{
						"node":10,
						"path":"scale"
					}
				},
				{
					"sampler":33,
					"target":{
						"node":19,
						"path":"translation"
					}
				},
				{
					"sampler":34,
					"target":{
						"node":19,
						"path":"rotation"
					}
				},
				{
					"sampler":35,
					"target":{
						"node":19,
						"path":"scale"
					}
				},
				{
					"sampler":36,
					"target":{
						"node":18,
						"path":"translation"
					}
				},
				{
					"sampler":37,
					"target":{
						"node":18,
						"path":"rotation"
					}
				},
				{
					"sampler":38,
					"target":{
						"node":18,
						"path":"scale"
					}
				},
				{
					"sampler":39,
					"target":{
						"node":17,
						"path":"translation"
					}
				},
				{
					"sampler":40,
					"target":{
						"node":17,
						"path":"rotation"
					}
				},
				{
					"sampler":41,
					"target":{
						"node":17,
						"path":"scale"
					}
				},
				{
					"sampler":42,
					"target":{
						"node":16,
						"path":"translation"
					}
				},
				{
					"sampler":43,
					"target":{
						"node":16,
						"path":"rotation"
					}
				},
				{
					"sampler":44,
					"target":{
						"node":16,
						"path":"scale"
					}
				},
				{
					"sampler":45,
					"target":{
						"node":24,
						"path":"translation"
					}
				},
				{
					"sampler":46,
					"target":{
						"node":24,
						"path":"rotation"
					}
				},
				{
					"sampler":47,
					"target":{
						"node":24,
						"path":"scale"
					}
				},
				{
					"sampler":48,
					"target":{
						"node":23,
						"path":"translation"
					}
				},
				{
					"sampler":49,
					"target":{
						"node":23,
						"path":"rotation"
					}
				},
				{
					"sampler":50,
					"target":{
						"node":23,
						"path":"scale"
					}
				},
				{
					"sampler":51,
					"target":{
						"node":22,
						"path":"translation"
					}
				},
				{
					"sampler":52,
					"target":{
						"node":22,
						"path":"rotation"
					}
				},
				{
					"sampler":53,
					"target":{
						"node":22,
						"path":"scale"
					}
				},
				{
					"sampler":54,
					"target":{
						"node":21,
						"path":"translation"
					}
				},
				{
					"sampler":55,
					"target":{
						"node":21,
						"path":"rotation"
					}
				},
				{
					"sampler":56,
					"target":{
						"node":21,
						"path":"scale"
					}
				},
				{
					"sampler":57,
					"target":{
						"node":28,
						"path":"translation"
					}
				},
				{
					"sampler":58,
					"target":{
						"node":28,
						"path":"rotation"
					}
				},
				{
					"sampler":59,
					"target":{
						"node":28,
						"path":"scale"
					}
				},
				{
					"sampler":60,
					"target":{
						"node":29,
						"path":"translation"
					}
				},
				{
					"sampler":61,
					"target":{
						"node":29,
						"path":"rotation"
					}
				},
				{
					"sampler":62,
					"target":{
						"node":29,
						"path":"scale"
					}
				},
				{
					"sampler":63,
					"target":{
						"node":30,
						"path":"translation"
					}
				},
				{
					"sampler":64,
					"target":{
						"node":30,
						"path":"rotation"
					}
				},
				{
					"sampler":65,
					"target":{
						"node":30,
						"path":"scale"
					}
				},
				{
					"sampler":66,
					"target":{
						"node":31,
						"path":"translation"
					}
				},
				{
					"sampler":67,
					"target":{
						"node":31,
						"path":"rotation"
					}
				},
				{
					"sampler":68,
					"target":{
						"node":31,
						"path":"scale"
					}
				}
			],
			"name":"RunningAnimation",
			"samplers":[
				{
					"input":36,
					"interpolation":"STEP",
					"output":37
				},
				{
					"input":36,
					"interpolation":"STEP",
					"output":38
				},
				{
					"input":36,
					"interpolation":"STEP",
					"output":39
				},
				{
					"input":36,
					"interpolation":"STEP",
					"output":40
				},
				{
					"input":36,
					"interpolation":"STEP",
					"output":41
				},
				{
					"input":36,
					"interpolation":"STEP",
					"output":39
				},
				{
					"input":36,
					"interpolation":"STEP",
					"output":42
				},
				{
					"input":36,
					"interpolation":"STEP",
					"output":43
				},
				{
					"input":36,
					"interpolation":"STEP",
					"output":44
				},
				{
					"input":36,
					"interpolation":"STEP",
					"output":45
				},
				{
					"input":36,
					"interpolation":"STEP",
					"output":46
				},
				{
					"input":36,
					"interpolation":"STEP",
					"output":44
				},
				{
					"input":36,
					"interpolation":"STEP",
					"output":47
				},
				{
					"input":36,
					"interpolation":"STEP",
					"output":48
				},
				{
					"input":36,
					"interpolation":"STEP",
					"output":44
				},
				{
					"input":36,
					"interpolation":"STEP",
					"output":49
				},
				{
					"input":36,
					"interpolation":"STEP",
					"output":50
				},
				{
					"input":36,
					"interpolation":"STEP",
					"output":51
				},
				{
					"input":36,
					"interpolation":"STEP",
					"output":52
				},
				{
					"input":36,
					"interpolation":"STEP",
					"output":53
				},
				{
					"input":36,
					"interpolation":"STEP",
					"output":54
				},
				{
					"input":36,
					"interpolation":"STEP",
					"output":55
				},
				{
					"input":36,
					"interpolation":"STEP",
					"output":56
				},
				{
					"input":36,
					"interpolation":"STEP",
					"output":44
				},
				{
					"input":36,
					"interpolation":"STEP",
					"output":57
				},
				{
					"input":36,
					"interpolation":"STEP",
					"output":58
				},
				{
					"input":36,
					"interpolation":"STEP",
					"output":59
				},
				{
					"input":36,
					"interpolation":"STEP",
					"output":60
				},
				{
					"input":36,
					"interpolation":"STEP",
					"output":61
				},
				{
					"input":36,
					"interpolation":"STEP",
					"output":51
				},
				{
					"input":36,
					"interpolation":"STEP",
					"output":62
				},
				{
					"input":36,
					"interpolation":"STEP",
					"output":63
				},
				{
					"input":36,
					"interpolation":"STEP",
					"output":54
				},
				{
					"input":36,
					"interpolation":"STEP",
					"output":64
				},
				{
					"input":36,
					"interpolation":"STEP",
					"output":65
				},
				{
					"input":36,
					"interpolation":"STEP",
					"output":44
				},
				{
					"input":36,
					"interpolation":"STEP",
					"output":66
				},
				{
					"input":36,
					"interpolation":"STEP",
					"output":67
				},
				{
					"input":36,
					"interpolation":"STEP",
					"output":68
				},
				{
					"input":36,
					"interpolation":"STEP",
					"output":69
				},
				{
					"input":36,
					"interpolation":"STEP",
					"output":70
				},
				{
					"input":36,
					"interpolation":"STEP",
					"output":71
				},
				{
					"input":36,
					"interpolation":"STEP",
					"output":72
				},
				{
					"input":36,
					"interpolation":"STEP",
					"output":73
				},
				{
					"input":36,
					"interpolation":"STEP",
					"output":39
				},
				{
					"input":36,
					"interpolation":"STEP",
					"output":74
				},
				{
					"input":36,
					"interpolation":"STEP",
					"output":75
				},
				{
					"input":36,
					"interpolation":"STEP",
					"output":39
				},
				{
					"input":36,
					"interpolation":"STEP",
					"output":76
				},
				{
					"input":36,
					"interpolation":"STEP",
					"output":77
				},
				{
					"input":36,
					"interpolation":"STEP",
					"output":78
				},
				{
					"input":36,
					"interpolation":"STEP",
					"output":79
				},
				{
					"input":36,
					"interpolation":"STEP",
					"output":80
				},
				{
					"input":36,
					"interpolation":"STEP",
					"output":39
				},
				{
					"input":36,
					"interpolation":"STEP",
					"output":81
				},
				{
					"input":36,
					"interpolation":"STEP",
					"output":82
				},
				{
					"input":36,
					"interpolation":"STEP",
					"output":39
				},
				{
					"input":36,
					"interpolation":"STEP",
					"output":83
				},
				{
					"input":36,
					"interpolation":"STEP",
					"output":84
				},
				{
					"input":36,
					"interpolation":"STEP",
					"output":85
				},
				{
					"input":36,
					"interpolation":"STEP",
					"output":86
				},
				{
					"input":36,
					"interpolation":"STEP",
					"output":87
				},
				{
					"input":36,
					"interpolation":"STEP",
					"output":44
				},
				{
					"input":36,
					"interpolation":"STEP",
					"output":88
				},
				{
					"input":36,
					"interpolation":"STEP",
					"output":89
				},
				{
					"input":36,
					"interpolation":"STEP",
					"output":39
				},
				{
					"input":36,
					"interpolation":"STEP",
					"output":90
				},
				{
					"input":36,
					"interpolation":"STEP",
					"output":91
				},
				{
					"input":36,
					"interpolation":"STEP",
					"output":44
				}
			]
		}
	],
	"materials":[
		{
			"doubleSided":true,
			"name":"PlayerMaterial",
			"pbrMetallicRoughness":{
				"baseColorTexture":{
					"index":0
				},
				"metallicFactor":0,
				"metallicRoughnessTexture":{
					"index":1
				}
			}
		}
	],
	"meshes":[
		{
			"name":"Cylinder.001",
			"primitives":[
				{
					"attributes":{
						"POSITION":0,
						"NORMAL":1,
						"TEXCOORD_0":2
					},
					"indices":3,
					"material":0
				}
			]
		},
		{
			"name":"Sphere.004",
			"primitives":[
				{
					"attributes":{
						"POSITION":4,
						"NORMAL":5,
						"TEXCOORD_0":6
					},
					"indices":7,
					"material":0
				}
			]
		},
		{
			"name":"Sphere",
			"primitives":[
				{
					"attributes":{
						"POSITION":8,
						"NORMAL":9,
						"TEXCOORD_0":10
					},
					"indices":11,
					"material":0
				}
			]
		},
		{
			"name":"Cube.011",
			"primitives":[
				{
					"attributes":{
						"POSITION":12,
						"NORMAL":13,
						"TEXCOORD_0":14
					},
					"indices":15,
					"material":0
				}
			]
		},
		{
			"name":"Cube.013",
			"primitives":[
				{
					"attributes":{
						"POSITION":16,
						"NORMAL":17,
						"TEXCOORD_0":18
					},
					"indices":19,
					"material":0
				}
			]
		},
		{
			"name":"Cylinder.003",
			"primitives":[
				{
					"attributes":{
						"POSITION":20,
						"NORMAL":21,
						"TEXCOORD_0":22
					},
					"indices":23,
					"material":0
				}
			]
		},
		{
			"name":"Cylinder",
			"primitives":[
				{
					"attributes":{
						"POSITION":24,
						"NORMAL":25,
						"TEXCOORD_0":26
					},
					"indices":27,
					"material":0
				}
			]
		},
		{
			"name":"Plane.001",
			"primitives":[
				{
					"attributes":{
						"POSITION":28,
						"NORMAL":29,
						"TEXCOORD_0":30
					},
					"indices":31,
					"material":0
				}
			]
		},
		{
			"name":"Cube.003",
			"primitives":[
				{
					"attributes":{
						"POSITION":32,
						"NORMAL":33,
						"TEXCOORD_0":34
					},
					"indices":35,
					"material":0
				}
			]
		}
	],
	"textures":[
		{
			"sampler":0,
			"source":0
		},
		{
			"sampler":1,
			"source":1
		}
	],
	"images":[
		{
			"mimeType":"image/png",
			"name":"main-texture",
			"uri":"../../../textures/main-texture.png"
		},
		{
			"mimeType":"image/png",
			"name":"main_roughness",
			"uri":"../../../textures/main_roughness.png"
		}
	],
	"skins":[
		{
			"inverseBindMatrices":92,
			"joints":[
				27,
				4,
				3,
				9,
				8,
				7,
				5,
				14,
				13,
				12,
				10,
				19,
				18,
				17,
				16,
				24,
				23,
				22,
				21,
				28,
				29,
				30,
				31
			],
			"name":"PlayerArmature"
		}
	],
	"accessors":[
		{
			"bufferView":0,
			"componentType":5126,
			"count":353,
			"max":[
				0.11403200030326843,
				9.366136509925127e-05,
				0.11420870572328568
			],
			"min":[
				-0.03441842645406723,
				-0.23520056903362274,
				-0.17281316220760345
			],
			"type":"VEC3"
		},
		{
			"bufferView":1,
			"componentType":5126,
			"count":353,
			"type":"VEC3"
		},
		{
			"bufferView":2,
			"componentType":5126,
			"count":353,
			"type":"VEC2"
		},
		{
			"bufferView":3,
			"componentType":5123,
			"count":540,
			"type":"SCALAR"
		},
		{
			"bufferView":4,
			"componentType":5126,
			"count":556,
			"max":[
				0.1518649160861969,
				0.19793801009655,
				0.1834573894739151
			],
			"min":[
				-0.1518649160861969,
				-0.08933021128177643,
				-0.18504448235034943
			],
			"type":"VEC3"
		},
		{
			"bufferView":5,
			"componentType":5126,
			"count":556,
			"type":"VEC3"
		},
		{
			"bufferView":6,
			"componentType":5126,
			"count":556,
			"type":"VEC2"
		},
		{
			"bufferView":7,
			"componentType":5123,
			"count":1062,
			"type":"SCALAR"
		},
		{
			"bufferView":8,
			"componentType":5126,
			"count":240,
			"max":[
				0.12021489441394806,
				0.15417465567588806,
				0.15417465567588806
			],
			"min":[
				-0.12021489441394806,
				-0.15417465567588806,
				-0.15417465567588806
			],
			"type":"VEC3"
		},
		{
			"bufferView":9,
			"componentType":5126,
			"count":240,
			"type":"VEC3"
		},
		{
			"bufferView":10,
			"componentType":5126,
			"count":240,
			"type":"VEC2"
		},
		{
			"bufferView":11,
			"componentType":5123,
			"count":336,
			"type":"SCALAR"
		},
		{
			"bufferView":12,
			"componentType":5126,
			"count":180,
			"max":[
				0.05709990859031677,
				0.040942613035440445,
				0.06663647294044495
			],
			"min":[
				-0.04219990596175194,
				-0.14869730174541473,
				-0.05648580193519592
			],
			"type":"VEC3"
		},
		{
			"bufferView":13,
			"componentType":5126,
			"count":180,
			"type":"VEC3"
		},
		{
			"bufferView":14,
			"componentType":5126,
			"count":180,
			"type":"VEC2"
		},
		{
			"bufferView":15,
			"componentType":5123,
			"count":348,
			"type":"SCALAR"
		},
		{
			"bufferView":16,
			"componentType":5126,
			"count":246,
			"max":[
				0.058893583714962006,
				0.09043020009994507,
				0.07462111115455627
			],
			"min":[
				-0.06950339674949646,
				-0.04903122037649155,
				-0.059610433876514435
			],
			"type":"VEC3"
		},
		{
			"bufferView":17,
			"componentType":5126,
			"count":246,
			"type":"VEC3"
		},
		{
			"bufferView":18,
			"componentType":5126,
			"count":246,
			"type":"VEC2"
		},
		{
			"bufferView":19,
			"componentType":5123,
			"count":444,
			"type":"SCALAR"
		},
		{
			"bufferView":20,
			"componentType":5126,
			"count":137,
			"max":[
				0.19361941516399384,
				0.09651269018650055,
				0.25053152441978455
			],
			"min":[
				0.053619422018527985,
				-0.007927989587187767,
				-0.08204584568738937
			],
			"type":"VEC3"
		},
		{
			"bufferView":21,
			"componentType":5126,
			"count":137,
			"type":"VEC3"
		},
		{
			"bufferView":22,
			"componentType":5126,
			"count":137,
			"type":"VEC2"
		},
		{
			"bufferView":23,
			"componentType":5123,
			"count":204,
			"type":"SCALAR"
		},
		{
			"bufferView":24,
			"componentType":5126,
			"count":137,
			"max":[
				-0.05361942946910858,
				0.09651274234056473,
				0.2505316436290741
			],
			"min":[
				-0.19361944496631622,
				-0.00792799424380064,
				-0.08204587548971176
			],
			"type":"VEC3"
		},
		{
			"bufferView":25,
			"componentType":5126,
			"count":137,
			"type":"VEC3"
		},
		{
			"bufferView":26,
			"componentType":5126,
			"count":137,
			"type":"VEC2"
		},
		{
			"bufferView":27,
			"componentType":5123,
			"count":204,
			"type":"SCALAR"
		},
		{
			"bufferView":28,
			"componentType":5126,
			"count":238,
			"max":[
				0.21025905013084412,
				-0.0008176416158676147,
				0.4474460482597351
			],
			"min":[
				-0.21025905013084412,
				-0.19346632063388824,
				-0.46405887603759766
			],
			"type":"VEC3"
		},
		{
			"bufferView":29,
			"componentType":5126,
			"count":238,
			"type":"VEC3"
		},
		{
			"bufferView":30,
			"componentType":5126,
			"count":238,
			"type":"VEC2"
		},
		{
			"bufferView":31,
			"componentType":5123,
			"count":318,
			"type":"SCALAR"
		},
		{
			"bufferView":32,
			"componentType":5126,
			"count":759,
			"max":[
				0.23338712751865387,
				0.17363318800926208,
				0.11563099175691605
			],
			"min":[
				-0.23338712751865387,
				-0.2830764353275299,
				-0.11563099175691605
			],
			"type":"VEC3"
		},
		{
			"bufferView":33,
			"componentType":5126,
			"count":759,
			"type":"VEC3"
		},
		{
			"bufferView":34,
			"componentType":5126,
			"count":759,
			"type":"VEC2"
		},
		{
			"bufferView":35,
			"componentType":5123,
			"count":1872,
			"type":"SCALAR"
		},
		{
			"bufferView":36,
			"componentType":5126,
			"count":2,
			"max":[
				0.8333333333333334
			],
			"min":[
				0
			],
			"type":"SCALAR"
		},
		{
			"bufferView":37,
			"componentType":5126,
			"count":2,
			"type":"VEC3"
		},
		{
			"bufferView":38,
			"componentType":5126,
			"count":2,
			"type":"VEC4"
		},
		{
			"bufferView":39,
			"componentType":5126,
			"count":2,
			"type":"VEC3"
		},
		{
			"bufferView":40,
			"componentType":5126,
			"count":2,
			"type":"VEC3"
		},
		{
			"bufferView":41,
			"componentType":5126,
			"count":2,
			"type":"VEC4"
		},
		{
			"bufferView":42,
			"componentType":5126,
			"count":2,
			"type":"VEC3"
		},
		{
			"bufferView":43,
			"componentType":5126,
			"count":2,
			"type":"VEC4"
		},
		{
			"bufferView":44,
			"componentType":5126,
			"count":2,
			"type":"VEC3"
		},
		{
			"bufferView":45,
			"componentType":5126,
			"count":2,
			"type":"VEC3"
		},
		{
			"bufferView":46,
			"componentType":5126,
			"count":2,
			"type":"VEC4"
		},
		{
			"bufferView":47,
			"componentType":5126,
			"count":2,
			"type":"VEC3"
		},
		{
			"bufferView":48,
			"componentType":5126,
			"count":2,
			"type":"VEC4"
		},
		{
			"bufferView":49,
			"componentType":5126,
			"count":2,
			"type":"VEC3"
		},
		{
			"bufferView":50,
			"componentType":5126,
			"count":2,
			"type":"VEC4"
		},
		{
			"bufferView":51,
			"componentType":5126,
			"count":2,
			"type":"VEC3"
		},
		{
			"bufferView":52,
			"componentType":5126,
			"count":2,
			"type":"VEC3"
		},
		{
			"bufferView":53,
			"componentType":5126,
			"count":2,
			"type":"VEC4"
		},
		{
			"bufferView":54,
			"componentType":5126,
			"count":2,
			"type":"VEC3"
		},
		{
			"bufferView":55,
			"componentType":5126,
			"count":2,
			"type":"VEC3"
		},
		{
			"bufferView":56,
			"componentType":5126,
			"count":2,
			"type":"VEC4"
		},
		{
			"bufferView":57,
			"componentType":5126,
			"count":2,
			"type":"VEC3"
		},
		{
			"bufferView":58,
			"componentType":5126,
			"count":2,
			"type":"VEC4"
		},
		{
			"bufferView":59,
			"componentType":5126,
			"count":2,
			"type":"VEC3"
		},
		{
			"bufferView":60,
			"componentType":5126,
			"count":2,
			"type":"VEC3"
		},
		{
			"bufferView":61,
			"componentType":5126,
			"count":2,
			"type":"VEC4"
		},
		{
			"bufferView":62,
			"componentType":5126,
			"count":2,
			"type":"VEC3"
		},
		{
			"bufferView":63,
			"componentType":5126,
			"count":2,
			"type":"VEC4"
		},
		{
			"bufferView":64,
			"componentType":5126,
			"count":2,
			"type":"VEC3"
		},
		{
			"bufferView":65,
			"componentType":5126,
			"count":2,
			"type":"VEC4"
		},
		{
			"bufferView":66,
			"componentType":5126,
			"count":2,
			"type":"VEC3"
		},
		{
			"bufferView":67,
			"componentType":5126,
			"count":2,
			"type":"VEC4"
		},
		{
			"bufferView":68,
			"componentType":5126,
			"count":2,
			"type":"VEC3"
		},
		{
			"bufferView":69,
			"componentType":5126,
			"count":2,
			"type":"VEC3"
		},
		{
			"bufferView":70,
			"componentType":5126,
			"count":2,
			"type":"VEC4"
		},
		{
			"bufferView":71,
			"componentType":5126,
			"count":2,
			"type":"VEC3"
		},
		{
			"bufferView":72,
			"componentType":5126,
			"count":2,
			"type":"VEC3"
		},
		{
			"bufferView":73,
			"componentType":5126,
			"count":2,
			"type":"VEC4"
		},
		{
			"bufferView":74,
			"componentType":5126,
			"count":2,
			"type":"VEC3"
		},
		{
			"bufferView":75,
			"componentType":5126,
			"count":2,
			"type":"VEC4"
		},
		{
			"bufferView":76,
			"componentType":5126,
			"count":2,
			"type":"VEC3"
		},
		{
			"bufferView":77,
			"componentType":5126,
			"count":2,
			"type":"VEC4"
		},
		{
			"bufferView":78,
			"componentType":5126,
			"count":2,
			"type":"VEC3"
		},
		{
			"bufferView":79,
			"componentType":5126,
			"count":2,
			"type":"VEC3"
		},
		{
			"bufferView":80,
			"componentType":5126,
			"count":2,
			"type":"VEC4"
		},
		{
			"bufferView":81,
			"componentType":5126,
			"count":2,
			"type":"VEC3"
		},
		{
			"bufferView":82,
			"componentType":5126,
			"count":2,
			"type":"VEC4"
		},
		{
			"bufferView":83,
			"componentType":5126,
			"count":2,
			"type":"VEC3"
		},
		{
			"bufferView":84,
			"componentType":5126,
			"count":2,
			"type":"VEC4"
		},
		{
			"bufferView":85,
			"componentType":5126,
			"count":2,
			"type":"VEC3"
		},
		{
			"bufferView":86,
			"componentType":5126,
			"count":2,
			"type":"VEC3"
		},
		{
			"bufferView":87,
			"componentType":5126,
			"count":2,
			"type":"VEC4"
		},
		{
			"bufferView":88,
			"componentType":5126,
			"count":2,
			"type":"VEC3"
		},
		{
			"bufferView":89,
			"componentType":5126,
			"count":2,
			"type":"VEC4"
		},
		{
			"bufferView":90,
			"componentType":5126,
			"count":2,
			"type":"VEC3"
		},
		{
			"bufferView":91,
			"componentType":5126,
			"count":2,
			"type":"VEC4"
		},
		{
			"bufferView":92,
			"componentType":5126,
			"count":23,
			"type":"MAT4"
		}
	],
	"bufferViews":[
		{
			"buffer":0,
			"byteLength":4236,
			"byteOffset":0,
			"target":34962
		},
		{
			"buffer":0,
			"byteLength":4236,
			"byteOffset":4236,
			"target":34962
		},
		{
			"buffer":0,
			"byteLength":2824,
			"byteOffset":8472,
			"target":34962
		},
		{
			"buffer":0,
			"byteLength":1080,
			"byteOffset":11296,
			"target":34963
		},
		{
			"buffer":0,
			"byteLength":6672,
			"byteOffset":12376,
			"target":34962
		},
		{
			"buffer":0,
			"byteLength":6672,
			"byteOffset":19048,
			"target":34962
		},
		{
			"buffer":0,
			"byteLength":4448,
			"byteOffset":25720,
			"target":34962
		},
		{
			"buffer":0,
			"byteLength":2124,
			"byteOffset":30168,
			"target":34963
		},
		{
			"buffer":0,
			"byteLength":2880,
			"byteOffset":32292,
			"target":34962
		},
		{
			"buffer":0,
			"byteLength":2880,
			"byteOffset":35172,
			"target":34962
		},
		{
			"buffer":0,
			"byteLength":1920,
			"byteOffset":38052,
			"target":34962
		},
		{
			"buffer":0,
			"byteLength":672,
			"byteOffset":39972,
			"target":34963
		},
		{
			"buffer":0,
			"byteLength":2160,
			"byteOffset":40644,
			"target":34962
		},
		{
			"buffer":0,
			"byteLength":2160,
			"byteOffset":42804,
			"target":34962
		},
		{
			"buffer":0,
			"byteLength":1440,
			"byteOffset":44964,
			"target":34962
		},
		{
			"buffer":0,
			"byteLength":696,
			"byteOffset":46404,
			"target":34963
		},
		{
			"buffer":0,
			"byteLength":2952,
			"byteOffset":47100,
			"target":34962
		},
		{
			"buffer":0,
			"byteLength":2952,
			"byteOffset":50052,
			"target":34962
		},
		{
			"buffer":0,
			"byteLength":1968,
			"byteOffset":53004,
			"target":34962
		},
		{
			"buffer":0,
			"byteLength":888,
			"byteOffset":54972,
			"target":34963
		},
		{
			"buffer":0,
			"byteLength":1644,
			"byteOffset":55860,
			"target":34962
		},
		{
			"buffer":0,
			"byteLength":1644,
			"byteOffset":57504,
			"target":34962
		},
		{
			"buffer":0,
			"byteLength":1096,
			"byteOffset":59148,
			"target":34962
		},
		{
			"buffer":0,
			"byteLength":408,
			"byteOffset":60244,
			"target":34963
		},
		{
			"buffer":0,
			"byteLength":1644,
			"byteOffset":60652,
			"target":34962
		},
		{
			"buffer":0,
			"byteLength":1644,
			"byteOffset":62296,
			"target":34962
		},
		{
			"buffer":0,
			"byteLength":1096,
			"byteOffset":63940,
			"target":34962
		},
		{
			"buffer":0,
			"byteLength":408,
			"byteOffset":65036,
			"target":34963
		},
		{
			"buffer":0,
			"byteLength":2856,
			"byteOffset":65444,
			"target":34962
		},
		{
			"buffer":0,
			"byteLength":2856,
			"byteOffset":68300,
			"target":34962
		},
		{
			"buffer":0,
			"byteLength":1904,
			"byteOffset":71156,
			"target":34962
		},
		{
			"buffer":0,
			"byteLength":636,
			"byteOffset":73060,
			"target":34963
		},
		{
			"buffer":0,
			"byteLength":9108,
			"byteOffset":73696,
			"target":34962
		},
		{
			"buffer":0,
			"byteLength":9108,
			"byteOffset":82804,
			"target":34962
		},
		{
			"buffer":0,
			"byteLength":6072,
			"byteOffset":91912,
			"target":34962
		},
		{
			"buffer":0,
			"byteLength":3744,
			"byteOffset":97984,
			"target":34963
		},
		{
			"buffer":0,
			"byteLength":8,
			"byteOffset":101728
		},
		{
			"buffer":0,
			"byteLength":24,
			"byteOffset":101736
		},
		{
			"buffer":0,
			"byteLength":32,
			"byteOffset":101760
		},
		{
			"buffer":0,
			"byteLength":24,
			"byteOffset":101792
		},
		{
			"buffer":0,
			"byteLength":24,
			"byteOffset":101816
		},
		{
			"buffer":0,
			"byteLength":32,
			"byteOffset":101840
		},
		{
			"buffer":0,
			"byteLength":24,
			"byteOffset":101872
		},
		{
			"buffer":0,
			"byteLength":32,
			"byteOffset":101896
		},
		{
			"buffer":0,
			"byteLength":24,
			"byteOffset":101928
		},
		{
			"buffer":0,
			"byteLength":24,
			"byteOffset":101952
		},
		{
			"buffer":0,
			"byteLength":32,
			"byteOffset":101976
		},
		{
			"buffer":0,
			"byteLength":24,
			"byteOffset":102008
		},
		{
			"buffer":0,
			"byteLength":32,
			"byteOffset":102032
		},
		{
			"buffer":0,
			"byteLength":24,
			"byteOffset":102064
		},
		{
			"buffer":0,
			"byteLength":32,
			"byteOffset":102088
		},
		{
			"buffer":0,
			"byteLength":24,
			"byteOffset":102120
		},
		{
			"buffer":0,
			"byteLength":24,
			"byteOffset":102144
		},
		{
			"buffer":0,
			"byteLength":32,
			"byteOffset":102168
		},
		{
			"buffer":0,
			"byteLength":24,
			"byteOffset":102200
		},
		{
			"buffer":0,
			"byteLength":24,
			"byteOffset":102224
		},
		{
			"buffer":0,
			"byteLength":32,
			"byteOffset":102248
		},
		{
			"buffer":0,
			"byteLength":24,
			"byteOffset":102280
		},
		{
			"buffer":0,
			"byteLength":32,
			"byteOffset":102304
		},
		{
			"buffer":0,
			"byteLength":24,
			"byteOffset":102336
		},
		{
			"buffer":0,
			"byteLength":24,
			"byteOffset":102360
		},
		{
			"buffer":0,
			"byteLength":32,
			"byteOffset":102384
		},
		{
			"buffer":0,
			"byteLength":24,
			"byteOffset":102416
		},
		{
			"buffer":0,
			"byteLength":32,
			"byteOffset":102440
		},
		{
			"buffer":0,
			"byteLength":24,
			"byteOffset":102472
		},
		{
			"buffer":0,
			"byteLength":32,
			"byteOffset":102496
		},
		{
			"buffer":0,
			"byteLength":24,
			"byteOffset":102528
		},
		{
			"buffer":0,
			"byteLength":32,
			"byteOffset":102552
		},
		{
			"buffer":0,
			"byteLength":24,
			"byteOffset":102584
		},
		{
			"buffer":0,
			"byteLength":24,
			"byteOffset":102608
		},
		{
			"buffer":0,
			"byteLength":32,
			"byteOffset":102632
		},
		{
			"buffer":0,
			"byteLength":24,
			"byteOffset":102664
		},
		{
			"buffer":0,
			"byteLength":24,
			"byteOffset":102688
		},
		{
			"buffer":0,
			"byteLength":32,
			"byteOffset":102712
		},
		{
			"buffer":0,
			"byteLength":24,
			"byteOffset":102744
		},
		{
			"buffer":0,
			"byteLength":32,
			"byteOffset":102768
		},
		{
			"buffer":0,
			"byteLength":24,
			"byteOffset":102800
		},
		{
			"buffer":0,
			"byteLength":32,
			"byteOffset":102824
		},
		{
			"buffer":0,
			"byteLength":24,
			"byteOffset":102856
		},
		{
			"buffer":0,
			"byteLength":24,
			"byteOffset":102880
		},
		{
			"buffer":0,
			"byteLength":32,
			"byteOffset":102904
		},
		{
			"buffer":0,
			"byteLength":24,
			"byteOffset":102936
		},
		{
			"buffer":0,
			"byteLength":32,
			"byteOffset":102960
		},
		{
			"buffer":0,
			"byteLength":24,
			"byteOffset":102992
		},
		{
			"buffer":0,
			"byteLength":32,
			"byteOffset":103016
		},
		{
			"buffer":0,
			"byteLength":24,
			"byteOffset":103048
		},
		{
			"buffer":0,
			"byteLength":24,
			"byteOffset":103072
		},
		{
			"buffer":0,
			"byteLength":32,
			"byteOffset":103096
		},
		{
			"buffer":0,
			"byteLength":24,
			"byteOffset":103128
		},
		{
			"buffer":0,
			"byteLength":32,
			"byteOffset":103152
		},
		{
			"buffer":0,
			"byteLength":24,
			"byteOffset":103184
		},
		{
			"buffer":0,
			"byteLength":32,
			"byteOffset":103208
		},
		{
			"buffer":0,
			"byteLength":1472,
			"byteOffset":103240
		}
	],
	"samplers":[
		{
			"magFilter":9728,
			"minFilter":9984
		},
		{
			"magFilter":9729,
			"minFilter":9987
		}
	],
	"buffers":[
		{
			"byteLength":104712,
			"uri":"player.bin"
		}
	]
}
