{
	"asset":{
		"generator":"Khronos glTF Blender I/O v5.0.21",
		"version":"2.0"
	},
	"scene":0,
	"scenes":[
		{
			"name":"Scene",
			"nodes":[
				7
			]
		}
	],
	"nodes":[
		{
			"mesh":0,
			"name":"BoundingBox",
			"translation":[
				0,
				0.962812066078186,
				0
			]
		},
		{
			"mesh":1,
			"name":"FootLeft.001"
		},
		{
			"mesh":2,
			"name":"FootRight.001"
		},
		{
			"mesh":3,
			"name":"HandLeft.001",
			"rotation":[
				0,
				0,
				-0.007556019350886345,
				0.9999714493751526
			],
			"translation":[
				0.38551831245422363,
				0.6943013072013855,
				0
			]
		},
		{
			"mesh":4,
			"name":"HandRight.001",
			"rotation":[
				0,
				0,
				0.007556019350886345,
				0.9999714493751526
			],
			"translation":[
				-0.3604905605316162,
				0.6448519229888916,
				-0.007984638214111328
			]
		},
		{
			"mesh":5,
			"name":"RibCage",
			"translation":[
				0,
				1.0441758632659912,
				-0.09834909439086914
			]
		},
		{
			"mesh":6,
			"name":"SkullHead",
			"translation":[
				0,
				1.310133695602417,
				0
			]
		},
		{
			"children":[
				0,
				1,
				2,
				3,
				4,
				5,
				6
			],
			"name":"Skeleton"
		}
	],
	"materials":[
		{
			"alphaMode":"MASK",
			"doubleSided":true,
			"name":"Air",
			"pbrMetallicRoughness":{
				"baseColorFactor":[
					0.9999925494194031,
					1,
					0.9999993443489075,
					0
				],
				"metallicFactor":0,
				"roughnessFactor":0.5
			}
		},
		{
			"doubleSided":true,
			"name":"MainMaterial",
			"pbrMetallicRoughness":{
				"baseColorTexture":{
					"index":0
				},
				"metallicFactor":0,
				"roughnessFactor":0.699999988079071
			}
		}
	],
	"meshes":[
		{
			"name":"Cube.016",
			"primitives":[
				{
					"attributes":{
						"POSITION":0,
						"NORMAL":1,
						"TEXCOORD_0":2
					},
					"indices":3,
					"material":0
				}
			]
		},
		{
			"name":"Cylinder.002",
			"primitives":[
				{
					"attributes":{
						"POSITION":4,
						"NORMAL":5,
						"TEXCOORD_0":6
					},
					"indices":7,
					"material":1
				}
			]
		},
		{
			"name":"Cylinder.005",
			"primitives":[
				{
					"attributes":{
						"POSITION":8,
						"NORMAL":9,
						"TEXCOORD_0":10
					},
					"indices":11,
					"material":1
				}
			]
		},
		{
			"name":"Cube.010",
			"primitives":[
				{
					"attributes":{
						"POSITION":12,
						"NORMAL":13,
						"TEXCOORD_0":14
					},
					"indices":15,
					"material":1
				}
			]
		},
		{
			"name":"Cube.017",
			"primitives":[
				{
					"attributes":{
						"POSITION":16,
						"NORMAL":17,
						"TEXCOORD_0":18
					},
					"indices":19,
					"material":1
				}
			]
		},
		{
			"name":"Cylinder.004",
			"primitives":[
				{
					"attributes":{
						"POSITION":20,
						"NORMAL":21,
						"TEXCOORD_0":22
					},
					"indices":23,
					"material":1
				}
			]
		},
		{
			"name":"Sphere.002",
			"primitives":[
				{
					"attributes":{
						"POSITION":24,
						"NORMAL":25,
						"TEXCOORD_0":26
					},
					"indices":27,
					"material":1
				}
			]
		}
	],
	"textures":[
		{
			"sampler":0,
			"source":0
		}
	],
	"images":[
		{
			"mimeType":"image/png",
			"name":"main-texture",
			"uri":"main-texture.png"
		}
	],
	"accessors":[
		{
			"bufferView":0,
			"componentType":5126,
			"count":24,
			"max":[
				0.3238343894481659,
				0.6660522818565369,
				0.2860667407512665
			],
			"min":[
				-0.3238343894481659,
				-0.962812066078186,
				-0.2860667407512665
			],
			"type":"VEC3"
		},
		{
			"bufferView":1,
			"componentType":5126,
			"count":24,
			"type":"VEC3"
		},
		{
			"bufferView":2,
			"componentType":5126,
			"count":24,
			"type":"VEC2"
		},
		{
			"bufferView":3,
			"componentType":5123,
			"count":36,
			"type":"SCALAR"
		},
		{
			"bufferView":4,
			"componentType":5126,
			"count":167,
			"max":[
				0.1793493628501892,
				0.04287917539477348,
				0.21262522041797638
			],
			"min":[
				0.08509230613708496,
				5.436938010916492e-09,
				-0.045445408672094345
			],
			"type":"VEC3"
		},
		{
			"bufferView":5,
			"componentType":5126,
			"count":167,
			"type":"VEC3"
		},
		{
			"bufferView":6,
			"componentType":5126,
			"count":167,
			"type":"VEC2"
		},
		{
			"bufferView":7,
			"componentType":5123,
			"count":342,
			"type":"SCALAR"
		},
		{
			"bufferView":8,
			"componentType":5126,
			"count":167,
			"max":[
				-0.08509230613708496,
				0.04287917539477348,
				0.21262522041797638
			],
			"min":[
				-0.1793493628501892,
				5.436938010916492e-09,
				-0.045445408672094345
			],
			"type":"VEC3"
		},
		{
			"bufferView":9,
			"componentType":5126,
			"count":167,
			"type":"VEC3"
		},
		{
			"bufferView":10,
			"componentType":5126,
			"count":167,
			"type":"VEC2"
		},
		{
			"bufferView":11,
			"componentType":5123,
			"count":342,
			"type":"SCALAR"
		},
		{
			"bufferView":12,
			"componentType":5126,
			"count":180,
			"max":[
				0.057099953293800354,
				0.04094261676073074,
				0.06663647294044495
			],
			"min":[
				-0.042199939489364624,
				-0.14869731664657593,
				-0.05648580193519592
			],
			"type":"VEC3"
		},
		{
			"bufferView":13,
			"componentType":5126,
			"count":180,
			"type":"VEC3"
		},
		{
			"bufferView":14,
			"componentType":5126,
			"count":180,
			"type":"VEC2"
		},
		{
			"bufferView":15,
			"componentType":5123,
			"count":348,
			"type":"SCALAR"
		},
		{
			"bufferView":16,
			"componentType":5126,
			"count":246,
			"max":[
				0.058893635869026184,
				0.09043020755052567,
				0.07462111115455627
			],
			"min":[
				-0.06950344890356064,
				-0.04903122037649155,
				-0.059610433876514435
			],
			"type":"VEC3"
		},
		{
			"bufferView":17,
			"componentType":5126,
			"count":246,
			"type":"VEC3"
		},
		{
			"bufferView":18,
			"componentType":5126,
			"count":246,
			"type":"VEC2"
		},
		{
			"bufferView":19,
			"componentType":5123,
			"count":444,
			"type":"SCALAR"
		},
		{
			"bufferView":20,
			"componentType":5126,
			"count":2203,
			"max":[
				0.22867712378501892,
				0.030191073194146156,
				0.22078156471252441
			],
			"min":[
				-0.22867712378501892,
				-0.3622928857803345,
				-0.030191073194146156
			],
			"type":"VEC3"
		},
		{
			"bufferView":21,
			"componentType":5126,
			"count":2203,
			"type":"VEC3"
		},
		{
			"bufferView":22,
			"componentType":5126,
			"count":2203,
			"type":"VEC2"
		},
		{
			"bufferView":23,
			"componentType":5123,
			"count":3360,
			"type":"SCALAR"
		},
		{
			"bufferView":24,
			"componentType":5126,
			"count":408,
			"max":[
				0.12021489441394806,
				0.15417465567588806,
				0.16048258543014526
			],
			"min":[
				-0.12021489441394806,
				-0.10901794582605362,
				-0.15417465567588806
			],
			"type":"VEC3"
		},
		{
			"bufferView":25,
			"componentType":5126,
			"count":408,
			"type":"VEC3"
		},
		{
			"bufferView":26,
			"componentType":5126,
			"count":408,
			"type":"VEC2"
		},
		{
			"bufferView":27,
			"componentType":5123,
			"count":576,
			"type":"SCALAR"
		}
	],
	"bufferViews":[
		{
			"buffer":0,
			"byteLength":288,
			"byteOffset":0,
			"target":34962
		},
		{
			"buffer":0,
			"byteLength":288,
			"byteOffset":288,
			"target":34962
		},
		{
			"buffer":0,
			"byteLength":192,
			"byteOffset":576,
			"target":34962
		},
		{
			"buffer":0,
			"byteLength":72,
			"byteOffset":768,
			"target":34963
		},
		{
			"buffer":0,
			"byteLength":2004,
			"byteOffset":840,
			"target":34962
		},
		{
			"buffer":0,
			"byteLength":2004,
			"byteOffset":2844,
			"target":34962
		},
		{
			"buffer":0,
			"byteLength":1336,
			"byteOffset":4848,
			"target":34962
		},
		{
			"buffer":0,
			"byteLength":684,
			"byteOffset":6184,
			"target":34963
		},
		{
			"buffer":0,
			"byteLength":2004,
			"byteOffset":6868,
			"target":34962
		},
		{
			"buffer":0,
			"byteLength":2004,
			"byteOffset":8872,
			"target":34962
		},
		{
			"buffer":0,
			"byteLength":1336,
			"byteOffset":10876,
			"target":34962
		},
		{
			"buffer":0,
			"byteLength":684,
			"byteOffset":12212,
			"target":34963
		},
		{
			"buffer":0,
			"byteLength":2160,
			"byteOffset":12896,
			"target":34962
		},
		{
			"buffer":0,
			"byteLength":2160,
			"byteOffset":15056,
			"target":34962
		},
		{
			"buffer":0,
			"byteLength":1440,
			"byteOffset":17216,
			"target":34962
		},
		{
			"buffer":0,
			"byteLength":696,
			"byteOffset":18656,
			"target":34963
		},
		{
			"buffer":0,
			"byteLength":2952,
			"byteOffset":19352,
			"target":34962
		},
		{
			"buffer":0,
			"byteLength":2952,
			"byteOffset":22304,
			"target":34962
		},
		{
			"buffer":0,
			"byteLength":1968,
			"byteOffset":25256,
			"target":34962
		},
		{
			"buffer":0,
			"byteLength":888,
			"byteOffset":27224,
			"target":34963
		},
		{
			"buffer":0,
			"byteLength":26436,
			"byteOffset":28112,
			"target":34962
		},
		{
			"buffer":0,
			"byteLength":26436,
			"byteOffset":54548,
			"target":34962
		},
		{
			"buffer":0,
			"byteLength":17624,
			"byteOffset":80984,
			"target":34962
		},
		{
			"buffer":0,
			"byteLength":6720,
			"byteOffset":98608,
			"target":34963
		},
		{
			"buffer":0,
			"byteLength":4896,
			"byteOffset":105328,
			"target":34962
		},
		{
			"buffer":0,
			"byteLength":4896,
			"byteOffset":110224,
			"target":34962
		},
		{
			"buffer":0,
			"byteLength":3264,
			"byteOffset":115120,
			"target":34962
		},
		{
			"buffer":0,
			"byteLength":1152,
			"byteOffset":118384,
			"target":34963
		}
	],
	"samplers":[
		{
			"magFilter":9728,
			"minFilter":9984
		}
	],
	"buffers":[
		{
			"byteLength":119536,
			"uri":"skeleton.bin"
		}
	]
}
