{
	"asset":{
		"generator":"Khronos glTF Blender I/O v4.3.47",
		"version":"2.0"
	},
	"scene":0,
	"scenes":[
		{
			"name":"Scene",
			"nodes":[
				6
			]
		}
	],
	"nodes":[
		{
			"mesh":0,
			"name":"FootLeft.001",
			"scale":[
				0.045608341693878174,
				0.045608341693878174,
				0.045608341693878174
			]
		},
		{
			"mesh":1,
			"name":"FootRight.001",
			"scale":[
				0.045608341693878174,
				0.045608341693878174,
				0.045608341693878174
			]
		},
		{
			"mesh":2,
			"name":"HandLeft.001",
			"rotation":[
				0,
				0,
				-0.007556017488241196,
				0.9999714493751526
			],
			"translation":[
				0.38551831245422363,
				0.6943013072013855,
				0
			]
		},
		{
			"mesh":3,
			"name":"HandRight.001",
			"rotation":[
				0,
				0,
				0.007556017488241196,
				0.9999714493751526
			],
			"translation":[
				-0.3736419677734375,
				0.694146454334259,
				0
			]
		},
		{
			"mesh":4,
			"name":"RibCage",
			"translation":[
				0,
				1.0441758632659912,
				-0.09834933280944824
			]
		},
		{
			"mesh":5,
			"name":"SkullHead",
			"translation":[
				0,
				1.310133695602417,
				0
			]
		},
		{
			"children":[
				0,
				1,
				2,
				3,
				4,
				5
			],
			"name":"Skeleton",
			"translation":[
				3.1365537643432617,
				0,
				-3.017393112182617
			]
		}
	],
	"materials":[
		{
			"doubleSided":true,
			"name":"MainMaterial",
			"pbrMetallicRoughness":{
				"baseColorTexture":{
					"index":0
				},
				"metallicFactor":0,
				"roughnessFactor":0.699999988079071
			}
		}
	],
	"meshes":[
		{
			"name":"Cylinder.002",
			"primitives":[
				{
					"attributes":{
						"POSITION":0,
						"NORMAL":1,
						"TEXCOORD_0":2
					},
					"indices":3,
					"material":0
				}
			]
		},
		{
			"name":"Cylinder.005",
			"primitives":[
				{
					"attributes":{
						"POSITION":4,
						"NORMAL":5,
						"TEXCOORD_0":6
					},
					"indices":7,
					"material":0
				}
			]
		},
		{
			"name":"Cube.010",
			"primitives":[
				{
					"attributes":{
						"POSITION":8,
						"NORMAL":9,
						"TEXCOORD_0":10
					},
					"indices":11,
					"material":0
				}
			]
		},
		{
			"name":"Cube.012",
			"primitives":[
				{
					"attributes":{
						"POSITION":12,
						"NORMAL":13,
						"TEXCOORD_0":14
					},
					"indices":15,
					"material":0
				}
			]
		},
		{
			"name":"Cylinder.004",
			"primitives":[
				{
					"attributes":{
						"POSITION":16,
						"NORMAL":17,
						"TEXCOORD_0":18
					},
					"indices":19,
					"material":0
				}
			]
		},
		{
			"name":"Sphere.002",
			"primitives":[
				{
					"attributes":{
						"POSITION":20,
						"NORMAL":21,
						"TEXCOORD_0":22
					},
					"indices":23,
					"material":0
				}
			]
		}
	],
	"textures":[
		{
			"sampler":0,
			"source":0
		}
	],
	"images":[
		{
			"mimeType":"image/png",
			"name":"main-texture",
			"uri":"../../../textures/main-texture.png"
		}
	],
	"accessors":[
		{
			"bufferView":0,
			"componentType":5126,
			"count":167,
			"max":[
				3.9323806762695312,
				0.9401608109474182,
				4.661981105804443
			],
			"min":[
				1.8657180070877075,
				1.1920928955078125e-07,
				-0.996427595615387
			],
			"type":"VEC3"
		},
		{
			"bufferView":1,
			"componentType":5126,
			"count":167,
			"type":"VEC3"
		},
		{
			"bufferView":2,
			"componentType":5126,
			"count":167,
			"type":"VEC2"
		},
		{
			"bufferView":3,
			"componentType":5123,
			"count":342,
			"type":"SCALAR"
		},
		{
			"bufferView":4,
			"componentType":5126,
			"count":167,
			"max":[
				-1.8657180070877075,
				0.9401608109474182,
				4.661981105804443
			],
			"min":[
				-3.9323806762695312,
				1.1920928955078125e-07,
				-0.996427595615387
			],
			"type":"VEC3"
		},
		{
			"bufferView":5,
			"componentType":5126,
			"count":167,
			"type":"VEC3"
		},
		{
			"bufferView":6,
			"componentType":5126,
			"count":167,
			"type":"VEC2"
		},
		{
			"bufferView":7,
			"componentType":5123,
			"count":342,
			"type":"SCALAR"
		},
		{
			"bufferView":8,
			"componentType":5126,
			"count":180,
			"max":[
				0.05709993466734886,
				0.04094262048602104,
				0.06663647294044495
			],
			"min":[
				-0.04219992458820343,
				-0.14869733154773712,
				-0.05648580193519592
			],
			"type":"VEC3"
		},
		{
			"bufferView":9,
			"componentType":5126,
			"count":180,
			"type":"VEC3"
		},
		{
			"bufferView":10,
			"componentType":5126,
			"count":180,
			"type":"VEC2"
		},
		{
			"bufferView":11,
			"componentType":5123,
			"count":348,
			"type":"SCALAR"
		},
		{
			"bufferView":12,
			"componentType":5126,
			"count":246,
			"max":[
				0.07129710167646408,
				0.04094262048602104,
				0.06663647294044495
			],
			"min":[
				-0.05709993466734886,
				-0.09851881861686707,
				-0.06759507209062576
			],
			"type":"VEC3"
		},
		{
			"bufferView":13,
			"componentType":5126,
			"count":246,
			"type":"VEC3"
		},
		{
			"bufferView":14,
			"componentType":5126,
			"count":246,
			"type":"VEC2"
		},
		{
			"bufferView":15,
			"componentType":5123,
			"count":444,
			"type":"SCALAR"
		},
		{
			"bufferView":16,
			"componentType":5126,
			"count":2100,
			"max":[
				0.22867712378501892,
				0.030191073194146156,
				0.22078156471252441
			],
			"min":[
				-0.22867712378501892,
				-0.3622928857803345,
				-0.030191073194146156
			],
			"type":"VEC3"
		},
		{
			"bufferView":17,
			"componentType":5126,
			"count":2100,
			"type":"VEC3"
		},
		{
			"bufferView":18,
			"componentType":5126,
			"count":2100,
			"type":"VEC2"
		},
		{
			"bufferView":19,
			"componentType":5123,
			"count":3360,
			"type":"SCALAR"
		},
		{
			"bufferView":20,
			"componentType":5126,
			"count":404,
			"max":[
				0.12021489441394806,
				0.15417465567588806,
				0.16048258543014526
			],
			"min":[
				-0.12021489441394806,
				-0.10901794582605362,
				-0.15417465567588806
			],
			"type":"VEC3"
		},
		{
			"bufferView":21,
			"componentType":5126,
			"count":404,
			"type":"VEC3"
		},
		{
			"bufferView":22,
			"componentType":5126,
			"count":404,
			"type":"VEC2"
		},
		{
			"bufferView":23,
			"componentType":5123,
			"count":576,
			"type":"SCALAR"
		}
	],
	"bufferViews":[
		{
			"buffer":0,
			"byteLength":2004,
			"byteOffset":0,
			"target":34962
		},
		{
			"buffer":0,
			"byteLength":2004,
			"byteOffset":2004,
			"target":34962
		},
		{
			"buffer":0,
			"byteLength":1336,
			"byteOffset":4008,
			"target":34962
		},
		{
			"buffer":0,
			"byteLength":684,
			"byteOffset":5344,
			"target":34963
		},
		{
			"buffer":0,
			"byteLength":2004,
			"byteOffset":6028,
			"target":34962
		},
		{
			"buffer":0,
			"byteLength":2004,
			"byteOffset":8032,
			"target":34962
		},
		{
			"buffer":0,
			"byteLength":1336,
			"byteOffset":10036,
			"target":34962
		},
		{
			"buffer":0,
			"byteLength":684,
			"byteOffset":11372,
			"target":34963
		},
		{
			"buffer":0,
			"byteLength":2160,
			"byteOffset":12056,
			"target":34962
		},
		{
			"buffer":0,
			"byteLength":2160,
			"byteOffset":14216,
			"target":34962
		},
		{
			"buffer":0,
			"byteLength":1440,
			"byteOffset":16376,
			"target":34962
		},
		{
			"buffer":0,
			"byteLength":696,
			"byteOffset":17816,
			"target":34963
		},
		{
			"buffer":0,
			"byteLength":2952,
			"byteOffset":18512,
			"target":34962
		},
		{
			"buffer":0,
			"byteLength":2952,
			"byteOffset":21464,
			"target":34962
		},
		{
			"buffer":0,
			"byteLength":1968,
			"byteOffset":24416,
			"target":34962
		},
		{
			"buffer":0,
			"byteLength":888,
			"byteOffset":26384,
			"target":34963
		},
		{
			"buffer":0,
			"byteLength":25200,
			"byteOffset":27272,
			"target":34962
		},
		{
			"buffer":0,
			"byteLength":25200,
			"byteOffset":52472,
			"target":34962
		},
		{
			"buffer":0,
			"byteLength":16800,
			"byteOffset":77672,
			"target":34962
		},
		{
			"buffer":0,
			"byteLength":6720,
			"byteOffset":94472,
			"target":34963
		},
		{
			"buffer":0,
			"byteLength":4848,
			"byteOffset":101192,
			"target":34962
		},
		{
			"buffer":0,
			"byteLength":4848,
			"byteOffset":106040,
			"target":34962
		},
		{
			"buffer":0,
			"byteLength":3232,
			"byteOffset":110888,
			"target":34962
		},
		{
			"buffer":0,
			"byteLength":1152,
			"byteOffset":114120,
			"target":34963
		}
	],
	"samplers":[
		{
			"magFilter":9728,
			"minFilter":9984
		}
	],
	"buffers":[
		{
			"byteLength":115272,
			"uri":"skeleton.bin"
		}
	]
}
