ply
format ascii 1.0
comment Created in Blender version 4.3.2
element vertex 55
property float x
property float y
property float z
property float nx
property float ny
property float nz
property float s
property float t
element face 50
property list uchar uint vertex_indices
end_header
2.2008042 -0.125 0.83950335 0.10636388 -0.9884827 0.10765143 0.9925706 0.5526774
1.7826099 -0.125 0.62261 -0.34158587 -0.87557733 -0.34158957 0.9743632 0.5432343
2.25739 -0.125 0.62261 0.3772493 -0.8797111 -0.28946757 0.9950343 0.5432343
1.7826099 0.10239005 0.91999996 -0.341591 0.3415931 0.87557405 0.9743632 0.55353403
2.25739 -0.10239005 0.91999996 0.32258603 -0.55664444 0.765562 0.9950343 0.54461825
2.25739 0.044039093 0.91999996 0.3616357 0.37587368 0.8531933 0.9950343 0.55099356
1.76 -0.10239005 0.89739 -0.875582 -0.34158245 0.3415811 0.9798941 0.5551977
1.76 0.10239005 0.62261 -0.875582 0.34158248 -0.34158114 0.9888098 0.5432343
1.76 -0.10239005 0.62261 -0.87557936 -0.341586 -0.3415844 0.9798941 0.5432343
2.28 0.051146 0.89739 0.78551745 0.39919305 0.47287133 0.99601865 0.5551977
2.25739 0.125 0.8044849 0.36264783 0.91021353 0.19999501 0.9950343 0.55115277
2.049363 0.10239005 0.91999996 0.09679985 0.45220238 0.88664705 0.9859771 0.5561821
1.7826099 -0.10239005 0.6 -0.3415885 -0.34158993 -0.8755762 0.9743632 0.54461825
1.7826099 -0.125 0.62261 -0.34158587 -0.87557733 -0.34158957 0.9743632 0.5436339
1.76 -0.10239005 0.62261 -0.87557936 -0.341586 -0.3415844 0.9733788 0.54461825
1.7826099 -0.125 0.89739 -0.31529364 -0.877618 0.36107692 0.9743632 0.5436339
1.7826099 -0.10239005 0.91999996 -0.31995708 -0.36049297 0.8761691 0.9743632 0.54461825
1.76 -0.10239005 0.89739 -0.875582 -0.34158245 0.3415811 0.9733788 0.54461825
1.7826099 0.10239005 0.6 -0.34158352 0.34158716 -0.8755792 0.9743632 0.55353403
1.76 0.10239005 0.62261 -0.875582 0.34158248 -0.34158114 0.9733788 0.55353403
1.7826099 0.125 0.62261 -0.34158617 0.8755793 -0.34158435 0.9743632 0.5545184
1.7826099 0.125 0.89739 -0.34159085 0.8755749 0.34159085 0.9743632 0.5545184
1.76 0.10239005 0.89739 -0.87557936 0.341586 0.3415844 0.9733788 0.55353403
2.25739 -0.10239005 0.6 0.34158352 -0.34158716 -0.8755792 0.9950343 0.54461825
2.28 -0.10239005 0.62261 0.8750619 -0.3752826 -0.3056628 0.99601865 0.54461825
2.25739 -0.125 0.62261 0.3772493 -0.8797111 -0.28946757 0.9950343 0.5436339
2.25739 -0.10239005 0.91999996 0.32258603 -0.55664444 0.765562 0.9950343 0.5561821
2.28 -0.10239005 0.89739 0.7656507 -0.5562186 0.32310972 0.99601865 0.5551977
2.25739 0.10239005 0.6 0.3415885 0.34158993 -0.8755762 0.9950343 0.55353403
2.25739 0.125 0.62261 0.34158453 0.87557846 -0.34158808 0.9950343 0.5545184
2.28 0.10239005 0.62261 0.8755798 0.34158316 -0.34158635 0.99601865 0.55353403
1.7826099 -0.125 0.89739 -0.31529364 -0.877618 0.36107692 0.9743632 0.5551977
1.76 -0.10239005 0.62261 -0.87557936 -0.341586 -0.3415844 0.9733788 0.5432343
1.7826099 0.125 0.62261 -0.34158617 0.8755793 -0.34158435 0.9743632 0.5432343
1.76 0.10239005 0.89739 -0.87557936 0.341586 0.3415844 0.9733788 0.5551977
1.7826099 0.125 0.89739 -0.34159085 0.8755749 0.34159085 0.9743632 0.5551977
2.28 0.10239005 0.62261 0.8755798 0.34158316 -0.34158635 0.99601865 0.5432343
2.28 0.10239005 0.824275 0.803026 0.53090054 0.2707284 0.99601865 0.5520144
2.28 -0.10239005 0.89739 0.7656507 -0.5562186 0.32310972 0.99601865 0.54461825
2.28 0.051146 0.89739 0.78551745 0.39919305 0.47287133 0.99601865 0.55130297
2.28 -0.10239005 0.62261 0.8750619 -0.3752826 -0.3056628 0.99601865 0.5432343
1.7826099 -0.10239005 0.91999996 -0.31995708 -0.36049297 0.8761691 0.9743632 0.5561821
2.28 0.10239005 0.824275 0.803026 0.53090054 0.2707284 0.9888098 0.5520144
2.28 -0.10239005 0.89739 0.7656507 -0.5562186 0.32310972 0.9798941 0.5551977
2.28 -0.10239005 0.62261 0.8750619 -0.3752826 -0.3056628 0.9798941 0.5432343
2.25739 0.125 0.62261 0.34158453 0.87557846 -0.34158808 0.9950343 0.5432343
2.0318658 0.125 0.89739 0.057264604 0.9173076 0.3940403 0.9852153 0.5545184
2.049363 0.10239005 0.91999996 0.09679985 0.45220238 0.88664705 0.9859771 0.55353403
1.76 0.10239005 0.89739 -0.87557936 0.341586 0.3415844 0.9888098 0.5551977
2.25739 0.044039093 0.91999996 0.3616357 0.37587368 0.8531933 0.9950343 0.5561821
2.0318658 0.125 0.89739 0.057264604 0.9173076 0.3940403 0.9852153 0.5551977
1.76 -0.10239005 0.89739 -0.875582 -0.34158245 0.3415811 0.9733788 0.5551977
1.76 0.10239005 0.62261 -0.875582 0.34158248 -0.34158114 0.9733788 0.5432343
2.28 0.10239005 0.62261 0.8755798 0.34158316 -0.34158635 0.9888098 0.5432343
2.28 0.051146 0.89739 0.78551745 0.39919305 0.47287133 0.98657876 0.5551977
3 0 1 2
3 3 4 5
3 6 7 8
3 9 10 11
3 12 13 14
3 15 16 17
3 18 19 20
3 3 21 22
3 23 24 25
3 26 0 27
3 28 29 30
3 12 19 18
3 31 32 1
3 3 17 16
3 33 34 35
3 18 29 28
3 36 10 37
3 28 24 23
3 5 38 39
3 0 40 27
3 23 13 12
3 41 0 26
3 28 12 18
3 42 43 44
3 35 10 45
3 3 46 21
3 0 31 1
3 5 47 3
3 3 16 4
3 6 48 7
3 11 49 9
3 9 37 10
3 10 50 11
3 12 14 19
3 31 51 32
3 3 22 17
3 33 52 34
3 18 20 29
3 36 45 10
3 28 30 24
3 5 4 38
3 0 2 40
3 23 25 13
3 41 31 0
3 28 23 12
3 44 53 42
3 42 54 43
3 45 33 35
3 35 50 10
3 3 47 46
