ply
format ascii 1.0
comment Created in Blender version 4.3.2
element vertex 62
property float x
property float y
property float z
property float nx
property float ny
property float nz
property float s
property float t
element face 56
property list uchar uint vertex_indices
end_header
0.7035269 -0.023557186 0.91999996 0.42307264 -0.16415814 0.8911015 0.9978296 0.5456748
0.6427803 -0.125 0.9035269 0.26213682 -0.84364575 0.46855748 0.99445295 0.540036
0.72 -0.1085269 0.8442217 0.8755674 -0.4103595 0.25492564 0.9987453 0.5409516
0.21647315 0.125 0.9035269 -0.31336576 0.7837322 0.53625166 0.970756 0.55479205
0.7035269 0.125 0.6164731 0.36556917 0.8781621 -0.30852962 0.9978296 0.5388357
0.38937545 0.125 0.6164731 -0.10684674 0.89621806 -0.43055436 0.98036706 0.5388357
0.21647315 -0.1085269 0.6 -0.3196391 -0.5477227 -0.77319515 0.970756 0.53792
0.23920518 -0.125 0.65871876 -0.15999511 -0.9816734 -0.10353274 0.9720197 0.541184
0.20000005 -0.1085269 0.6164731 -0.77559835 -0.5341577 -0.33633766 0.96984035 0.5388357
0.21558379 -0.12789309 0.90247285 -0.36990774 -0.8711015 0.32303354 0.97752124 0.55473346
0.2159035 -0.11037996 0.9193249 -0.35173738 -0.32205775 0.8789537 0.97849476 0.5556702
0.19944367 -0.11033678 0.9028675 -0.8822853 -0.3301157 0.33555368 0.97849715 0.5547554
0.22864673 0.072796546 0.91999996 -0.21351528 0.11340577 0.97033525 0.9714327 0.5510308
0.21647315 0.125 0.9035269 -0.31336576 0.7837322 0.53625166 0.970756 0.5539326
0.20000005 0.1085269 0.9035269 -0.7889704 0.34617925 0.5076276 0.96984035 0.55301696
0.7035269 -0.1085269 0.6 0.32670796 -0.35424784 -0.8762251 0.9978296 0.5409516
0.72 -0.1085269 0.6164731 0.8755818 -0.3415813 -0.34158298 0.9987453 0.5409516
0.7035269 -0.125 0.6164731 0.32468584 -0.8768744 -0.35450038 0.9978296 0.540036
0.7035269 0.1085269 0.6 0.34159347 0.34159175 -0.8755735 0.9978296 0.55301696
0.7035269 0.125 0.6164731 0.36556917 0.8781621 -0.30852962 0.9978296 0.5539326
0.72 0.1085269 0.6164731 0.87604994 0.3647357 -0.31544313 0.9987453 0.55301696
0.7035269 0.1085269 0.91999996 0.33807886 0.52352446 0.78206456 0.9978296 0.5557077
0.72 0.1085269 0.9035269 0.77444315 0.5487395 0.31483793 0.9987453 0.55479205
0.6562083 0.12499999 0.8923886 0.06180049 0.9586538 0.2777837 0.9951994 0.55417293
0.21647315 0.025965042 0.6 -0.37298706 0.23766822 -0.8968805 0.970756 0.5484276
0.20000005 -0.1085269 0.6164731 -0.77559835 -0.5341577 -0.33633766 0.96984035 0.5409516
0.20000005 0.036406383 0.6164731 -0.8007041 0.31313145 -0.51070714 0.96984035 0.54900795
0.19944367 -0.11033678 0.9028675 -0.8822853 -0.3301157 0.33555368 0.9698094 0.5547554
0.19944367 -0.11033678 0.9028675 -0.8822853 -0.3301157 0.33555368 0.9698094 0.54085106
0.2159035 -0.11037996 0.9193249 -0.35173738 -0.32205775 0.8789537 0.97072434 0.5408487
0.6562083 0.12499999 0.8923886 0.06180049 0.9586538 0.2777837 0.9951994 0.5539326
0.72 0.1085269 0.6164731 0.87604994 0.3647357 -0.31544313 0.9987453 0.5388357
0.7035269 -0.125 0.6164731 0.32468584 -0.8768744 -0.35450038 0.9978296 0.5388357
0.72 -0.1085269 0.8442217 0.8755674 -0.4103595 0.25492564 0.9987453 0.5514955
0.7035269 -0.125 0.8476279 0.45562637 -0.84455013 0.2813181 0.9978296 0.55168486
0.7035269 -0.1085269 0.6 0.32670796 -0.35424784 -0.8762251 0.9978296 0.53792
0.63765013 -0.1085269 0.91999996 0.22225064 -0.4047036 0.8870286 0.99416775 0.5409516
0.21558379 -0.12789309 0.90247285 -0.36990774 -0.8711015 0.32303354 0.9707066 0.53987515
0.21647315 -0.1085269 0.6 -0.3196391 -0.5477227 -0.77319515 0.970756 0.5409516
0.21558379 -0.12789309 0.90247285 -0.36990774 -0.8711015 0.32303354 0.9707066 0.55473346
0.72 0.1085269 0.9035269 0.77444315 0.5487395 0.31483793 0.990663 0.55479205
0.72 -0.1085269 0.8442217 0.8755674 -0.4103595 0.25492564 0.9785977 0.5514955
0.72 -0.1085269 0.6164731 0.8755818 -0.3415813 -0.34158298 0.9785977 0.5388357
0.72 0.1085269 0.9035269 0.77444315 0.5487395 0.31483793 0.9987453 0.55301696
0.7035269 0.1085269 0.91999996 0.33807886 0.52352446 0.78206456 0.9978296 0.55301696
0.39295518 0.1085269 0.6 -0.09151438 0.41050243 -0.9072557 0.980566 0.55301696
0.21647315 0.125 0.68989587 -0.37414864 0.88420457 -0.27963397 0.970756 0.542917
0.20000005 0.1085269 0.9035269 -0.7889704 0.34617925 0.5076276 0.96984035 0.55479205
0.20000005 0.1085269 0.68193823 -0.7998329 0.49233577 -0.34332618 0.990663 0.5424747
0.20000005 0.036406383 0.6164731 -0.8007041 0.31313145 -0.51070714 0.9866541 0.5388357
0.20000005 0.1085269 0.68193823 -0.7998329 0.49233577 -0.34332618 0.96984035 0.55301696
0.38937545 0.125 0.6164731 -0.10684674 0.89621806 -0.43055436 0.98036706 0.5539326
0.72 -0.025399797 0.9035269 0.88106984 -0.17559108 0.4391855 0.9987453 0.5455724
0.7035269 -0.125 0.8476279 0.45562637 -0.84455013 0.2813181 0.9978296 0.540036
0.72 -0.1085269 0.6164731 0.8755818 -0.3415813 -0.34158298 0.9987453 0.5388357
0.6427803 -0.125 0.9035269 0.26213682 -0.84364575 0.46855748 0.99445295 0.55479205
0.72 0.1085269 0.6164731 0.87604994 0.3647357 -0.31544313 0.990663 0.5388357
0.72 -0.025399797 0.9035269 0.88106984 -0.17559108 0.4391855 0.9832185 0.55479205
0.20000005 0.1085269 0.68193823 -0.7998329 0.49233577 -0.34332618 0.96984035 0.5424747
0.20000005 -0.1085269 0.6164731 -0.77559835 -0.5341577 -0.33633766 0.9785977 0.5388357
0.20000005 0.1085269 0.9035269 -0.7889704 0.34617925 0.5076276 0.990663 0.55479205
0.21647315 0.125 0.68989587 -0.37414864 0.88420457 -0.27963397 0.970756 0.5539326
3 0 1 2
3 3 4 5
3 6 7 8
3 9 10 11
3 12 13 14
3 15 16 17
3 18 19 20
3 21 22 23
3 24 25 26
3 7 27 8
3 12 28 29
3 12 30 13
3 31 23 22
3 18 16 15
3 32 33 34
3 35 7 6
3 36 37 1
3 18 38 24
3 34 39 7
3 40 41 42
3 12 36 0
3 0 43 44
3 45 19 18
3 46 47 3
3 11 48 49
3 50 51 24
3 2 52 0
3 0 36 1
3 1 53 2
3 5 46 3
3 3 23 4
3 24 38 25
3 7 39 27
3 12 14 28
3 12 44 30
3 31 4 23
3 18 20 16
3 32 54 33
3 35 32 7
3 36 29 37
3 24 45 18
3 18 15 38
3 7 32 34
3 34 55 39
3 42 56 40
3 40 57 41
3 0 44 12
3 12 29 36
3 0 52 43
3 45 51 19
3 46 58 47
3 49 59 11
3 11 60 48
3 24 26 50
3 50 61 51
3 51 45 24
