ply
format ascii 1.0
comment Created in Blender version 4.3.2
element vertex 72
property float x
property float y
property float z
property float nx
property float ny
property float nz
property float s
property float t
element face 64
property list uchar uint vertex_indices
end_header
1.1370928 -0.125 0.8709452 -0.009986234 -0.9969052 0.07797637 0.9929336 0.5533607
0.78728163 -0.125 0.90491813 -0.12475839 -0.87700707 0.46399784 0.9752965 0.55507356
0.7458036 -0.125 0.6258036 -0.34189636 -0.87641406 -0.33912453 0.9732052 0.5410009
1.24 0.09919641 0.8941964 0.87558204 0.34158376 0.34157985 0.990264 0.55453295
1.24 -0.09919641 0.6258036 0.87558204 -0.34158376 -0.34157985 0.98026127 0.5410009
1.24 0.09919641 0.6258036 0.7783825 0.5330562 -0.33162013 0.990264 0.5410009
0.9387914 0.059674267 0.91999996 -0.019070135 0.09107956 0.995661 0.9829354 0.55192703
0.7458036 0.09919641 0.91999996 -0.37876773 0.45433486 0.806297 0.9732052 0.5539197
1.2141964 -0.09919641 0.91999996 0.34205467 -0.34149384 0.8754317 0.99682105 0.54391694
0.72 -0.09919641 0.8941964 -0.81037825 -0.48549178 0.32800153 0.98026127 0.55453295
0.72 0.09919641 0.6258036 -0.87558204 0.34158376 -0.34157985 0.990264 0.5410009
0.72 -0.09919641 0.6258036 -0.8755795 -0.34158498 -0.34158495 0.98026127 0.5410009
0.9247978 0.125 0.85207576 0.0034893749 0.9959405 0.08994759 0.9822299 0.5524093
1.2141964 0.125 0.8941964 0.34197614 0.8771716 0.3370793 0.99682105 0.55453295
1.1435355 0.125 0.63922215 0.07420709 0.96096957 -0.26651627 0.9932584 0.5416775
0.7458036 -0.09919641 0.6 -0.34158722 -0.34159118 -0.87557626 0.9732052 0.5396999
0.72 -0.09919641 0.6258036 -0.8755795 -0.34158498 -0.34158495 0.9719042 0.5410009
0.7458036 -0.09919641 0.91999996 -0.38725835 -0.40664256 0.82744956 0.9732052 0.555834
0.72 -0.09919641 0.8941964 -0.81037825 -0.48549178 0.32800153 0.9719042 0.55453295
0.7458036 0.09919641 0.6 -0.33607844 0.34632322 -0.87584907 0.9732052 0.5396999
0.72 0.09919641 0.6258036 -0.87558204 0.34158376 -0.34157985 0.9719042 0.5410009
0.7458036 0.125 0.6258036 -0.33587226 0.87728477 -0.34287226 0.9732052 0.5410009
0.7458036 0.09919641 0.91999996 -0.37876773 0.45433486 0.806297 0.9732052 0.555834
0.8058148 0.125 0.9045465 -0.086003765 0.8796496 0.46778202 0.97623086 0.5550548
0.72 0.09919641 0.8941964 -0.7934081 0.51264364 0.32817703 0.9719042 0.55453295
1.2141964 -0.09919641 0.6 0.34158358 -0.34158716 -0.8755793 0.99682105 0.5396999
1.24 -0.09919641 0.6258036 0.87558204 -0.34158376 -0.34157985 0.99812204 0.5410009
1.2141964 -0.125 0.6258036 0.34158513 -0.8755794 -0.34158504 0.99682105 0.5410009
1.2141964 -0.09919641 0.91999996 0.34205467 -0.34149384 0.8754317 0.99682105 0.555834
1.2141964 -0.125 0.8941964 0.34159574 -0.87557524 0.3415853 0.99682105 0.55453295
1.24 -0.09919641 0.8941964 0.8755795 -0.34158507 0.34158495 0.99812204 0.55453295
1.2141964 0.09919641 0.6 0.34922042 0.5129263 -0.7841886 0.99682105 0.5396999
1.24 0.09919641 0.6258036 0.7783825 0.5330562 -0.33162013 0.99812204 0.5410009
1.2141964 0.09919641 0.91999996 0.34158504 0.34158522 0.87557936 0.99682105 0.555834
1.24 0.09919641 0.8941964 0.87558204 0.34158376 0.34157985 0.99812204 0.55453295
0.7458036 -0.09919641 0.6 -0.34158722 -0.34159118 -0.87557626 0.9732052 0.54391694
0.72 0.09919641 0.6258036 -0.87558204 0.34158376 -0.34157985 0.9719042 0.5539197
0.7458036 0.09919641 0.6 -0.33607844 0.34632322 -0.87584907 0.9732052 0.5539197
0.72 -0.09919641 0.8941964 -0.81037825 -0.48549178 0.32800153 0.9719042 0.54391694
0.7458036 -0.09919641 0.91999996 -0.38725835 -0.40664256 0.82744956 0.9732052 0.54391694
0.913633 0.09919641 0.91999996 0.39635396 0.43866843 0.80651957 0.981667 0.5539197
0.8058148 0.125 0.9045465 -0.086003765 0.8796496 0.46778202 0.97623086 0.55522066
1.2141964 0.09919641 0.6 0.34922042 0.5129263 -0.7841886 0.99682105 0.5539197
1.24 -0.09919641 0.6258036 0.87558204 -0.34158376 -0.34157985 0.99812204 0.54391694
1.2141964 -0.09919641 0.6 0.34158358 -0.34158716 -0.8755793 0.99682105 0.54391694
1.24 0.09919641 0.8941964 0.87558204 0.34158376 0.34157985 0.99812204 0.5539197
1.2141964 0.09919641 0.91999996 0.34158504 0.34158522 0.87557936 0.99682105 0.5539197
1.1307875 -0.108209535 0.91098684 0.025280578 -0.8211747 0.5701168 0.99261564 0.5434625
1.2141964 -0.125 0.8941964 0.34159574 -0.87557524 0.3415853 0.99682105 0.54261595
0.94504565 0.09919641 0.91999996 -0.47120634 0.34024066 0.81375724 0.9832508 0.555834
0.9398902 0.125 0.8941964 -0.5063554 0.7559103 0.4149748 0.98299086 0.55453295
0.9387914 0.059674267 0.91999996 -0.019070135 0.09107956 0.995661 0.98827136 0.555834
0.9398902 0.125 0.8941964 -0.5063554 0.7559103 0.4149748 0.991565 0.55453295
0.9247978 0.125 0.85207576 0.0034893749 0.9959405 0.08994759 0.991565 0.5524093
0.913633 0.09919641 0.91999996 0.39635396 0.43866843 0.80651957 0.990264 0.555834
1.1307875 -0.108209535 0.91098684 0.025280578 -0.8211747 0.5701168 0.99261564 0.5553795
1.1157967 -0.125 0.8941964 0.13758278 -0.91545945 0.37816003 0.9918598 0.55453295
1.1500845 -0.125 0.8941964 -0.15169342 -0.91659725 0.36991718 0.99358857 0.55453295
1.24 -0.09919641 0.8941964 0.8755795 -0.34158507 0.34158495 0.98026127 0.55453295
0.94504565 0.09919641 0.91999996 -0.47120634 0.34024066 0.81375724 0.9832508 0.5539197
0.72 0.09919641 0.8941964 -0.7934081 0.51264364 0.32817703 0.990264 0.55453295
0.90769196 0.125 0.8941964 0.36702994 0.85487413 0.36671418 0.98136747 0.55453295
0.72 -0.09919641 0.6258036 -0.8755795 -0.34158498 -0.34158495 0.9719042 0.54391694
0.72 0.09919641 0.8941964 -0.7934081 0.51264364 0.32817703 0.9719042 0.5539197
0.90769196 0.125 0.8941964 0.36702994 0.85487413 0.36671418 0.98136747 0.55522066
1.24 0.09919641 0.6258036 0.7783825 0.5330562 -0.33162013 0.99812204 0.5539197
1.24 -0.09919641 0.8941964 0.8755795 -0.34158507 0.34158495 0.99812204 0.54391694
0.78728163 -0.125 0.90491813 -0.12475839 -0.87700707 0.46399784 0.9752965 0.54261595
1.1157967 -0.125 0.8941964 0.13758278 -0.91545945 0.37816003 0.9918598 0.54261595
1.1500845 -0.125 0.8941964 -0.15169342 -0.91659725 0.36991718 0.99358857 0.54261595
0.94504565 0.09919641 0.91999996 -0.47120634 0.34024066 0.81375724 0.990264 0.555834
0.90769196 0.125 0.8941964 0.36702994 0.85487413 0.36671418 0.991565 0.55453295
3 0 1 2
3 3 4 5
3 6 7 8
3 9 10 11
3 12 13 14
3 15 2 16
3 1 17 18
3 19 20 21
3 22 23 24
3 25 26 27
3 28 29 30
3 31 14 32
3 33 34 13
3 35 36 37
3 2 18 16
3 7 38 39
3 21 24 23
3 19 14 31
3 40 41 7
3 32 13 34
3 42 43 44
3 8 45 46
3 27 30 29
3 25 2 15
3 8 47 48
3 42 35 37
3 49 13 50
3 51 52 53
3 53 54 51
3 0 55 56
3 55 0 57
3 2 27 29
3 29 57 0
3 0 56 1
3 2 29 0
3 3 58 4
3 8 46 59
3 6 40 7
3 8 59 6
3 7 39 8
3 9 60 10
3 14 21 23
3 23 61 12
3 12 50 13
3 14 23 12
3 35 62 36
3 2 1 18
3 7 63 38
3 21 20 24
3 19 21 14
3 40 64 41
3 32 14 13
3 42 65 43
3 8 66 45
3 27 26 30
3 25 27 2
3 8 39 67
3 67 68 47
3 47 69 48
3 8 67 47
3 42 44 35
3 49 33 13
3 51 70 52
3 53 71 54
