ply
format ascii 1.0
comment Created in Blender version 4.3.2
element vertex 346
property float x
property float y
property float z
property float nx
property float ny
property float nz
property float s
property float t
element face 304
property list uchar uint vertex_indices
end_header
0.3 -0.26802853 0.5146192 0.79217166 -0.55064625 0.26315913 0.9751783 0.30667508
0.3 -0.23902288 0.0676623 0.96654034 -0.18264517 -0.18011303 0.9762451 0.29023615
0.3 0.18027116 0.34952793 0.99945647 0.03296683 -0.00021124617 0.9916666 0.30060306
-0.3 -0.20888641 0.56802857 -0.8985914 -0.21764573 0.38100383 0.9773535 0.30863944
-0.26802853 -0.3 0.47305623 -0.44196033 -0.887964 0.12724386 0.97400236 0.3051464
-0.23434392 -0.26802853 0.6000001 -0.3368362 -0.47592595 0.8124259 0.9751783 0.30981535
0.21664615 0.3 0.34613368 0.07818324 0.9962201 0.037853025 0.99283135 0.30047822
0.26802853 0.3 0.33582428 0.36453018 0.76333696 0.5333241 0.9947211 0.30009905
0.26802853 0.3 0.031971544 0.3415842 0.8755784 -0.34158853 0.9947211 0.28892344
-0.26802853 -0.26802853 5.9604645e-08 -0.45380613 -0.46325627 -0.76121855 0.97500515 0.28774756
-0.20723525 -0.3 0.031971544 -0.11555351 -0.9296345 -0.34989575 0.9772411 0.28892344
-0.3 -0.26802853 0.052375272 -0.82162595 -0.52300775 -0.2267019 0.9738292 0.2896739
-0.26802853 0.26802853 5.9604645e-08 -0.3415835 0.3415871 -0.87557924 0.97500515 0.30646712
-0.3 0.26802853 0.031971544 -0.8757133 0.3411845 -0.34164235 0.9738292 0.30646712
-0.26802853 0.3 0.031971544 -0.34179378 0.8763186 -0.33947423 0.97500515 0.307643
-0.26802853 0.26802853 0.6000001 -0.45373777 0.53623927 0.71173704 0.97500515 0.30981535
-0.17590103 0.3 0.515507 -0.06978967 0.9817026 0.17717056 0.97839355 0.3067077
-0.3 0.26802853 0.5291991 -0.79869497 0.5756609 0.17521681 0.9738292 0.3072113
0.26802853 -0.26802853 5.9604645e-08 0.49458328 -0.33301502 -0.8028004 0.9751783 0.28774756
0.26802853 -0.3 0.031971544 0.48560315 -0.8045271 -0.3419442 0.97400236 0.28892344
0.24004446 -0.24144876 0.6000001 0.42220712 -0.31973997 0.8482379 0.9936919 0.30981535
0.18110204 -0.3 0.56802857 0.14187784 -0.86656433 0.47847366 0.991524 0.30863944
0.3 -0.26802853 0.5146192 0.79217166 -0.55064625 0.26315913 0.99589705 0.30667508
0.26802853 0.26802853 5.9604645e-08 0.35136658 0.3302822 -0.87604517 0.9947211 0.30646712
0.26802853 0.3 0.031971544 0.3415842 0.8755784 -0.34158853 0.9947211 0.307643
0.3 0.26802853 0.031971544 0.8765593 0.32864994 -0.351615 0.99589705 0.30646712
0.26802853 0.24828306 0.6000001 0.36001137 0.35476482 0.8628638 0.99416804 0.30981535
0.3 0.23732604 0.56802857 0.90025854 0.23834696 0.36431503 0.99376506 0.30863944
0.26802853 0.28025454 0.56802857 0.3855716 0.8346167 0.39338213 0.9953439 0.30863944
-0.26802853 -0.26802853 5.9604645e-08 -0.45380613 -0.46325627 -0.76121855 0.9751783 0.28774756
-0.3 0.26802853 0.031971544 -0.8757133 0.3411845 -0.34164235 0.99489427 0.28892344
-0.26802853 0.26802853 5.9604645e-08 -0.3415835 0.3415871 -0.87557924 0.99489427 0.28774756
-0.26802853 0.26802853 0.6000001 -0.45373777 0.53623927 0.71173704 0.99489427 0.30981535
-0.26802853 -0.22843927 0.6000001 -0.5040468 -0.2891721 0.8138283 0.9766343 0.30981535
-0.26802853 0.3 0.031971544 -0.34179378 0.8763186 -0.33947423 0.97500515 0.28892344
0.26802853 0.24828306 0.6000001 0.36001137 0.35476482 0.8628638 0.9947211 0.30981535
0.3 0.26802853 0.36478746 0.8000709 0.36695597 -0.47458398 0.99489427 0.3011643
0.26802853 0.26802853 5.9604645e-08 0.35136658 0.3302822 -0.87604517 0.99489427 0.28774756
0.24004446 -0.24144876 0.6000001 0.42220712 -0.31973997 0.8482379 0.9761559 0.30981535
0.26802853 -0.3 0.031971544 0.48560315 -0.8045271 -0.3419442 0.9947211 0.28892344
0.26802853 -0.26802853 5.9604645e-08 0.49458328 -0.33301502 -0.8028004 0.9947211 0.28675112
-0.20723525 -0.3 0.031971544 -0.11555351 -0.9296345 -0.34989575 0.9772411 0.2855752
-0.26802853 -0.26802853 5.9604645e-08 -0.45380613 -0.46325627 -0.76121855 0.97500515 0.28675112
0.3 0.26802853 0.33478114 0.7736946 0.35139456 0.52718 0.99589705 0.3000607
0.3 0.26802853 0.36478746 0.8000709 0.36695597 -0.47458398 0.99589705 0.30646712
0.21664615 0.3 0.34613368 0.07818324 0.9962201 0.037853025 0.99283135 0.307643
0.26802853 0.3 0.36106005 0.38808572 0.7895409 -0.47541013 0.9947211 0.307643
0.3 0.26802853 0.33478114 0.7736946 0.35139456 0.52718 0.99589705 0.30646712
0.26802853 0.3 0.33582428 0.36453018 0.76333696 0.5333241 0.9947211 0.307643
-0.23434392 -0.26802853 0.6000001 -0.3368362 -0.47592595 0.8124259 0.97624403 0.28675112
0.18110204 -0.3 0.56802857 0.14187784 -0.86656433 0.47847366 0.991524 0.2855752
0.24004446 -0.24144876 0.6000001 0.42220712 -0.31973997 0.8482379 0.9936919 0.2877287
-0.26802853 0.26802853 0.6000001 -0.45373777 0.53623927 0.71173704 0.97500515 0.30646712
-0.3 -0.26802853 0.46311462 -0.9064874 -0.40907267 0.104595535 0.9751783 0.30478075
-0.3 0.26802853 0.5291991 -0.79869497 0.5756609 0.17521681 0.99489427 0.3072113
-0.26802853 -0.3 0.47305623 -0.44196033 -0.887964 0.12724386 0.97500515 0.3051464
0.26802853 0.28025454 0.56802857 0.3855716 0.8346167 0.39338213 0.9947211 0.30863944
0.26802853 0.3 0.36106005 0.38808572 0.7895409 -0.47541013 0.9947211 0.3010272
0.3 0.26802853 0.031971544 0.8765593 0.32864994 -0.351615 0.99489427 0.28892344
0.3 0.26802853 0.33478114 0.7736946 0.35139456 0.52718 0.99489427 0.3000607
0.06349591 -0.2 0.7714826 0.075100884 -0.99699306 0.01909953 0.98564786 0.53789335
0.17951608 -0.2 0.97951615 0.3415798 -0.8755795 0.3415903 0.98718375 0.5406474
-0.17951608 -0.2 0.620484 -0.34158802 -0.87557584 -0.3415913 0.98243076 0.53589433
0.2 0.17951608 0.97951615 0.7180004 0.49295405 0.49139774 0.9872103 0.5406474
0.2 -0.08155508 0.79117876 0.9934968 -0.113309115 0.0111910105 0.9837541 0.5381541
0.2 -0.17951608 0.620484 0.87553686 -0.3421605 -0.34111786 0.9824573 0.53589433
0.13484132 0.17951608 1 0.12945783 0.37678322 0.9172106 0.98659235 0.5486973
-0.17951608 -0.17951608 1 -0.34770218 -0.33444384 0.87592834 0.98243076 0.54394424
0.17951608 -0.17951608 1 0.34173152 -0.34035116 0.87600267 0.98718375 0.54394424
-0.2 -0.17951608 0.620484 -0.87558335 -0.3415816 -0.34157854 0.9824573 0.53589433
-0.2 0.17183559 0.9641804 -0.8920454 0.4168601 0.17459355 0.98710865 0.5404444
-0.2 0.17951608 0.620484 -0.77113414 0.559514 -0.30380324 0.9872103 0.53589433
-0.109866425 0.2 0.62239003 -0.053480342 0.9205553 -0.38693407 0.9833528 0.53591955
0.13484132 0.2 0.97951615 0.12937424 0.9172195 0.37679 0.98659235 0.5406474
0.17951608 0.2 0.620484 0.47455996 0.73984396 -0.4768898 0.98718375 0.53589433
-0.17951608 -0.17951608 0.6000001 -0.34121066 -0.34121817 -0.8758685 0.98243076 0.54394424
-0.17951608 -0.2 0.620484 -0.34158802 -0.87557584 -0.3415913 0.98243076 0.54367304
-0.2 -0.17951608 0.620484 -0.87558335 -0.3415816 -0.34157854 0.98215955 0.54394424
-0.17951608 -0.2 0.97951615 -0.3415873 -0.87557906 0.34158373 0.98243076 0.54367304
-0.2 -0.17951608 0.97951615 -0.8761781 -0.33366758 0.3478188 0.98215955 0.54394424
-0.17951608 0.17951608 0.6000001 -0.34913513 0.5161157 -0.78213114 0.98243076 0.53562313
-0.2 0.17951608 0.620484 -0.77113414 0.559514 -0.30380324 0.98215955 0.53589433
-0.17951608 0.17951608 1 -0.48684853 0.42564633 0.7627606 0.98243076 0.5409186
-0.16204669 0.2 0.9776101 -0.27147624 0.9202506 0.28185022 0.982662 0.5406222
-0.2 0.17183559 0.9641804 -0.8920454 0.4168601 0.17459355 0.98215955 0.5404444
0.17951608 -0.17951608 0.6000001 0.34068385 -0.34128952 -0.87604564 0.98718375 0.54394424
0.2 -0.17951608 0.620484 0.87553686 -0.3421605 -0.34111786 0.98745495 0.54394424
0.17951608 -0.2 0.620484 0.34158507 -0.8755793 -0.3415853 0.98718375 0.54367304
0.17951608 -0.2 0.97951615 0.3415798 -0.8755795 0.3415903 0.98718375 0.54367304
0.2 -0.17951608 0.97951615 0.87557983 -0.3415846 0.3415845 0.98745495 0.54394424
0.17951608 0.15124573 0.60105246 0.36096618 0.18555474 -0.9139326 0.9868361 0.5356371
0.17951608 0.2 0.620484 0.47455996 0.73984396 -0.4768898 0.9874815 0.53589433
0.2 0.14220147 0.6194316 0.91231716 0.13771144 -0.38563347 0.98671633 0.5358804
0.2 0.17951608 0.97951615 0.7180004 0.49295405 0.49139774 0.98745495 0.5486973
0.13484132 0.2 0.97951615 0.12937424 0.9172195 0.37679 0.98659235 0.5489685
-0.2 0.17951608 0.620484 -0.77113414 0.559514 -0.30380324 0.98215955 0.5486973
-0.17951608 0.17951608 0.6000001 -0.34913513 0.5161157 -0.78213114 0.98243076 0.5486973
-0.17951608 -0.2 0.97951615 -0.3415873 -0.87557906 0.34158373 0.98243076 0.5406474
-0.2 -0.17951608 0.620484 -0.87558335 -0.3415816 -0.34157854 0.98215955 0.53589433
-0.17951608 -0.17951608 1 -0.34770218 -0.33444384 0.87592834 0.9824573 0.5409186
-0.2 -0.17951608 0.97951615 -0.8761781 -0.33366758 0.3478188 0.9824573 0.5406474
0.17951608 0.15124573 0.60105246 0.36096618 0.18555474 -0.9139326 0.98718375 0.54832304
-0.109866425 0.2 0.62239003 -0.053480342 0.9205553 -0.38693407 0.9833528 0.5489685
0.17951608 0.2 0.620484 0.47455996 0.73984396 -0.4768898 0.98718375 0.5489685
0.13484132 0.17951608 1 0.12945783 0.37678322 0.9172106 0.98659235 0.5409186
0.2 0.17951608 0.97951615 0.7180004 0.49295405 0.49139774 0.98745495 0.5406474
0.2 0.14220147 0.6194316 0.91231716 0.13771144 -0.38563347 0.98745495 0.54820335
0.2 -0.17951608 0.85657215 0.8560939 -0.42087376 -0.29994756 0.98745495 0.5390198
0.2 -0.17951608 0.97951615 0.87557983 -0.3415846 0.3415845 0.98745495 0.5406474
0.17951608 -0.2 0.76591533 0.30844465 -0.78406626 0.5386112 0.98718375 0.54367304
0.2 -0.08155508 0.79117876 0.9934968 -0.113309115 0.0111910105 0.98745495 0.5452411
0.06349591 -0.2 0.7714826 0.075100884 -0.99699306 0.01909953 0.98564786 0.54367304
0.17951608 -0.2 0.85542595 0.43430093 -0.846578 -0.30771518 0.98718375 0.54367304
0.17951608 -0.2 0.76591533 0.30844465 -0.78406626 0.5386112 0.98718375 0.5378196
0.2 -0.17951608 0.620484 0.87553686 -0.3421605 -0.34111786 0.98745495 0.53589433
0.2 -0.17951608 0.76947075 0.72614443 -0.3812004 0.5721893 0.98745495 0.5378667
0.2 0.032456562 1.3038107 0.97885966 0.13233528 0.15595241 0.98526347 0.5449406
0.2 -0.16342254 1.0365776 0.87558186 -0.34158298 -0.34158114 0.9826703 0.5414028
0.2 0.16342254 1.0365776 0.8839361 0.40304872 -0.23708394 0.9869973 0.5414028
-0.017356575 -0.16342254 1.4000001 -0.10486173 -0.38670743 0.9162214 0.9845775 0.5441573
-0.2 -0.06501046 1.3634226 -0.83029604 -0.1996092 0.52035064 0.98215955 0.54546016
-0.16342254 -0.2 1.3120261 -0.40837947 -0.8317059 0.3761538 0.9826438 0.54367304
-0.16342254 0.2 1.3634226 -0.3415862 0.8755787 0.34158576 0.9826438 0.54572976
0.16342254 0.2 1.0365776 0.40140557 0.8741787 -0.2732858 0.9869707 0.5414028
-0.0036294162 0.2 1.0365776 -0.07251942 0.8979826 -0.43401432 0.9847592 0.5414028
-0.16342254 -0.16342254 1.0000001 -0.34157965 -0.34157965 -0.87558365 0.9826438 0.5441573
-0.16342254 -0.2 1.0365776 -0.34158066 -0.8755837 -0.3415787 0.9826438 0.54367304
-0.2 -0.16342254 1.0365776 -0.87558 -0.34158435 -0.34158424 0.98215955 0.5441573
-0.16342254 0.16342254 1.4000001 -0.34158775 0.34158397 0.87557876 0.9826438 0.54848427
-0.16342254 0.2 1.3634226 -0.3415862 0.8755787 0.34158576 0.9826438 0.5489685
-0.2 0.16342254 1.3634226 -0.87557787 0.3415903 0.34158403 0.98215955 0.54848427
0.16342254 -0.16342254 1.0000001 0.34158596 -0.34158397 -0.8755796 0.9869707 0.5441573
0.2 -0.16342254 1.0365776 0.87558186 -0.34158298 -0.34158114 0.98745495 0.5441573
0.16342254 -0.2 1.0365776 0.34158415 -0.87557954 -0.3415857 0.9869707 0.54367304
0.16342254 -0.16342254 1.4000001 0.37907055 -0.3043494 0.8738861 0.9869707 0.5441573
0.16342254 -0.2 1.3634226 0.34158745 -0.87558174 0.34157673 0.9869707 0.54367304
0.2 -0.16342254 1.3634226 0.8804972 -0.2798536 0.38263118 0.98745495 0.5441573
0.16342254 0.16342254 1.0000001 0.3415822 0.34158388 -0.87558097 0.9869707 0.54848427
0.16342254 0.2 1.0365776 0.40140557 0.8741787 -0.2732858 0.9869707 0.5489685
0.2 0.16342254 1.0365776 0.8839361 0.40304872 -0.23708394 0.98745495 0.54848427
0.16342254 0.16342254 1.4000001 0.6567477 0.48481205 0.5776157 0.9869973 0.546214
0.12567176 0.2 1.3634226 0.40071 0.8722958 0.2802353 0.9874815 0.54572976
-0.16342254 0.10826064 1.0000001 -0.35039175 0.23239113 -0.9073147 0.9826438 0.547754
-0.2 0.14158551 1.0365776 -0.7673392 0.33075112 -0.54935807 0.98215955 0.5481951
-0.16342254 -0.027292132 1.4000001 -0.38442296 -0.117284685 0.9156765 0.9826438 0.5459595
0.12567176 0.2 1.3634226 0.40071 0.8722958 0.2802353 0.986471 0.5489685
0.16342254 0.2 1.0365776 0.40140557 0.8741787 -0.2732858 0.9874815 0.5414028
0.16342254 -0.16342254 1.4000001 0.37907055 -0.3043494 0.8738861 0.9826703 0.546214
0.16342254 -0.2 1.0365776 0.34158415 -0.87557954 -0.3415857 0.9869707 0.5414028
0.2 -0.16342254 1.3634226 0.8804972 -0.2798536 0.38263118 0.98745495 0.54572976
0.16342254 -0.2 1.3634226 0.34158745 -0.87558174 0.34157673 0.9869707 0.54572976
-0.16342254 -0.2 1.3120261 -0.40837947 -0.8317059 0.3761538 0.9826438 0.54504937
-0.16342254 -0.2 1.0365776 -0.34158066 -0.8755837 -0.3415787 0.9826438 0.5414028
-0.2 -0.16342254 1.0365776 -0.87558 -0.34158435 -0.34158424 0.98215955 0.5414028
0.022013947 0.16342254 1.0000001 -0.042801075 0.39321017 -0.9184519 0.9850987 0.54848427
-0.16342254 0.2 1.0759089 -0.34721822 0.8830185 -0.31578135 0.9826438 0.5419235
-0.2 0.16342254 1.3634226 -0.87557787 0.3415903 0.34158403 0.98215955 0.54572976
-0.2 -0.16342254 1.3132935 -0.8241644 -0.41858506 0.38149676 0.9826703 0.5450661
-0.2 0.16342254 1.3634226 -0.87557787 0.3415903 0.34158403 0.9869973 0.54572976
-0.2 0.14158551 1.0365776 -0.7673392 0.33075112 -0.54935807 0.98670816 0.5414028
-0.0036294162 0.2 1.0365776 -0.07251942 0.8979826 -0.43401432 0.9847592 0.5489685
-0.2 0.16342254 1.0546464 -0.76629007 0.5069757 -0.39468363 0.98215955 0.54848427
0.12850921 -0.2 1.7814848 0.32852513 -0.79907113 0.5035442 0.9865085 0.54367304
0.2 -0.18148486 1.7204393 0.8876425 -0.3834555 0.2550543 0.98745495 0.5439182
0.18148486 -0.063664794 1.8000001 0.42241767 -0.11697189 0.89882207 0.98720986 0.5454779
-0.21112816 -0.1703567 1.781485 -0.85731816 -0.31110126 0.41014826 0.9825785 0.5512643
-0.20590359 0.07308381 1.4800987 -0.9985303 0.04916679 -0.022801718 0.98580134 0.54727435
-0.20176439 -0.10540232 1.4185152 -0.86893904 -0.11138259 -0.48222286 0.98343843 0.5464591
-0.09099989 0.20631906 1.4716768 -0.069115445 0.99757534 -0.008154938 0.9836026 0.5471629
-0.17325819 0.20822668 1.7814848 -0.3123002 0.8637323 0.3955191 0.98251355 0.5512643
0.12546356 0.2 1.4680659 0.1524449 0.9823491 -0.10840181 0.9864682 0.5471151
-0.1703567 -0.21112816 1.781485 -0.30177712 -0.86320454 0.4047327 0.982552 0.54352576
-0.18148486 -0.18148486 1.8000001 -0.320913 -0.3209116 0.89108396 0.98240465 0.5439182
-0.21112816 -0.1703567 1.781485 -0.85731816 -0.31110126 0.41014826 0.9820123 0.54406554
-0.18148486 0.18148486 1.4 -0.29489186 0.34354854 -0.8916351 0.98240465 0.546214
-0.20822668 0.17325819 1.4185152 -0.8634054 0.31271735 -0.39590302 0.98205066 0.5464591
-0.17325819 0.20822668 1.4185152 -0.264212 0.8601153 -0.4363413 0.98251355 0.5464591
-0.18148486 0.18148486 1.8000001 -0.3226722 0.324289 0.88922405 0.98240465 0.5515094
-0.20822668 0.17325819 1.7814848 -0.8583674 0.32285836 0.39870808 0.98205066 0.5512643
0.18148486 -0.18148486 1.4 0.3595731 -0.32095405 -0.87618244 0.98720986 0.546214
0.2 -0.18148486 1.4185152 0.87750715 -0.31671286 -0.36010304 0.98745495 0.5464591
0.18148486 -0.2 1.4185152 0.3415866 -0.8755791 -0.34158424 0.98720986 0.5464591
0.18148486 0.18148486 1.4 0.52695775 0.55411834 -0.6444133 0.98720986 0.546214
0.2 0.1690487 1.4645585 0.85874826 0.50313205 -0.09700426 0.98745495 0.54706866
0.18148486 0.18148486 1.8000001 0.34543133 0.33829024 0.87534964 0.98720986 0.5515094
0.2 0.18148486 1.7814848 0.87611556 0.34719115 0.33448458 0.98745495 0.5512643
0.18148486 0.2 1.7814848 0.35680687 0.8735218 0.3311323 0.98720986 0.5512643
-0.1703567 -0.21112816 1.781485 -0.30177712 -0.86320454 0.4047327 0.982552 0.5512643
-0.2 -0.18148486 1.4400845 -0.85401285 -0.37648135 -0.3590599 0.98215955 0.54674464
-0.18148486 -0.2 1.4329648 -0.48393762 -0.7714044 -0.4132068 0.98240465 0.5466504
-0.18148486 0.18148486 1.8000001 -0.3226722 0.324289 0.88922405 0.98240465 0.54872334
-0.20822668 0.17325819 1.4983504 -0.7929117 0.34861106 -0.4997615 0.98205066 0.547516
0.18148486 0.18148486 1.8000001 0.34543133 0.33829024 0.87534964 0.98720986 0.54872334
-0.17325819 0.20822668 1.7814848 -0.3123002 0.8637323 0.3955191 0.98251355 0.5490774
0.18148486 -0.18148486 1.4 0.3595731 -0.32095405 -0.87618244 0.98243123 0.546214
0.2 0.1690487 1.4645585 0.85874826 0.50313205 -0.09700426 0.98707175 0.54706866
0.2 -0.18148486 1.4185152 0.87750715 -0.31671286 -0.36010304 0.98243123 0.5464591
0.2 -0.18148486 1.7204393 0.8876425 -0.3834555 0.2550543 0.98745495 0.5504561
0.18148486 -0.2 1.729116 0.4959649 -0.81018275 0.31244653 0.98720986 0.55057096
-0.14138749 -0.18148486 1.4 -0.18540609 -0.36318535 -0.91308326 0.9829355 0.546214
-0.16035621 -0.2 1.4185152 -0.28087032 -0.7797742 -0.5595214 0.9826844 0.5464591
0.11951759 -0.18148486 1.8000001 0.25755957 -0.37549976 0.8903163 0.9863895 0.5439182
-0.17325819 0.20822668 1.4373561 -0.3923944 0.822286 0.41215578 0.98251355 0.5467085
-0.20822668 0.17325819 1.4375963 -0.8197982 0.3960657 0.41359752 0.98205066 0.5467117
-0.09099989 0.20631906 1.4716768 -0.069115445 0.99757534 -0.008154938 0.9836026 0.5490521
-0.20822668 0.17325819 1.4375963 -0.8197982 0.3960657 0.41359752 0.98205066 0.5486145
-0.20590359 0.07308381 1.4800987 -0.9985303 0.04916679 -0.022801718 0.9820814 0.5472883
-0.20822668 0.17325819 1.4983504 -0.7929117 0.34861106 -0.4997615 0.98205066 0.5486145
0.2 0.18148486 1.7814848 0.87611556 0.34719115 0.33448458 0.9872364 0.5512643
0.2 -0.18148486 1.7204393 0.8876425 -0.3834555 0.2550543 0.98243123 0.5504561
0.18148486 -0.063664794 1.8000001 0.42241767 -0.11697189 0.89882207 0.98399097 0.5515094
0.18148486 0.18148486 1.8000001 0.34543133 0.33829024 0.87534964 0.9872364 0.5515094
-0.20176439 -0.10540232 1.4185152 -0.86893904 -0.11138259 -0.48222286 0.9821362 0.5449254
-0.14138749 -0.18148486 1.4 -0.18540609 -0.36318535 -0.91308326 0.9829355 0.5439182
-0.18148486 -0.2 1.4329648 -0.48393762 -0.7714044 -0.4132068 0.98240465 0.54367304
-0.18148486 -0.08988185 1.4 -0.3673343 -0.06204045 -0.9280175 0.98240465 0.54513085
-0.20822668 0.17325819 1.4185152 -0.8634054 0.31271735 -0.39590302 0.98205066 0.5486145
-0.18148486 0.18148486 1.4 -0.29489186 0.34354854 -0.8916351 0.98240465 0.54872334
0.18148486 0.18148486 1.4 0.52695775 0.55411834 -0.6444133 0.98720986 0.54872334
0.18049476 -0.2 2.1804948 0.3600714 -0.8761552 0.3204694 0.98719674 0.55654657
-0.13789052 -0.2 2.0184886 -0.07020435 -0.99750876 0.00690968 0.9829818 0.5544019
-0.18049476 -0.2 1.8195053 -0.34158355 -0.8755805 -0.341584 0.98241776 0.55176765
0.2 0.16803908 2.1143947 0.9280805 0.37217093 0.012468651 0.9870584 0.5556715
0.2 -0.13367245 1.8343627 0.9786528 -0.09694679 -0.1812187 0.9830642 0.5519643
0.2 0.18049476 1.8195053 0.76096445 0.56469434 -0.319458 0.98722327 0.55176765
-0.18049476 0.18049476 2.2000003 -0.34158248 0.34157816 0.8755832 0.98241776 0.5487103
0.18049476 -0.18049476 2.2000003 0.34158045 -0.34157962 0.8755834 0.98719674 0.5439313
0.18049476 0.18049476 2.2000003 0.55070645 0.32304102 0.7696538 0.98719674 0.5487103
-0.18049476 0.2 2.1804948 -0.3415862 0.8755786 0.3415863 0.98241776 0.55654657
0.11707658 0.2 1.876989 0.106226936 0.9905669 -0.0865624 0.9863572 0.5525286
-0.07449308 0.2 1.8195053 -0.18649611 0.8039953 -0.5646333 0.9838211 0.55176765
-0.18049476 -0.18049476 1.8000001 -0.34165683 -0.34156963 -0.8755574 0.98241776 0.5515094
-0.2 -0.18049476 1.8195053 -0.8755796 -0.3415859 -0.34158373 0.98215955 0.55176765
-0.18049476 -0.2 2.1804948 -0.34158278 -0.8755798 0.34158656 0.98241776 0.55654657
-0.18049476 -0.18049476 2.2000003 -0.34158435 -0.34158722 0.8755788 0.98241776 0.5568048
-0.2 -0.18049476 2.1804948 -0.87557584 -0.34158805 0.3415912 0.98215955 0.55654657
-0.18049476 0.18049476 2.2000003 -0.34158248 0.34157816 0.8755832 0.98241776 0.5568048
-0.2 0.18049476 2.1804948 -0.87557983 0.34158492 0.34158438 0.98215955 0.55654657
0.18439266 -0.18352425 1.8000001 0.56796736 -0.39630017 -0.7213594 0.98240423 0.5515094
0.18049476 -0.2 1.8195053 0.5270544 -0.80800414 -0.26333043 0.9821861 0.55176765
0.18049476 -0.18049476 2.2000003 0.34158045 -0.34157962 0.8755834 0.98719674 0.5568048
0.2 -0.18049476 2.1804948 0.87822986 -0.35888043 0.31609693 0.98745495 0.55654657
0.18049476 0.18049476 1.8000001 0.32943773 0.56041396 -0.75987303 0.98719674 0.5515094
0.2 0.18049476 1.8195053 0.76096445 0.56469434 -0.319458 0.98745495 0.55176765
0.18049476 0.18049476 2.2000003 0.55070645 0.32304102 0.7696538 0.98722327 0.5568048
0.18049476 0.2 2.1804948 0.5351047 0.7792483 0.3262442 0.9874815 0.55654657
-0.18049476 -0.011517569 1.8000001 -0.38530743 0.06440351 -0.9205382 0.9846813 0.5515094
-0.2 -0.18049476 1.8195053 -0.8755796 -0.3415859 -0.34158373 0.98244435 0.55176765
-0.2 0.01654543 1.8195053 -0.84382856 0.14253375 -0.5173369 0.9850528 0.55176765
-0.18049476 -0.2 2.0116353 -0.3467481 -0.7846658 0.51387286 0.98241776 0.55431116
-0.18049476 0.18049476 2.2000003 -0.34158248 0.34157816 0.8755832 0.98722327 0.5568048
-0.2 -0.18049476 2.1804948 -0.87557584 -0.34158805 0.3415912 0.98244435 0.55654657
-0.18049476 -0.18049476 2.2000003 -0.34158435 -0.34158722 0.8755788 0.98244435 0.5568048
0.18049476 0.18049476 2.2000003 0.55070645 0.32304102 0.7696538 0.98719674 0.5568048
0.2 0.16803908 2.1143947 0.9280805 0.37217093 0.012468651 0.98745495 0.5556715
0.18049476 0.2 2.1804948 0.5351047 0.7792483 0.3262442 0.98719674 0.55654657
0.18049476 0.18049476 1.8000001 0.32943773 0.56041396 -0.75987303 0.98722327 0.5515094
0.2 -0.18049476 2.1804948 0.87822986 -0.35888043 0.31609693 0.98244435 0.55654657
0.18049476 -0.2 2.1804948 0.3600714 -0.8761552 0.3204694 0.9821861 0.55654657
0.18049476 -0.2 1.8195053 0.5270544 -0.80800414 -0.26333043 0.98719674 0.55176765
0.18049476 0.18049476 1.8000001 0.32943773 0.56041396 -0.75987303 0.98719674 0.5487103
-0.18049476 -0.18049476 1.8000001 -0.34165683 -0.34156963 -0.8755574 0.98241776 0.5439313
-0.18049476 -0.011517569 1.8000001 -0.38530743 0.06440351 -0.9205382 0.98241776 0.5461683
-0.049133256 0.18049476 1.8000001 -0.06811923 0.4548591 -0.88795435 0.9841568 0.5515094
-0.2 0.18049476 1.8760309 -0.8357707 0.38118777 -0.39520022 0.98215955 0.5525159
-0.2 -0.122624725 2.027017 -0.99907255 -0.042990103 -0.0024511653 0.98321044 0.55451477
-0.2 0.18049476 2.1804948 -0.87557983 0.34158492 0.34158438 0.98722327 0.55654657
-0.07449308 0.2 1.8195053 -0.18649611 0.8039953 -0.5646333 0.9838211 0.5489685
-0.2 0.18049476 1.8760309 -0.8357707 0.38118777 -0.39520022 0.98215955 0.5487103
-0.2 -0.18049476 2.036553 -0.80997515 -0.34289795 -0.47577456 0.98215955 0.554641
-0.13789052 -0.2 2.0184886 -0.07020435 -0.99750876 0.00690968 0.9829818 0.54367304
-0.2 -0.18049476 2.036553 -0.80997515 -0.34289795 -0.47577456 0.98215955 0.5439313
-0.2 -0.122624725 2.027017 -0.99907255 -0.042990103 -0.0024511653 0.98215955 0.5446974
-0.2 -0.18049476 2.0131788 -0.7599401 -0.37790424 0.52884746 0.98215955 0.5439313
-0.2224757 -0.3 0.56802857 -0.28740272 -0.87711793 0.3847908 0.97400236 0.30863944
-0.3 -0.26802853 0.052375272 -0.82162595 -0.52300775 -0.2267019 0.9751783 0.2896739
-0.3 0.26802853 0.031971544 -0.8757133 0.3411845 -0.34164235 0.9738292 0.28892344
0.26802853 0.3 0.36106005 0.38808572 0.7895409 -0.47541013 0.9960702 0.3010272
0.3 -0.23902288 0.0676623 0.96654034 -0.18264517 -0.18011303 0.99589705 0.29023615
0.26802853 -0.3 0.031971544 0.48560315 -0.8045271 -0.3419442 0.9947211 0.2855752
0.3 0.26802853 0.031971544 0.8765593 0.32864994 -0.351615 0.99589705 0.28892344
0.3 0.18027116 0.34952793 0.99945647 0.03296683 -0.00021124617 0.99589705 0.30323943
-0.2224757 -0.3 0.56802857 -0.28740272 -0.87711793 0.3847908 0.9766806 0.2855752
0.26802853 0.24828306 0.6000001 0.36001137 0.35476482 0.8628638 0.9947211 0.3057409
-0.26802853 -0.22843927 0.6000001 -0.5040468 -0.2891721 0.8138283 0.97500515 0.2882072
-0.2224757 -0.3 0.56802857 -0.28740272 -0.87711793 0.3847908 0.9766806 0.30863944
-0.3 -0.26802853 0.46311462 -0.9064874 -0.40907267 0.104595535 0.9738292 0.30478075
0.17951608 -0.2 0.620484 0.34158507 -0.8755793 -0.3415853 0.98718375 0.53589433
0.17951608 -0.2 0.85542595 0.43430093 -0.846578 -0.30771518 0.98718375 0.5390046
0.2 -0.17951608 0.97951615 0.87557983 -0.3415846 0.3415845 0.9824573 0.5406474
0.2 -0.17951608 0.85657215 0.8560939 -0.42087376 -0.29994756 0.9824573 0.5390198
0.2 -0.17951608 0.76947075 0.72614443 -0.3812004 0.5721893 0.9824573 0.5378667
-0.17951608 0.17951608 1 -0.48684853 0.42564633 0.7627606 0.98243076 0.5486973
-0.2 -0.17951608 0.97951615 -0.8761781 -0.33366758 0.3478188 0.98215955 0.5406474
-0.17951608 0.17951608 1 -0.48684853 0.42564633 0.7627606 0.9872103 0.5409186
0.2 0.14220147 0.6194316 0.91231716 0.13771144 -0.38563347 0.98745495 0.5358804
0.2 -0.17951608 0.76947075 0.72614443 -0.3812004 0.5721893 0.98745495 0.54394424
0.2 -0.17951608 0.85657215 0.8560939 -0.42087376 -0.29994756 0.98745495 0.54394424
0.2 -0.16342254 1.3634226 0.8804972 -0.2798536 0.38263118 0.9826703 0.54572976
-0.055158198 -0.2 1.3634226 -0.18317623 -0.8387675 0.51275283 0.98407704 0.54367304
-0.2 -0.16342254 1.3132935 -0.8241644 -0.41858506 0.38149676 0.98215955 0.5441573
0.12567176 0.2 1.3634226 0.40071 0.8722958 0.2802353 0.986471 0.54572976
0.16342254 0.16342254 1.4000001 0.6567477 0.48481205 0.5776157 0.9869707 0.54848427
0.2 -0.16342254 1.0365776 0.87558186 -0.34158298 -0.34158114 0.98745495 0.5414028
-0.055158198 -0.2 1.3634226 -0.18317623 -0.8387675 0.51275283 0.98407704 0.54572976
-0.2 -0.16342254 1.3132935 -0.8241644 -0.41858506 0.38149676 0.98215955 0.5450661
-0.2 0.16342254 1.0546464 -0.76629007 0.5069757 -0.39468363 0.98215955 0.541642
-0.2 -0.16342254 1.0365776 -0.87558 -0.34158435 -0.34158424 0.9826703 0.5414028
-0.2 -0.06501046 1.3634226 -0.83029604 -0.1996092 0.52035064 0.98397315 0.54572976
-0.2 0.16342254 1.0546464 -0.76629007 0.5069757 -0.39468363 0.9869973 0.541642
-0.16342254 0.2 1.0759089 -0.34721822 0.8830185 -0.31578135 0.9826438 0.5489685
0.18148486 -0.2 1.729116 0.4959649 -0.81018275 0.31244653 0.98720986 0.54367304
0.2 -0.06407263 1.7814848 0.89748275 -0.118752405 0.4247617 0.98745495 0.54547256
-0.2 -0.18148486 1.4400845 -0.85401285 -0.37648135 -0.3590599 0.98243123 0.54674464
-0.20822668 0.17325819 1.7814848 -0.8583674 0.32285836 0.39870808 0.9871275 0.5512643
-0.20822668 0.17325819 1.4983504 -0.7929117 0.34861106 -0.4997615 0.9871275 0.547516
-0.20822668 0.17325819 1.4375963 -0.8197982 0.3960657 0.41359752 0.9871275 0.5467117
-0.20822668 0.17325819 1.4185152 -0.8634054 0.31271735 -0.39590302 0.9871275 0.5464591
-0.17325819 0.20822668 1.4957577 -0.380148 0.7784264 -0.49953964 0.98251355 0.54748166
-0.21112816 -0.1703567 1.781485 -0.85731816 -0.31110126 0.41014826 0.9820123 0.5512643
-0.20822668 0.17325819 1.7814848 -0.8583674 0.32285836 0.39870808 0.98205066 0.5486145
0.18148486 0.2 1.7814848 0.35680687 0.8735218 0.3311323 0.98720986 0.5489685
0.18148486 0.18148486 1.4 0.52695775 0.55411834 -0.6444133 0.9872364 0.546214
-0.17325819 0.20822668 1.4373561 -0.3923944 0.822286 0.41215578 0.98251355 0.5490774
-0.17325819 0.20822668 1.4957577 -0.380148 0.7784264 -0.49953964 0.98251355 0.5490774
0.2 -0.06407263 1.7814848 0.89748275 -0.118752405 0.4247617 0.9839856 0.5512643
0.12850921 -0.2 1.7814848 0.32852513 -0.79907113 0.5035442 0.9865085 0.5512643
-0.2 -0.18148486 1.4400845 -0.85401285 -0.37648135 -0.3590599 0.98215955 0.5439182
-0.16035621 -0.2 1.4185152 -0.28087032 -0.7797742 -0.5595214 0.9826844 0.54367304
0.18148486 -0.18148486 1.4 0.3595731 -0.32095405 -0.87618244 0.98720986 0.5439182
-0.18049476 -0.2 2.0330863 -0.409708 -0.75816804 -0.5072678 0.98241776 0.5545951
-0.18049476 -0.18049476 2.2000003 -0.34158435 -0.34158722 0.8755788 0.98241776 0.5439313
-0.18049476 0.2 1.872926 -0.4314461 0.79811585 -0.42055377 0.98241776 0.5524748
-0.18049476 -0.18049476 1.8000001 -0.34165683 -0.34156963 -0.8755574 0.98244435 0.5515094
-0.2 -0.18049476 2.0131788 -0.7599401 -0.37790424 0.52884746 0.98215955 0.55433154
0.18049476 -0.18049476 2.2000003 0.34158045 -0.34157962 0.8755834 0.98244435 0.5568048
0.18439266 -0.18352425 1.8000001 0.56796736 -0.39630017 -0.7213594 0.98724836 0.5515094
-0.049133256 0.18049476 1.8000001 -0.06811923 0.4548591 -0.88795435 0.9841568 0.5487103
0.18439266 -0.18352425 1.8000001 0.56796736 -0.39630017 -0.7213594 0.98724836 0.5438912
-0.2 -0.18049476 2.0131788 -0.7599401 -0.37790424 0.52884746 0.98244435 0.55433154
-0.2 -0.18049476 2.036553 -0.80997515 -0.34289795 -0.47577456 0.98244435 0.554641
-0.2 0.18049476 1.8760309 -0.8357707 0.38118777 -0.39520022 0.98722327 0.5525159
-0.18049476 0.2 1.872926 -0.4314461 0.79811585 -0.42055377 0.98241776 0.5489685
-0.2 0.01654543 1.8195053 -0.84382856 0.14253375 -0.5173369 0.98215955 0.54653984
-0.18049476 -0.2 2.0330863 -0.409708 -0.75816804 -0.5072678 0.98241776 0.54367304
-0.18049476 -0.2 2.0116353 -0.3467481 -0.7846658 0.51387286 0.98241776 0.54367304
3 0 1 2
3 3 4 5
3 6 7 8
3 9 10 11
3 12 13 14
3 15 16 17
3 18 1 19
3 20 21 22
3 23 24 25
3 26 27 28
3 29 30 31
3 32 3 33
3 34 17 16
3 12 24 23
3 35 16 15
3 36 28 27
3 37 1 18
3 38 27 26
3 39 22 21
3 40 41 42
3 23 42 12
3 43 8 7
3 44 45 46
3 45 47 48
3 49 50 51
3 52 49 51
3 53 54 30
3 21 55 10
3 55 11 10
3 8 34 6
3 34 16 6
3 16 56 6
3 56 57 6
3 1 58 2
3 58 59 2
3 2 36 27
3 27 0 2
3 60 61 62
3 63 64 65
3 66 67 68
3 69 70 71
3 72 73 74
3 75 76 77
3 78 67 79
3 80 81 72
3 82 83 84
3 85 86 87
3 68 88 89
3 90 91 92
3 66 93 94
3 75 95 96
3 97 98 62
3 99 70 100
3 72 84 83
3 101 102 103
3 104 83 82
3 105 74 73
3 85 106 86
3 68 93 66
3 61 107 108
3 85 76 75
3 67 88 68
3 101 75 96
3 109 110 111
3 110 112 111
3 113 114 115
3 116 117 118
3 119 120 121
3 122 123 124
3 125 126 127
3 128 129 130
3 131 132 133
3 134 135 136
3 137 138 139
3 140 116 141
3 142 127 143
3 144 130 120
3 128 145 129
3 116 146 141
3 137 132 131
3 147 116 140
3 148 149 150
3 131 126 125
3 137 125 142
3 119 135 134
3 128 119 134
3 150 151 152
3 151 153 152
3 154 138 137
3 155 156 122
3 157 158 159
3 160 142 161
3 162 163 164
3 165 166 167
3 168 169 170
3 171 172 173
3 174 175 176
3 177 169 178
3 179 180 181
3 182 170 183
3 184 185 186
3 187 188 189
3 190 173 172
3 169 191 178
3 174 170 182
3 192 193 190
3 183 186 185
3 194 195 196
3 181 197 198
3 199 181 200
3 201 171 162
3 202 175 203
3 204 205 206
3 207 204 206
3 208 209 196
3 190 201 164
3 210 208 211
3 198 187 200
3 212 213 214
3 215 216 217
3 218 213 215
3 219 220 221
3 222 223 224
3 225 226 227
3 228 229 230
3 231 221 232
3 233 234 235
3 236 228 237
3 238 223 239
3 240 219 241
3 242 229 243
3 244 222 245
3 246 247 248
3 249 232 221
3 250 251 252
3 253 228 236
3 254 229 255
3 256 223 238
3 244 257 222
3 258 223 257
3 231 259 221
3 234 219 240
3 260 261 262
3 263 229 242
3 228 264 237
3 265 266 248
3 267 262 268
3 269 233 235
3 270 271 272
3 273 270 272
3 5 33 3
3 3 53 4
3 4 274 5
3 29 275 30
3 32 54 3
3 34 276 17
3 12 14 24
3 35 56 16
3 36 277 28
3 37 58 1
3 38 0 27
3 39 278 22
3 40 279 41
3 23 40 42
3 43 280 8
3 44 281 45
3 45 281 47
3 49 282 50
3 51 283 52
3 52 284 49
3 30 275 53
3 53 3 54
3 10 39 21
3 21 285 55
3 55 286 11
3 62 287 113
3 60 288 61
3 62 113 60
3 61 97 62
3 65 92 63
3 63 289 290
3 64 291 65
3 63 290 64
3 66 292 67
3 69 100 70
3 72 83 73
3 75 77 95
3 97 293 98
3 99 294 70
3 72 81 84
3 101 96 102
3 104 73 83
3 105 295 74
3 85 101 106
3 68 89 93
3 61 288 107
3 85 87 76
3 67 78 88
3 101 85 75
3 109 296 110
3 110 297 112
3 113 287 114
3 116 298 117
3 121 299 119
3 119 144 120
3 120 300 121
3 124 155 122
3 122 301 123
3 142 125 127
3 144 128 130
3 128 302 145
3 116 118 146
3 137 139 132
3 147 298 116
3 148 303 149
3 131 133 126
3 142 154 137
3 137 131 125
3 119 299 135
3 134 302 128
3 128 144 119
3 152 148 150
3 150 304 151
3 151 305 153
3 154 160 138
3 155 306 156
3 159 307 157
3 157 308 158
3 158 309 159
3 161 310 160
3 160 154 142
3 142 143 161
3 164 201 162
3 162 311 163
3 163 312 164
3 167 313 165
3 165 314 315
3 166 316 317
3 165 315 166
3 166 317 167
3 170 176 202
3 168 318 169
3 170 202 168
3 169 186 170
3 187 319 188
3 190 320 173
3 169 318 191
3 174 176 170
3 192 321 193
3 183 170 186
3 194 322 195
3 181 180 197
3 199 179 181
3 201 172 171
3 202 176 175
3 204 323 205
3 207 324 204
3 196 195 208
3 208 325 209
3 164 192 190
3 190 172 201
3 210 325 208
3 200 181 198
3 198 326 187
3 187 189 200
3 214 327 212
3 212 215 213
3 213 328 214
3 215 212 216
3 215 217 218
3 218 329 213
3 221 259 219
3 219 233 330
3 220 249 221
3 219 330 220
3 222 257 223
3 225 331 226
3 230 332 228
3 228 255 229
3 246 333 247
3 249 334 232
3 250 266 251
3 253 255 228
3 254 243 229
3 256 224 223
3 244 335 257
3 258 239 223
3 231 336 259
3 234 233 219
3 262 337 260
3 260 338 261
3 263 230 229
3 228 332 264
3 248 247 339
3 265 340 251
3 248 339 265
3 266 341 248
3 265 251 266
3 268 342 267
3 267 337 262
3 262 343 268
3 269 330 233
3 270 344 271
3 273 345 270
