ply
format ascii 1.0
comment Created in Blender version 4.3.2
element vertex 80
property float x
property float y
property float z
property float nx
property float ny
property float nz
property float s
property float t
element face 76
property list uchar uint vertex_indices
end_header
1.10765 -0.21866556 0.022789747 0.00045945347 -0.9521436 -0.30565065 0.9820592 0.2959162
0.32295036 -0.1527111 0.5772104 -0.34009242 -0.84347814 0.41579062 0.9749665 0.30092734
0.32295036 -0.21866556 0.022789747 -0.34650877 -0.8995367 -0.2660179 0.9749665 0.2959162
2.7 0.12961799 0.57704973 0.8705087 0.32680392 0.36798623 0.98687696 0.3009259
2.7 -0.19553423 0.02295044 0.8836309 -0.37819386 -0.27598172 0.9839381 0.29591763
2.7 0.19553423 0.02295044 0.88284785 0.35116634 -0.31186837 0.9874728 0.29591763
0.32295036 0.12704961 0.6000001 -0.33872733 0.31306383 0.88727385 0.9749665 0.29955196
1.10765 -0.12704961 0.6000001 0.0026844812 -0.4346252 0.9006074 0.9820592 0.29725528
1.1076502 0.12704961 0.6000001 0 0.35517776 0.9347989 0.9820592 0.29955196
0.29999995 -0.12961799 0.57704973 -0.8705088 -0.32680383 0.36798605 0.98453385 0.3009259
0.29999995 0.19553423 0.02295044 -0.88284427 0.3511707 -0.3118738 0.9874728 0.29591763
0.29999995 -0.19553423 0.02295044 -0.8828477 -0.3511667 -0.31186843 0.9839381 0.29591763
2.0957904 0.21025805 0.46707737 0.015074203 0.9461889 0.32326353 0.9909905 0.29993188
2.6770496 0.21866556 0.022789747 0.3636103 0.88867193 -0.2793738 0.9962443 0.2959162
2.0441916 0.26551872 0.08246823 0.008661346 0.9685771 -0.24856271 0.9905242 0.29645556
0.32295036 -0.19842625 5.9604645e-08 -0.3465088 -0.37041894 -0.8618129 0.9839119 0.29571015
0.32295036 -0.21866556 0.022789747 -0.34650877 -0.8995367 -0.2660179 0.983729 0.2959162
0.32295036 -0.1527111 0.5772104 -0.34009242 -0.84347814 0.41579062 0.9749665 0.29702336
0.32295036 -0.12704961 0.6000001 -0.33872664 -0.3130569 0.8872766 0.9749665 0.29725528
0.29999995 -0.12961799 0.57704973 -0.8705088 -0.32680383 0.36798605 0.97475916 0.2972321
0.32295036 0.19842625 5.9604645e-08 -0.34650898 0.3704149 -0.86181456 0.9874989 0.29571015
0.32295036 0.21866556 0.022789747 -0.34650782 0.8995384 -0.2660131 0.98768187 0.2959162
0.32295036 0.1527111 0.5772104 -0.33872238 0.84408236 0.4156828 0.9749665 0.29978395
0.29999995 0.12961799 0.57704973 -0.870507 0.3268109 0.367984 0.97475916 0.2995752
2.6770496 -0.19842625 5.9604645e-08 0.30641168 -0.40592507 -0.86100924 0.9839119 0.29571015
2.6770496 -0.21866556 0.022789747 0.31969562 -0.9098922 -0.26436916 0.983729 0.2959162
2.6770496 -0.12704961 0.6000001 0.32996008 -0.5129665 0.79245925 0.9962443 0.30113333
2.5666165 -0.1555998 0.5529276 0.054413702 -0.95145595 0.30293688 0.9952462 0.30070788
2.7 -0.12961799 0.57704973 0.7529683 -0.55521387 0.353237 0.9964517 0.3009259
2.6770496 0.19842625 5.9604645e-08 0.3448848 0.3718697 -0.86183953 0.9874989 0.29571015
2.6770496 0.21866556 0.022789747 0.3636103 0.88867193 -0.2793738 0.98768187 0.2959162
2.6770496 0.12704961 0.6000001 0.3231535 0.3273946 0.88791025 0.9962443 0.29955196
2.7 0.12961799 0.57704973 0.8705087 0.32680392 0.36798623 0.9964517 0.2995752
2.6770496 0.1527111 0.5772104 0.3341584 0.8331435 0.4406928 0.9962443 0.29978395
0.32295036 -0.19842625 5.9604645e-08 -0.3465088 -0.37041894 -0.8618129 0.9749665 0.29661018
0.29999995 0.19553423 0.02295044 -0.88284427 0.3511707 -0.3118738 0.97475916 0.30017102
0.32295036 0.19842625 5.9604645e-08 -0.34650898 0.3704149 -0.86181456 0.9749665 0.30019712
0.32295036 -0.1527111 0.5772104 -0.34009242 -0.84347814 0.41579062 0.9843251 0.30092734
0.32295036 0.1527111 0.5772104 -0.33872238 0.84408236 0.4156828 0.98708564 0.30092734
0.29999995 0.12961799 0.57704973 -0.870507 0.3268109 0.367984 0.98687696 0.3009259
0.32295036 0.19842625 5.9604645e-08 -0.34650898 0.3704149 -0.86181456 0.9749665 0.29571015
1.1076502 0.21866556 0.022789747 -0.0149922855 0.95127046 -0.30799305 0.9820592 0.2959162
1.10765 0.19842625 5.9604645e-08 0 0.40986264 -0.9121473 0.9820592 0.29571015
2.6770496 0.12704961 0.6000001 0.3231535 0.3273946 0.88791025 0.9962443 0.30113333
1.89235 0.12704961 0.6000001 0.005164855 0.47756633 0.87858063 0.9891517 0.30113333
2.6770496 0.1527111 0.5772104 0.3341584 0.8331435 0.4406928 0.98708564 0.30092734
2.6770496 0.19842625 5.9604645e-08 0.3448848 0.3718697 -0.86183953 0.9962443 0.30019712
2.7 -0.19553423 0.02295044 0.8836309 -0.37819386 -0.27598172 0.9964517 0.29663628
2.6770496 -0.19842625 5.9604645e-08 0.30641168 -0.40592507 -0.86100924 0.9962443 0.29661018
2.7 -0.12961799 0.57704973 0.7529683 -0.55521387 0.353237 0.9964517 0.2972321
2.7 -0.19553423 0.02295044 0.8836309 -0.37819386 -0.27598172 0.9964517 0.29591763
2.6770496 -0.19842625 5.9604645e-08 0.30641168 -0.40592507 -0.86100924 0.9962443 0.29571015
2.1874728 -0.20410636 0.14517602 -0.00046038712 -0.9991916 0.040199764 0.9918192 0.29702234
1.89235 -0.19842625 5.9604645e-08 0.013286438 -0.67564946 -0.7371034 0.9891517 0.29571015
1.10765 -0.12704961 0.6000001 0.0026844812 -0.4346252 0.9006074 0.9820592 0.30113333
1.1419129 -0.16800418 0.5479426 0.0019493329 -0.9302213 0.36699393 0.9823688 0.30066282
1.89235 -0.19842625 5.9604645e-08 0.013286438 -0.67564946 -0.7371034 0.9891517 0.29661018
1.8923498 0.19842625 5.9604645e-08 0.0006983245 0.42843094 -0.90357435 0.9891517 0.30019712
1.10765 0.19842625 5.9604645e-08 0 0.40986264 -0.9121473 0.9820592 0.30019712
1.1076502 -0.19842625 5.9604645e-08 0 -0.4098641 -0.9121466 0.9820592 0.29661018
1.8923498 -0.12704961 0.6000001 0.0021763914 -0.3610443 0.9325461 0.9891517 0.30113333
1.89235 -0.1527111 0.5772104 0.0039007415 -0.8832022 0.46897623 0.9891517 0.30092734
1.1076502 -0.19842625 5.9604645e-08 0 -0.4098641 -0.9121466 0.9820592 0.29571015
0.32295036 -0.19842625 5.9604645e-08 -0.3465088 -0.37041894 -0.8618129 0.9749665 0.29571015
1.10765 0.1527111 0.5772104 -0.0127404975 0.8820516 0.47098058 0.9820592 0.30092734
1.1076502 0.12704961 0.6000001 0 0.35517776 0.9347989 0.9820592 0.30113333
2.6770496 0.19842625 5.9604645e-08 0.3448848 0.3718697 -0.86183953 0.9962443 0.29571015
1.8923498 0.19842625 5.9604645e-08 0.0006983245 0.42843094 -0.90357435 0.9891517 0.29571015
0.32295036 0.21866556 0.022789747 -0.34650782 0.8995384 -0.2660131 0.9749665 0.2959162
1.89235 0.12704961 0.6000001 0.005164855 0.47756633 0.87858063 0.9891517 0.29955196
2.6770496 -0.12704961 0.6000001 0.32996008 -0.5129665 0.79245925 0.9962443 0.29725528
1.8923498 -0.12704961 0.6000001 0.0021763914 -0.3610443 0.9325461 0.9891517 0.29725528
2.6770496 -0.21866556 0.022789747 0.31969562 -0.9098922 -0.26436916 0.9962443 0.2959162
2.7 -0.12961799 0.57704973 0.7529683 -0.55521387 0.353237 0.98453385 0.3009259
2.6770496 0.1527111 0.5772104 0.3341584 0.8331435 0.4406928 0.9962443 0.30092734
0.29999995 -0.19553423 0.02295044 -0.8828477 -0.3511667 -0.31186843 0.97475916 0.29663628
2.7 0.19553423 0.02295044 0.88284785 0.35116634 -0.31186837 0.9964517 0.30017102
0.32295036 -0.12704961 0.6000001 -0.33872664 -0.3130569 0.8872766 0.9749665 0.30113333
1.10765 0.1527111 0.5772104 -0.0127404975 0.8820516 0.47098058 0.9820592 0.29978395
0.32295036 0.1527111 0.5772104 -0.33872238 0.84408236 0.4156828 0.9749665 0.30092734
3 0 1 2
3 3 4 5
3 6 7 8
3 9 10 11
3 12 13 14
3 15 16 11
3 17 18 19
3 20 10 21
3 6 22 23
3 24 4 25
3 26 27 28
3 29 30 5
3 31 32 33
3 34 35 36
3 37 11 16
3 18 23 19
3 38 10 39
3 40 41 42
3 43 12 44
3 5 45 3
3 46 47 48
3 31 49 32
3 27 50 28
3 51 52 53
3 54 1 55
3 46 56 57
3 58 34 36
3 57 59 58
3 60 27 26
3 60 55 61
3 62 2 63
3 53 0 62
3 8 22 6
3 44 64 65
3 66 14 13
3 67 41 14
3 68 64 41
3 64 14 41
3 69 70 31
3 8 71 69
3 27 52 72
3 61 0 52
3 0 55 1
3 3 73 4
3 6 18 7
3 9 39 10
3 12 74 13
3 34 75 35
3 37 9 11
3 18 6 23
3 38 21 10
3 40 68 41
3 43 74 12
3 5 30 45
3 46 76 47
3 31 70 49
3 27 72 50
3 51 72 52
3 54 77 1
3 46 48 56
3 58 59 34
3 57 56 59
3 60 61 27
3 60 54 55
3 62 0 2
3 53 52 0
3 8 78 22
3 44 12 64
3 66 67 14
3 67 42 41
3 68 79 64
3 64 12 14
3 69 71 70
3 8 7 71
3 27 61 52
3 61 55 0
