{
	"asset":{
		"generator":"Khronos glTF Blender I/O v4.3.47",
		"version":"2.0"
	},
	"scene":0,
	"scenes":[
		{
			"name":"Scene",
			"nodes":[
				31
			]
		}
	],
	"nodes":[
		{
			"mesh":0,
			"name":"BoundingBox",
			"translation":[
				0,
				0.962812066078186,
				0
			]
		},
		{
			"mesh":1,
			"name":"FootLeft.001",
			"translation":[
				0,
				-0.6797356605529785,
				0
			]
		},
		{
			"mesh":2,
			"name":"FootRight.001",
			"translation":[
				0,
				-0.6797356605529785,
				0
			]
		},
		{
			"mesh":3,
			"name":"HandLeft.001",
			"rotation":[
				0,
				0,
				-0.007556017022579908,
				0.9999715089797974
			],
			"translation":[
				0.38551831245422363,
				0.014565646648406982,
				0
			]
		},
		{
			"mesh":4,
			"name":"HandRight.001",
			"rotation":[
				0,
				0,
				0.007556017022579908,
				0.9999715089797974
			],
			"translation":[
				-0.3604905605316162,
				-0.034883737564086914,
				-0.007984638214111328
			]
		},
		{
			"mesh":5,
			"name":"RibCage",
			"translation":[
				0,
				0.3644402027130127,
				-0.09834909439086914
			]
		},
		{
			"mesh":6,
			"name":"SkullHead",
			"translation":[
				0,
				0.6303980350494385,
				0
			]
		},
		{
			"name":"HeadBone",
			"rotation":[
				0,
				-1.4210854715202004e-14,
				0,
				1
			],
			"scale":[
				1,
				0.9999999403953552,
				1
			],
			"translation":[
				4.146897936152527e-09,
				0.06843245029449463,
				3.255695446569007e-08
			]
		},
		{
			"children":[
				7
			],
			"name":"NeckBone",
			"translation":[
				4.146897936152527e-09,
				0.43725109100341797,
				3.255695446569007e-08
			]
		},
		{
			"name":"HandLeft",
			"rotation":[
				9.158804203934778e-08,
				1.1382891074163126e-08,
				-0.1647966206073761,
				0.986327588558197
			],
			"scale":[
				0.9999999403953552,
				1,
				1
			],
			"translation":[
				7.791129519318929e-08,
				0.198367178440094,
				-2.62199250755657e-07
			]
		},
		{
			"children":[
				9
			],
			"name":"ArmLowerLeftBone",
			"rotation":[
				1.3180623170683248e-07,
				-1.766282906601191e-07,
				-0.2797439396381378,
				0.9600746631622314
			],
			"scale":[
				1,
				0.9999999403953552,
				1
			],
			"translation":[
				9.693735592009034e-09,
				0.20235086977481842,
				1.1778772091020073e-07
			]
		},
		{
			"children":[
				10
			],
			"name":"ArmUpperLeftBone",
			"rotation":[
				2.0529344624264922e-07,
				-8.57153992228632e-08,
				-0.2842700779438019,
				0.9587442278862
			],
			"scale":[
				1,
				0.9999999403953552,
				1
			],
			"translation":[
				-1.7387878870067652e-07,
				0.24234500527381897,
				1.3879309790354455e-07
			]
		},
		{
			"children":[
				11
			],
			"name":"ShoulderLeftBone",
			"rotation":[
				3.6315441320766695e-07,
				1.314121504947252e-07,
				-0.7966711521148682,
				0.6044130325317383
			],
			"scale":[
				0.9999999403953552,
				0.9999999403953552,
				1
			],
			"translation":[
				4.146897936152527e-09,
				0.43725109100341797,
				3.255695446569007e-08
			]
		},
		{
			"name":"HandRight",
			"rotation":[
				1.1028529200984849e-07,
				-1.2328817433626682e-07,
				0.1647966206073761,
				0.986327588558197
			],
			"scale":[
				0.9999999403953552,
				1,
				1
			],
			"translation":[
				-7.791123834977043e-08,
				0.19836711883544922,
				-1.3231172601990693e-08
			]
		},
		{
			"children":[
				13
			],
			"name":"ArmLowerRightBone",
			"rotation":[
				1.3180621749597776e-07,
				1.766282906601191e-07,
				0.2797439396381378,
				0.9600746631622314
			],
			"scale":[
				1,
				0.9999999403953552,
				1
			],
			"translation":[
				-9.693735592009034e-09,
				0.20235075056552887,
				2.4160519274118997e-07
			]
		},
		{
			"children":[
				14
			],
			"name":"ArmUpperRightBone",
			"rotation":[
				2.0529344624264922e-07,
				8.57153992228632e-08,
				0.2842700779438019,
				0.9587442278862
			],
			"scale":[
				1,
				0.9999999403953552,
				1
			],
			"translation":[
				-1.9836306819343008e-08,
				0.24234500527381897,
				8.43672296468867e-08
			]
		},
		{
			"children":[
				15
			],
			"name":"ShoulderRightBone",
			"rotation":[
				1.7321316647667118e-07,
				-2.755154469014087e-07,
				0.7966711521148682,
				0.6044130325317383
			],
			"scale":[
				0.9999999403953552,
				0.9999999403953552,
				1
			],
			"translation":[
				4.146897936152527e-09,
				0.43725109100341797,
				3.255695446569007e-08
			]
		},
		{
			"name":"FootLeft",
			"rotation":[
				2.687427809178189e-07,
				-1.175775654616018e-08,
				-0.7071067690849304,
				0.7071067690849304
			],
			"translation":[
				1.1397548860259121e-07,
				0.33693331480026245,
				-2.2161663082442828e-07
			]
		},
		{
			"children":[
				17
			],
			"name":"LegLowerLeftBone",
			"rotation":[
				-3.8645517008717434e-08,
				-3.832838491035773e-09,
				0.08143173903226852,
				0.99667888879776
			],
			"scale":[
				0.9999999403953552,
				0.9999999403953552,
				1
			],
			"translation":[
				-1.581772721692687e-07,
				0.2902297079563141,
				-2.1309605813257804e-07
			]
		},
		{
			"children":[
				18
			],
			"name":"LegUpperLeftBone",
			"rotation":[
				-0.7064288854598999,
				-0.030963536351919174,
				-0.030963877215981483,
				0.7064281702041626
			],
			"scale":[
				1,
				1,
				1.0000001192092896
			],
			"translation":[
				1.0647273285258052e-07,
				0.1322205662727356,
				-1.7942795693670632e-08
			]
		},
		{
			"children":[
				19
			],
			"name":"FemurLeftBone",
			"rotation":[
				-0.49999964237213135,
				-0.5000002384185791,
				-0.49999988079071045,
				0.5000002384185791
			],
			"scale":[
				1,
				0.9999999403953552,
				1
			],
			"translation":[
				4.146897936152527e-09,
				0,
				3.255695446569007e-08
			]
		},
		{
			"name":"FootRight",
			"rotation":[
				2.2625712858825864e-07,
				1.0502283487312525e-07,
				0.7071067690849304,
				0.7071067690849304
			],
			"scale":[
				0.9999999403953552,
				0.9999999403953552,
				1
			],
			"translation":[
				-1.9444053123152116e-07,
				0.3369334936141968,
				-2.1939459315944987e-07
			]
		},
		{
			"children":[
				21
			],
			"name":"LegLowerRightBone",
			"rotation":[
				-3.880872512240785e-08,
				6.658262385883518e-09,
				-0.08141543716192245,
				0.9966802597045898
			],
			"translation":[
				-2.1996015675540548e-08,
				0.2902296781539917,
				1.0783342219156111e-08
			]
		},
		{
			"children":[
				22
			],
			"name":"LegUpperRightBone",
			"rotation":[
				-0.706429123878479,
				0.03095731884241104,
				0.030957665294408798,
				0.7064284682273865
			],
			"scale":[
				1,
				1,
				1.0000001192092896
			],
			"translation":[
				-1.0647148940279294e-07,
				0.1322203278541565,
				3.50187860931328e-08
			]
		},
		{
			"children":[
				23
			],
			"name":"FemurRightBone",
			"rotation":[
				-0.4999997615814209,
				0.5000001192092896,
				0.4999997615814209,
				0.5000003576278687
			],
			"translation":[
				4.146897936152527e-09,
				0,
				3.255695446569007e-08
			]
		},
		{
			"children":[
				8,
				12,
				16,
				20,
				24
			],
			"name":"TorsoBone",
			"rotation":[
				0,
				1.1920928955078125e-07,
				0,
				1
			],
			"translation":[
				0,
				-0.0020689964294433594,
				0
			]
		},
		{
			"name":"HandLeftIKController",
			"rotation":[
				-7.241339261554458e-08,
				-9.343663620597908e-10,
				0.9967423677444458,
				0.08065170794725418
			],
			"translation":[
				0.3975808620452881,
				0.021978557109832764,
				0
			]
		},
		{
			"name":"HandRightIKController",
			"rotation":[
				-1.8243503063786193e-07,
				-8.409297258538118e-09,
				-0.9967423677444458,
				0.08065170794725418
			],
			"translation":[
				-0.3975808620452881,
				0.021978557109832764,
				0
			]
		},
		{
			"name":"FootLeftIKController",
			"rotation":[
				0.4999999403953552,
				0.5000000596046448,
				0.5000001192092896,
				0.4999999403953552
			],
			"translation":[
				0.13222050666809082,
				-0.6271629333496094,
				0
			]
		},
		{
			"name":"FootRightIKController",
			"rotation":[
				-0.4999999403953552,
				-0.5000000596046448,
				0.4999999403953552,
				0.5000000596046448
			],
			"scale":[
				1,
				0.9999999403953552,
				1
			],
			"translation":[
				-0.13222050666809082,
				-0.6271629333496094,
				0
			]
		},
		{
			"children":[
				1,
				2,
				3,
				4,
				5,
				6,
				25,
				26,
				27,
				28,
				29
			],
			"name":"PlayerArmature.001",
			"translation":[
				0,
				0.6797356605529785,
				0
			]
		},
		{
			"children":[
				0,
				30
			],
			"name":"Skeleton",
			"translation":[
				3.1365537643432617,
				0,
				-3.017393112182617
			]
		}
	],
	"materials":[
		{
			"alphaMode":"MASK",
			"doubleSided":true,
			"name":"Air",
			"pbrMetallicRoughness":{
				"baseColorFactor":[
					0.9999925494194031,
					1,
					0.9999993443489075,
					0
				],
				"metallicFactor":0,
				"roughnessFactor":0.5
			}
		},
		{
			"doubleSided":true,
			"name":"MainMaterial",
			"pbrMetallicRoughness":{
				"baseColorTexture":{
					"index":0
				},
				"metallicFactor":0,
				"roughnessFactor":0.699999988079071
			}
		}
	],
	"meshes":[
		{
			"name":"Cube.016",
			"primitives":[
				{
					"attributes":{
						"POSITION":0,
						"NORMAL":1,
						"TEXCOORD_0":2
					},
					"indices":3,
					"material":0
				}
			]
		},
		{
			"name":"Cylinder.002",
			"primitives":[
				{
					"attributes":{
						"POSITION":4,
						"NORMAL":5,
						"TEXCOORD_0":6
					},
					"indices":7,
					"material":1
				}
			]
		},
		{
			"name":"Cylinder.005",
			"primitives":[
				{
					"attributes":{
						"POSITION":8,
						"NORMAL":9,
						"TEXCOORD_0":10
					},
					"indices":11,
					"material":1
				}
			]
		},
		{
			"name":"Cube.010",
			"primitives":[
				{
					"attributes":{
						"POSITION":12,
						"NORMAL":13,
						"TEXCOORD_0":14
					},
					"indices":15,
					"material":1
				}
			]
		},
		{
			"name":"Cube.017",
			"primitives":[
				{
					"attributes":{
						"POSITION":16,
						"NORMAL":17,
						"TEXCOORD_0":18
					},
					"indices":19,
					"material":1
				}
			]
		},
		{
			"name":"Cylinder.004",
			"primitives":[
				{
					"attributes":{
						"POSITION":20,
						"NORMAL":21,
						"TEXCOORD_0":22
					},
					"indices":23,
					"material":1
				}
			]
		},
		{
			"name":"Sphere.002",
			"primitives":[
				{
					"attributes":{
						"POSITION":24,
						"NORMAL":25,
						"TEXCOORD_0":26
					},
					"indices":27,
					"material":1
				}
			]
		}
	],
	"textures":[
		{
			"sampler":0,
			"source":0
		}
	],
	"images":[
		{
			"mimeType":"image/png",
			"name":"main-texture",
			"uri":"../../../textures/main-texture.png"
		}
	],
	"skins":[
		{
			"inverseBindMatrices":28,
			"joints":[
				25,
				8,
				7,
				12,
				11,
				10,
				9,
				16,
				15,
				14,
				13,
				20,
				19,
				18,
				17,
				24,
				23,
				22,
				21,
				26,
				27,
				28,
				29
			],
			"name":"PlayerArmature.001"
		}
	],
	"accessors":[
		{
			"bufferView":0,
			"componentType":5126,
			"count":24,
			"max":[
				0.3238343894481659,
				0.6660522818565369,
				0.2860667407512665
			],
			"min":[
				-0.3238343894481659,
				-0.962812066078186,
				-0.2860667407512665
			],
			"type":"VEC3"
		},
		{
			"bufferView":1,
			"componentType":5126,
			"count":24,
			"type":"VEC3"
		},
		{
			"bufferView":2,
			"componentType":5126,
			"count":24,
			"type":"VEC2"
		},
		{
			"bufferView":3,
			"componentType":5123,
			"count":36,
			"type":"SCALAR"
		},
		{
			"bufferView":4,
			"componentType":5126,
			"count":167,
			"max":[
				0.1793493628501892,
				0.04287917539477348,
				0.21262522041797638
			],
			"min":[
				0.08509230613708496,
				5.436938010916492e-09,
				-0.045445408672094345
			],
			"type":"VEC3"
		},
		{
			"bufferView":5,
			"componentType":5126,
			"count":167,
			"type":"VEC3"
		},
		{
			"bufferView":6,
			"componentType":5126,
			"count":167,
			"type":"VEC2"
		},
		{
			"bufferView":7,
			"componentType":5123,
			"count":342,
			"type":"SCALAR"
		},
		{
			"bufferView":8,
			"componentType":5126,
			"count":167,
			"max":[
				-0.08509230613708496,
				0.04287917539477348,
				0.21262522041797638
			],
			"min":[
				-0.1793493628501892,
				5.436938010916492e-09,
				-0.045445408672094345
			],
			"type":"VEC3"
		},
		{
			"bufferView":9,
			"componentType":5126,
			"count":167,
			"type":"VEC3"
		},
		{
			"bufferView":10,
			"componentType":5126,
			"count":167,
			"type":"VEC2"
		},
		{
			"bufferView":11,
			"componentType":5123,
			"count":342,
			"type":"SCALAR"
		},
		{
			"bufferView":12,
			"componentType":5126,
			"count":180,
			"max":[
				0.057099953293800354,
				0.04094261676073074,
				0.06663647294044495
			],
			"min":[
				-0.042199939489364624,
				-0.14869731664657593,
				-0.05648580193519592
			],
			"type":"VEC3"
		},
		{
			"bufferView":13,
			"componentType":5126,
			"count":180,
			"type":"VEC3"
		},
		{
			"bufferView":14,
			"componentType":5126,
			"count":180,
			"type":"VEC2"
		},
		{
			"bufferView":15,
			"componentType":5123,
			"count":348,
			"type":"SCALAR"
		},
		{
			"bufferView":16,
			"componentType":5126,
			"count":246,
			"max":[
				0.058893635869026184,
				0.09043020755052567,
				0.07462111115455627
			],
			"min":[
				-0.06950344890356064,
				-0.04903122037649155,
				-0.059610433876514435
			],
			"type":"VEC3"
		},
		{
			"bufferView":17,
			"componentType":5126,
			"count":246,
			"type":"VEC3"
		},
		{
			"bufferView":18,
			"componentType":5126,
			"count":246,
			"type":"VEC2"
		},
		{
			"bufferView":19,
			"componentType":5123,
			"count":444,
			"type":"SCALAR"
		},
		{
			"bufferView":20,
			"componentType":5126,
			"count":2100,
			"max":[
				0.22867712378501892,
				0.030191073194146156,
				0.22078156471252441
			],
			"min":[
				-0.22867712378501892,
				-0.3622928857803345,
				-0.030191073194146156
			],
			"type":"VEC3"
		},
		{
			"bufferView":21,
			"componentType":5126,
			"count":2100,
			"type":"VEC3"
		},
		{
			"bufferView":22,
			"componentType":5126,
			"count":2100,
			"type":"VEC2"
		},
		{
			"bufferView":23,
			"componentType":5123,
			"count":3360,
			"type":"SCALAR"
		},
		{
			"bufferView":24,
			"componentType":5126,
			"count":404,
			"max":[
				0.12021489441394806,
				0.15417465567588806,
				0.16048258543014526
			],
			"min":[
				-0.12021489441394806,
				-0.10901794582605362,
				-0.15417465567588806
			],
			"type":"VEC3"
		},
		{
			"bufferView":25,
			"componentType":5126,
			"count":404,
			"type":"VEC3"
		},
		{
			"bufferView":26,
			"componentType":5126,
			"count":404,
			"type":"VEC2"
		},
		{
			"bufferView":27,
			"componentType":5123,
			"count":576,
			"type":"SCALAR"
		},
		{
			"bufferView":28,
			"componentType":5126,
			"count":23,
			"type":"MAT4"
		}
	],
	"bufferViews":[
		{
			"buffer":0,
			"byteLength":288,
			"byteOffset":0,
			"target":34962
		},
		{
			"buffer":0,
			"byteLength":288,
			"byteOffset":288,
			"target":34962
		},
		{
			"buffer":0,
			"byteLength":192,
			"byteOffset":576,
			"target":34962
		},
		{
			"buffer":0,
			"byteLength":72,
			"byteOffset":768,
			"target":34963
		},
		{
			"buffer":0,
			"byteLength":2004,
			"byteOffset":840,
			"target":34962
		},
		{
			"buffer":0,
			"byteLength":2004,
			"byteOffset":2844,
			"target":34962
		},
		{
			"buffer":0,
			"byteLength":1336,
			"byteOffset":4848,
			"target":34962
		},
		{
			"buffer":0,
			"byteLength":684,
			"byteOffset":6184,
			"target":34963
		},
		{
			"buffer":0,
			"byteLength":2004,
			"byteOffset":6868,
			"target":34962
		},
		{
			"buffer":0,
			"byteLength":2004,
			"byteOffset":8872,
			"target":34962
		},
		{
			"buffer":0,
			"byteLength":1336,
			"byteOffset":10876,
			"target":34962
		},
		{
			"buffer":0,
			"byteLength":684,
			"byteOffset":12212,
			"target":34963
		},
		{
			"buffer":0,
			"byteLength":2160,
			"byteOffset":12896,
			"target":34962
		},
		{
			"buffer":0,
			"byteLength":2160,
			"byteOffset":15056,
			"target":34962
		},
		{
			"buffer":0,
			"byteLength":1440,
			"byteOffset":17216,
			"target":34962
		},
		{
			"buffer":0,
			"byteLength":696,
			"byteOffset":18656,
			"target":34963
		},
		{
			"buffer":0,
			"byteLength":2952,
			"byteOffset":19352,
			"target":34962
		},
		{
			"buffer":0,
			"byteLength":2952,
			"byteOffset":22304,
			"target":34962
		},
		{
			"buffer":0,
			"byteLength":1968,
			"byteOffset":25256,
			"target":34962
		},
		{
			"buffer":0,
			"byteLength":888,
			"byteOffset":27224,
			"target":34963
		},
		{
			"buffer":0,
			"byteLength":25200,
			"byteOffset":28112,
			"target":34962
		},
		{
			"buffer":0,
			"byteLength":25200,
			"byteOffset":53312,
			"target":34962
		},
		{
			"buffer":0,
			"byteLength":16800,
			"byteOffset":78512,
			"target":34962
		},
		{
			"buffer":0,
			"byteLength":6720,
			"byteOffset":95312,
			"target":34963
		},
		{
			"buffer":0,
			"byteLength":4848,
			"byteOffset":102032,
			"target":34962
		},
		{
			"buffer":0,
			"byteLength":4848,
			"byteOffset":106880,
			"target":34962
		},
		{
			"buffer":0,
			"byteLength":3232,
			"byteOffset":111728,
			"target":34962
		},
		{
			"buffer":0,
			"byteLength":1152,
			"byteOffset":114960,
			"target":34963
		},
		{
			"buffer":0,
			"byteLength":1472,
			"byteOffset":116112
		}
	],
	"samplers":[
		{
			"magFilter":9728,
			"minFilter":9984
		}
	],
	"buffers":[
		{
			"byteLength":117584,
			"uri":"skeleton.bin"
		}
	]
}
