{
	"asset":{
		"generator":"Khronos glTF Blender I/O v4.3.47",
		"version":"2.0"
	},
	"scene":0,
	"scenes":[
		{
			"name":"Scene",
			"nodes":[
				0,
				1
			]
		}
	],
	"nodes":[
		{
			"camera":0,
			"name":"Camera",
			"rotation":[
				-0.08182334154844284,
				-0.9062051773071289,
				-0.2058817744255066,
				0.36015254259109497
			],
			"translation":[
				-5.615227222442627,
				5.865628719329834,
				-8.863008499145508
			]
		},
		{
			"mesh":0,
			"name":"WallPole",
			"translation":[
				0,
				0.30000007152557373,
				0
			]
		}
	],
	"cameras":[
		{
			"name":"Camera",
			"perspective":{
				"aspectRatio":1.7777777777777777,
				"yfov":0.39959652046304894,
				"zfar":1000,
				"znear":0.10000000149011612
			},
			"type":"perspective"
		}
	],
	"materials":[
		{
			"doubleSided":true,
			"name":"Rock",
			"pbrMetallicRoughness":{
				"baseColorTexture":{
					"index":0
				},
				"metallicFactor":0,
				"roughnessFactor":0.699999988079071
			}
		}
	],
	"meshes":[
		{
			"name":"Cube",
			"primitives":[
				{
					"attributes":{
						"POSITION":0,
						"NORMAL":1,
						"TEXCOORD_0":2
					},
					"indices":3,
					"material":0
				}
			]
		}
	],
	"textures":[
		{
			"sampler":0,
			"source":0
		}
	],
	"images":[
		{
			"mimeType":"image/png",
			"name":"main-texture",
			"uri":"main-texture.png"
		}
	],
	"accessors":[
		{
			"bufferView":0,
			"componentType":5126,
			"count":592,
			"max":[
				0.30000001192092896,
				1.9000000953674316,
				0.30000001192092896
			],
			"min":[
				-0.30000001192092896,
				-0.30000001192092896,
				-0.30000001192092896
			],
			"type":"VEC3"
		},
		{
			"bufferView":1,
			"componentType":5126,
			"count":592,
			"type":"VEC3"
		},
		{
			"bufferView":2,
			"componentType":5126,
			"count":592,
			"type":"VEC2"
		},
		{
			"bufferView":3,
			"componentType":5123,
			"count":912,
			"type":"SCALAR"
		}
	],
	"bufferViews":[
		{
			"buffer":0,
			"byteLength":7104,
			"byteOffset":0,
			"target":34962
		},
		{
			"buffer":0,
			"byteLength":7104,
			"byteOffset":7104,
			"target":34962
		},
		{
			"buffer":0,
			"byteLength":4736,
			"byteOffset":14208,
			"target":34962
		},
		{
			"buffer":0,
			"byteLength":1824,
			"byteOffset":18944,
			"target":34963
		}
	],
	"samplers":[
		{
			"magFilter":9728,
			"minFilter":9984
		}
	],
	"buffers":[
		{
			"byteLength":20768,
			"uri":"Pillar.bin"
		}
	]
}
