{
	"asset":{
		"generator":"Khronos glTF Blender I/O v4.3.47",
		"version":"2.0"
	},
	"scene":0,
	"scenes":[
		{
			"name":"Scene",
			"nodes":[
				0
			]
		}
	],
	"nodes":[
		{
			"mesh":0,
			"name":"WallPole",
			"rotation":[
				0,
				1,
				0,
				7.549790126404332e-08
			],
			"translation":[
				3.000000476837158,
				0.30000007152557373,
				-6
			]
		}
	],
	"materials":[
		{
			"doubleSided":true,
			"name":"Rock",
			"pbrMetallicRoughness":{
				"baseColorTexture":{
					"index":0
				},
				"metallicFactor":0,
				"roughnessFactor":0.699999988079071
			}
		}
	],
	"meshes":[
		{
			"name":"WallPole",
			"primitives":[
				{
					"attributes":{
						"POSITION":0,
						"NORMAL":1,
						"TEXCOORD_0":2
					},
					"indices":3,
					"material":0
				}
			]
		}
	],
	"textures":[
		{
			"sampler":0,
			"source":0
		}
	],
	"images":[
		{
			"mimeType":"image/png",
			"name":"main-texture",
			"uri":"../../../../textures/main-texture.png"
		}
	],
	"accessors":[
		{
			"bufferView":0,
			"componentType":5126,
			"count":592,
			"max":[
				0.30000001192092896,
				1.9000000953674316,
				0.30000001192092896
			],
			"min":[
				-0.30000001192092896,
				-0.30000001192092896,
				-0.30000001192092896
			],
			"type":"VEC3"
		},
		{
			"bufferView":1,
			"componentType":5126,
			"count":592,
			"type":"VEC3"
		},
		{
			"bufferView":2,
			"componentType":5126,
			"count":592,
			"type":"VEC2"
		},
		{
			"bufferView":3,
			"componentType":5123,
			"count":912,
			"type":"SCALAR"
		}
	],
	"bufferViews":[
		{
			"buffer":0,
			"byteLength":7104,
			"byteOffset":0,
			"target":34962
		},
		{
			"buffer":0,
			"byteLength":7104,
			"byteOffset":7104,
			"target":34962
		},
		{
			"buffer":0,
			"byteLength":4736,
			"byteOffset":14208,
			"target":34962
		},
		{
			"buffer":0,
			"byteLength":1824,
			"byteOffset":18944,
			"target":34963
		}
	],
	"samplers":[
		{
			"magFilter":9728,
			"minFilter":9984
		}
	],
	"buffers":[
		{
			"byteLength":20768,
			"uri":"WallPillar.bin"
		}
	]
}
