{
	"asset":{
		"generator":"Khronos glTF Blender I/O v5.0.21",
		"version":"2.0"
	},
	"scene":0,
	"scenes":[
		{
			"name":"Scene",
			"nodes":[
				0
			]
		}
	],
	"nodes":[
		{
			"mesh":0,
			"name":"DoorWallUpper",
			"rotation":[
				0,
				-1,
				0,
				7.549790126404332e-08
			],
			"scale":[
				-1,
				-1,
				-1
			],
			"translation":[
				0,
				1.3999947309494019,
				0
			]
		}
	],
	"materials":[
		{
			"doubleSided":true,
			"name":"MainMaterial",
			"pbrMetallicRoughness":{
				"baseColorTexture":{
					"index":0
				},
				"metallicFactor":0,
				"metallicRoughnessTexture":{
					"index":1
				}
			}
		}
	],
	"meshes":[
		{
			"name":"DoorWall",
			"primitives":[
				{
					"attributes":{
						"POSITION":0,
						"NORMAL":1,
						"TEXCOORD_0":2
					},
					"indices":3,
					"material":0
				}
			]
		}
	],
	"textures":[
		{
			"sampler":0,
			"source":0
		},
		{
			"sampler":1,
			"source":1
		}
	],
	"images":[
		{
			"mimeType":"image/png",
			"name":"main-texture",
			"uri":"../../../../textures/main-texture.png"
		},
		{
			"mimeType":"image/png",
			"name":"main_roughness",
			"uri":"../../../../textures/main_roughness.png"
		}
	],
	"accessors":[
		{
			"bufferView":0,
			"componentType":5126,
			"count":2713,
			"max":[
				1.3005564212799072,
				1.3999948501586914,
				0.20000126957893372
			],
			"min":[
				-1.3005563020706177,
				-0.8000001907348633,
				-0.19999966025352478
			],
			"type":"VEC3"
		},
		{
			"bufferView":1,
			"componentType":5126,
			"count":2713,
			"type":"VEC3"
		},
		{
			"bufferView":2,
			"componentType":5126,
			"count":2713,
			"type":"VEC2"
		},
		{
			"bufferView":3,
			"componentType":5123,
			"count":4041,
			"type":"SCALAR"
		}
	],
	"bufferViews":[
		{
			"buffer":0,
			"byteLength":32556,
			"byteOffset":0,
			"target":34962
		},
		{
			"buffer":0,
			"byteLength":32556,
			"byteOffset":32556,
			"target":34962
		},
		{
			"buffer":0,
			"byteLength":21704,
			"byteOffset":65112,
			"target":34962
		},
		{
			"buffer":0,
			"byteLength":8082,
			"byteOffset":86816,
			"target":34963
		}
	],
	"samplers":[
		{
			"magFilter":9728,
			"minFilter":9984
		},
		{
			"magFilter":9729,
			"minFilter":9987
		}
	],
	"buffers":[
		{
			"byteLength":94900,
			"uri":"WallDoor.bin"
		}
	]
}
