ply
format ascii 1.0
comment Created in Blender version 4.3.1
element vertex 48
property float x
property float y
property float z
property float nx
property float ny
property float nz
property float s
property float t
element face 44
property list uchar uint vertex_indices
end_header
0.06636004 0.13238938 0.03944076 0.11382542 0.38403404 0.9162761 0.66724026 0.51280856
-0.020488992 0.14980793 0.022022212 -0.3316646 0.85336125 0.40221056 0.77499336 0.5
-0.0053203255 0.13238938 0.03944076 -0.10782714 0.39089224 0.91409874 0.754235 0.5133042
0.012277793 -0.17178814 0.03944076 0.019435132 -0.39572704 0.9181626 0.70117813 0.7369437
-0.09921673 -0.16226777 0.022022212 -0.53967154 -0.7377441 0.4055716 0.82020134 0.75
0.028762884 -0.19378722 0.022022212 0.19787554 -0.8841437 0.4232438 0.6815783 0.75
0.028762884 -0.19378722 0.022022212 0.19787554 -0.8841437 0.4232438 0.56979525 0.8065783
-0.09935997 -0.1622325 -0.03944076 -0.44548634 -0.63265836 -0.6334709 0.375 0.9453565
0.028969318 -0.19383806 -0.03944076 0.15351066 -0.76752084 -0.6223715 0.375 0.80635464
0.10142222 0.13238077 -0.03944076 0.73186725 0.2653216 -0.6276741 0.375 0.5122224
0.08423209 -0.15295404 0.022022212 0.78543776 -0.45162332 0.42323035 0.56979525 0.71233964
0.08421931 -0.15316626 -0.03944076 0.6872547 -0.37459502 -0.6223821 0.375 0.7124884
0.06812403 -0.13067742 0.039440755 0.3720787 -0.1361295 0.9181647 0.6442758 0.6989599
0.101418614 0.1323209 0.022022212 0.84919566 0.32841086 0.41353738 0.5697952 0.5122644
0.08291345 0.11480868 0.03944076 0.39018434 0.09052265 0.9162761 0.6457586 0.5251354
-0.100427784 0.05112814 0.03944076 -0.36927894 0.1675038 0.91409826 0.85469764 0.5809891
-0.079310924 -0.14923123 0.03944076 -0.20014459 -0.35108367 0.9147034 0.8008473 0.7364266
0.06812403 -0.13067742 0.039440755 0.3720787 -0.1361295 0.9181647 0.6442758 0.6989598
0.10142222 0.13238077 -0.03944076 0.73186725 0.2653216 -0.6276741 0.37500003 0.5122224
0.028969318 -0.19383806 -0.03944076 0.15351066 -0.76752084 -0.6223715 0.31864536 0.75
-0.14170013 -0.09848902 -0.03944076 -0.75591 -0.16534495 -0.63345194 0.125 0.7071794
-0.14167713 -0.09834331 0.022022212 -0.8892835 -0.21139793 0.40556875 0.875 0.70705783
0.08423209 -0.15295404 0.022022212 0.78543776 -0.45162332 0.42323035 0.6439492 0.7372407
0.06812403 -0.13067742 0.039440755 0.3720787 -0.1361295 0.9181647 0.6439492 0.7372407
-0.14170013 -0.09848902 -0.03944076 -0.75591 -0.16534495 -0.63345194 0.375 0.042820618
-0.09921673 -0.16226777 0.022022212 -0.53967154 -0.7377441 0.4055716 0.5697952 0
-0.14167713 -0.09834331 0.022022212 -0.8892835 -0.21139793 0.40556875 0.5697952 0.042942166
-0.115265824 0.068829186 0.022022212 -0.7911432 0.46077043 0.4022229 0.56979525 0.18243119
-0.11523312 0.06903615 -0.03944076 -0.67285085 0.37718055 -0.63640136 0.37499997 0.18260388
0.101418614 0.1323209 0.022022212 0.84919566 0.32841086 0.41353738 0.63212514 0.5043324
0.08291345 0.11480868 0.03944076 0.39018434 0.09052265 0.9162761 0.64586484 0.5126868
0.08495338 0.14980793 0.022022212 0.3788753 0.82791346 0.41353706 0.56979525 0.4786299
-0.12194225 -0.08504942 0.03944076 -0.40122512 -0.048364688 0.91470176 0.85573137 0.69346243
-0.115265824 0.068829186 0.022022212 -0.7911432 0.46077043 0.4022229 0.875 0.56756884
-0.100427784 0.05112814 0.03944076 -0.36927894 0.1675038 0.91409826 0.8546977 0.5809891
-0.020698525 0.14980793 -0.03944076 -0.2675527 0.72346234 -0.63641006 0.375 0.34975106
-0.020488992 0.14980793 0.022022212 -0.3316646 0.85336125 0.40221056 0.56979525 0.35000664
0.085013375 0.14980793 -0.03944076 0.3088672 0.71460605 -0.6276459 0.37500003 0.47870305
0.08495338 0.14980793 0.022022212 0.3788753 0.82791346 0.41353706 0.6463701 0.5
-0.09921673 -0.16226777 0.022022212 -0.53967154 -0.7377441 0.4055716 0.56979525 0.9452014
0.08423209 -0.15295404 0.022022212 0.78543776 -0.45162332 0.42323035 0.56979525 0.7123396
0.06636004 0.13238938 0.03944076 0.11382542 0.38403404 0.9162761 0.6672403 0.51280856
-0.12194225 -0.08504942 0.03944076 -0.40122512 -0.048364688 0.91470176 0.8557313 0.69346243
-0.11523312 0.06903615 -0.03944076 -0.67285085 0.37718055 -0.63640136 0.125 0.5673961
-0.020698525 0.14980793 -0.03944076 -0.2675527 0.72346234 -0.63641006 0.22475104 0.5
0.085013375 0.14980793 -0.03944076 0.3088672 0.71460605 -0.6276459 0.35370308 0.5
-0.09935997 -0.1622325 -0.03944076 -0.44548634 -0.63265836 -0.6334709 0.17964353 0.75
-0.09935997 -0.1622325 -0.03944076 -0.44548634 -0.63265836 -0.6334709 0.375 0
3 0 1 2
3 3 4 5
3 6 7 8
3 9 10 11
3 12 13 14
3 15 16 17
3 18 19 20
3 16 21 4
3 3 22 23
3 10 8 11
3 24 25 26
3 24 27 28
3 29 0 30
3 9 31 13
3 32 33 21
3 1 34 2
3 35 27 36
3 36 37 35
3 0 38 1
3 3 16 4
3 6 39 7
3 9 13 10
3 12 40 13
3 17 14 41
3 41 2 15
3 15 42 16
3 16 3 17
3 17 41 15
3 20 43 44
3 44 45 18
3 18 11 19
3 19 46 20
3 20 44 18
3 16 32 21
3 3 5 22
3 10 6 8
3 24 47 25
3 24 26 27
3 29 38 0
3 9 37 31
3 32 34 33
3 1 33 34
3 35 28 27
3 36 31 37
