{
	"asset":{
		"generator":"Khronos glTF Blender I/O v5.0.21",
		"version":"2.0"
	},
	"scene":0,
	"scenes":[
		{
			"name":"Scene",
			"nodes":[
				0
			]
		}
	],
	"nodes":[
		{
			"mesh":0,
			"name":"Wall",
			"translation":[
				0,
				1.399999976158142,
				0
			]
		}
	],
	"materials":[
		{
			"doubleSided":true,
			"name":"MainMaterial",
			"pbrMetallicRoughness":{
				"baseColorTexture":{
					"index":0
				},
				"metallicFactor":0,
				"metallicRoughnessTexture":{
					"index":1
				}
			}
		}
	],
	"meshes":[
		{
			"name":"Wall",
			"primitives":[
				{
					"attributes":{
						"POSITION":0,
						"NORMAL":1,
						"TEXCOORD_0":2
					},
					"indices":3,
					"material":0
				}
			]
		}
	],
	"textures":[
		{
			"sampler":0,
			"source":0
		},
		{
			"sampler":1,
			"source":1
		}
	],
	"images":[
		{
			"mimeType":"image/png",
			"name":"main-texture",
			"uri":"../../../../textures/main-texture.png"
		},
		{
			"mimeType":"image/png",
			"name":"main_roughness",
			"uri":"../../../../textures/main_roughness.png"
		}
	],
	"accessors":[
		{
			"bufferView":0,
			"componentType":5126,
			"count":3123,
			"max":[
				1.3005564212799072,
				0.8000003099441528,
				0.12789465487003326
			],
			"min":[
				-1.3005563020706177,
				-0.8000002503395081,
				-0.12789398431777954
			],
			"type":"VEC3"
		},
		{
			"bufferView":1,
			"componentType":5126,
			"count":3123,
			"type":"VEC3"
		},
		{
			"bufferView":2,
			"componentType":5126,
			"count":3123,
			"type":"VEC2"
		},
		{
			"bufferView":3,
			"componentType":5123,
			"count":4686,
			"type":"SCALAR"
		}
	],
	"bufferViews":[
		{
			"buffer":0,
			"byteLength":37476,
			"byteOffset":0,
			"target":34962
		},
		{
			"buffer":0,
			"byteLength":37476,
			"byteOffset":37476,
			"target":34962
		},
		{
			"buffer":0,
			"byteLength":24984,
			"byteOffset":74952,
			"target":34962
		},
		{
			"buffer":0,
			"byteLength":9372,
			"byteOffset":99936,
			"target":34963
		}
	],
	"samplers":[
		{
			"magFilter":9728,
			"minFilter":9984
		},
		{
			"magFilter":9729,
			"minFilter":9987
		}
	],
	"buffers":[
		{
			"byteLength":109308,
			"uri":"Wall.bin"
		}
	]
}
