{
	"asset":{
		"generator":"Khronos glTF Blender I/O v5.0.21",
		"version":"2.0"
	},
	"scene":0,
	"scenes":[
		{
			"name":"Scene",
			"nodes":[
				0
			]
		}
	],
	"nodes":[
		{
			"mesh":0,
			"name":"Bow"
		}
	],
	"materials":[
		{
			"doubleSided":true,
			"name":"MainMaterial",
			"pbrMetallicRoughness":{
				"baseColorTexture":{
					"index":0
				},
				"metallicFactor":0,
				"metallicRoughnessTexture":{
					"index":1
				}
			}
		}
	],
	"meshes":[
		{
			"name":"Bow",
			"primitives":[
				{
					"attributes":{
						"POSITION":0,
						"NORMAL":1,
						"TEXCOORD_0":2
					},
					"indices":3,
					"material":0
				}
			]
		}
	],
	"textures":[
		{
			"sampler":0,
			"source":0
		},
		{
			"sampler":1,
			"source":1
		}
	],
	"images":[
		{
			"mimeType":"image/png",
			"name":"main-texture",
			"uri":"../../../textures/main-texture.png"
		},
		{
			"mimeType":"image/png",
			"name":"main_roughness",
			"uri":"../../../textures/main_roughness.png"
		}
	],
	"accessors":[
		{
			"bufferView":0,
			"componentType":5126,
			"count":410,
			"max":[
				0.027910996228456497,
				0.2418529987335205,
				0.4500065743923187
			],
			"min":[
				-0.007935651578009129,
				-0.022840311750769615,
				-0.463579922914505
			],
			"type":"VEC3"
		},
		{
			"bufferView":1,
			"componentType":5126,
			"count":410,
			"type":"VEC3"
		},
		{
			"bufferView":2,
			"componentType":5126,
			"count":410,
			"type":"VEC2"
		},
		{
			"bufferView":3,
			"componentType":5123,
			"count":576,
			"type":"SCALAR"
		}
	],
	"bufferViews":[
		{
			"buffer":0,
			"byteLength":4920,
			"byteOffset":0,
			"target":34962
		},
		{
			"buffer":0,
			"byteLength":4920,
			"byteOffset":4920,
			"target":34962
		},
		{
			"buffer":0,
			"byteLength":3280,
			"byteOffset":9840,
			"target":34962
		},
		{
			"buffer":0,
			"byteLength":1152,
			"byteOffset":13120,
			"target":34963
		}
	],
	"samplers":[
		{
			"magFilter":9728,
			"minFilter":9984
		},
		{
			"magFilter":9729,
			"minFilter":9987
		}
	],
	"buffers":[
		{
			"byteLength":14272,
			"uri":"Bow.bin"
		}
	]
}
