{
	"asset":{
		"generator":"Khronos glTF Blender I/O v4.3.47",
		"version":"2.0"
	},
	"scene":0,
	"scenes":[
		{
			"name":"Scene",
			"nodes":[
				0
			]
		}
	],
	"nodes":[
		{
			"mesh":0,
			"name":"Wall",
			"scale":[
				-1,
				-1,
				-1
			],
			"translation":[
				1.5,
				1.399999976158142,
				0
			]
		}
	],
	"materials":[
		{
			"doubleSided":true,
			"name":"RockNoTexture",
			"pbrMetallicRoughness":{
				"baseColorFactor":[
					0.15895980596542358,
					0.1559266299009323,
					0.15896092355251312,
					1
				],
				"metallicFactor":0,
				"roughnessFactor":0.800000011920929
			}
		}
	],
	"meshes":[
		{
			"name":"WallBrick.001",
			"primitives":[
				{
					"attributes":{
						"POSITION":0,
						"NORMAL":1,
						"TEXCOORD_0":2
					},
					"indices":3,
					"material":0
				}
			]
		}
	],
	"accessors":[
		{
			"bufferView":0,
			"componentType":5126,
			"count":3060,
			"max":[
				1.3005564212799072,
				0.8000001311302185,
				0.12789364159107208
			],
			"min":[
				-1.3005563020706177,
				-0.8000001907348633,
				-0.12789350748062134
			],
			"type":"VEC3"
		},
		{
			"bufferView":1,
			"componentType":5126,
			"count":3060,
			"type":"VEC3"
		},
		{
			"bufferView":2,
			"componentType":5126,
			"count":3060,
			"type":"VEC2"
		},
		{
			"bufferView":3,
			"componentType":5123,
			"count":4686,
			"type":"SCALAR"
		}
	],
	"bufferViews":[
		{
			"buffer":0,
			"byteLength":36720,
			"byteOffset":0,
			"target":34962
		},
		{
			"buffer":0,
			"byteLength":36720,
			"byteOffset":36720,
			"target":34962
		},
		{
			"buffer":0,
			"byteLength":24480,
			"byteOffset":73440,
			"target":34962
		},
		{
			"buffer":0,
			"byteLength":9372,
			"byteOffset":97920,
			"target":34963
		}
	],
	"buffers":[
		{
			"byteLength":107292,
			"uri":"Wall.bin"
		}
	]
}
